ISO-10303-21;
HEADER;
/* Generated by software containing ST-Developer
 * from STEP Tools, Inc. (www.steptools.com) 
 */
/* OPTION: using custom renumber hook */

FILE_DESCRIPTION(
/* description */ ('STEP AP242 Edition 2',
'CAx-IF Rec.Pracs.---Representation and Presentation of Product Manufa
cturing Information (PMI)---4.0---2014-10-13',
'CAx-IF Rec.Pracs.---3D Tessellated Geometry---0.4---2014-09-14','2;1',
'CAx-IF Rec.Pracs.---User Defined Attributes---1.5---2016-08-15'),
/* implementation_level */ '2;1');

FILE_NAME(
/* name */ 'Knob - Knob',
/* time_stamp */ '2026-05-27T17:28:03Z',
/* author */ (''),
/* organization */ (''),
/* preprocessor_version */ 'ST-DEVELOPER v20',
/* originating_system */ 'ONSHAPE BY PTC INC, 1.215',
/* authorisation */ '  ');

FILE_SCHEMA (('AP242_MANAGED_MODEL_BASED_3D_ENGINEERING_MIM_LF { 1 0 10303 442 3 1 4 }'));
ENDSEC;

DATA;
#10=SHAPE_REPRESENTATION_RELATIONSHIP('','',#216,#11);
#11=ADVANCED_BREP_SHAPE_REPRESENTATION('',(#214),#344);
#12=CONICAL_SURFACE('',#231,0.0034,0.523598775598299);
#13=OVER_RIDING_STYLED_ITEM('',(#183),#171,#181);
#14=OVER_RIDING_STYLED_ITEM('',(#184),#172,#181);
#15=OVER_RIDING_STYLED_ITEM('',(#185),#173,#181);
#16=OVER_RIDING_STYLED_ITEM('',(#186),#174,#181);
#17=PLANE('',#222);
#18=PLANE('',#224);
#19=PLANE('',#226);
#20=PLANE('',#229);
#21=PLANE('',#230);
#22=PLANE('',#234);
#23=PLANE('',#236);
#24=PLANE('',#237);
#25=LINE('',#302,#37);
#26=LINE('',#306,#38);
#27=LINE('',#311,#39);
#28=LINE('',#315,#40);
#29=LINE('',#317,#41);
#30=LINE('',#319,#42);
#31=LINE('',#321,#43);
#32=LINE('',#325,#44);
#33=LINE('',#336,#45);
#34=LINE('',#338,#46);
#35=LINE('',#340,#47);
#36=LINE('',#341,#48);
#37=VECTOR('',#247,1.);
#38=VECTOR('',#250,1.);
#39=VECTOR('',#257,1.);
#40=VECTOR('',#260,1.);
#41=VECTOR('',#263,1.);
#42=VECTOR('',#264,1.);
#43=VECTOR('',#267,1.);
#44=VECTOR('',#272,1.);
#45=VECTOR('',#285,1.);
#46=VECTOR('',#288,1.);
#47=VECTOR('',#291,1.);
#48=VECTOR('',#292,1.);
#49=ORIENTED_EDGE('',*,*,#91,.T.);
#50=ORIENTED_EDGE('',*,*,#92,.F.);
#51=ORIENTED_EDGE('',*,*,#93,.F.);
#52=ORIENTED_EDGE('',*,*,#94,.F.);
#53=ORIENTED_EDGE('',*,*,#95,.T.);
#54=ORIENTED_EDGE('',*,*,#96,.F.);
#55=ORIENTED_EDGE('',*,*,#91,.F.);
#56=ORIENTED_EDGE('',*,*,#97,.F.);
#57=ORIENTED_EDGE('',*,*,#98,.T.);
#58=ORIENTED_EDGE('',*,*,#99,.T.);
#59=ORIENTED_EDGE('',*,*,#92,.T.);
#60=ORIENTED_EDGE('',*,*,#99,.F.);
#61=ORIENTED_EDGE('',*,*,#100,.F.);
#62=ORIENTED_EDGE('',*,*,#101,.T.);
#63=ORIENTED_EDGE('',*,*,#93,.T.);
#64=ORIENTED_EDGE('',*,*,#98,.F.);
#65=ORIENTED_EDGE('',*,*,#102,.F.);
#66=ORIENTED_EDGE('',*,*,#103,.T.);
#67=ORIENTED_EDGE('',*,*,#100,.T.);
#68=ORIENTED_EDGE('',*,*,#97,.T.);
#69=ORIENTED_EDGE('',*,*,#95,.F.);
#70=ORIENTED_EDGE('',*,*,#104,.F.);
#71=ORIENTED_EDGE('',*,*,#102,.T.);
#72=ORIENTED_EDGE('',*,*,#94,.T.);
#73=ORIENTED_EDGE('',*,*,#101,.F.);
#74=ORIENTED_EDGE('',*,*,#103,.F.);
#75=ORIENTED_EDGE('',*,*,#104,.T.);
#76=ORIENTED_EDGE('',*,*,#96,.T.);
#77=ORIENTED_EDGE('',*,*,#105,.T.);
#78=ORIENTED_EDGE('',*,*,#106,.T.);
#79=ORIENTED_EDGE('',*,*,#107,.F.);
#80=ORIENTED_EDGE('',*,*,#108,.T.);
#81=ORIENTED_EDGE('',*,*,#106,.F.);
#82=ORIENTED_EDGE('',*,*,#109,.F.);
#83=ORIENTED_EDGE('',*,*,#108,.F.);
#84=ORIENTED_EDGE('',*,*,#110,.F.);
#85=ORIENTED_EDGE('',*,*,#109,.T.);
#86=ORIENTED_EDGE('',*,*,#111,.T.);
#87=ORIENTED_EDGE('',*,*,#105,.F.);
#88=ORIENTED_EDGE('',*,*,#110,.T.);
#89=ORIENTED_EDGE('',*,*,#107,.T.);
#90=ORIENTED_EDGE('',*,*,#111,.F.);
#91=EDGE_CURVE('',#112,#112,#126,.T.);
#92=EDGE_CURVE('',#113,#114,#127,.T.);
#93=EDGE_CURVE('',#115,#113,#25,.T.);
#94=EDGE_CURVE('',#116,#115,#128,.T.);
#95=EDGE_CURVE('',#116,#114,#26,.T.);
#96=EDGE_CURVE('',#117,#117,#129,.F.);
#97=EDGE_CURVE('',#118,#114,#27,.T.);
#98=EDGE_CURVE('',#118,#119,#130,.T.);
#99=EDGE_CURVE('',#119,#113,#28,.T.);
#100=EDGE_CURVE('',#120,#119,#29,.T.);
#101=EDGE_CURVE('',#120,#115,#30,.T.);
#102=EDGE_CURVE('',#121,#118,#31,.T.);
#103=EDGE_CURVE('',#121,#120,#131,.T.);
#104=EDGE_CURVE('',#121,#116,#32,.T.);
#105=EDGE_CURVE('',#122,#123,#132,.T.);
#106=EDGE_CURVE('',#123,#122,#133,.T.);
#107=EDGE_CURVE('',#124,#125,#134,.T.);
#108=EDGE_CURVE('',#124,#125,#33,.T.);
#109=EDGE_CURVE('',#122,#123,#34,.T.);
#110=EDGE_CURVE('',#122,#124,#35,.T.);
#111=EDGE_CURVE('',#123,#125,#36,.T.);
#112=VERTEX_POINT('',#298);
#113=VERTEX_POINT('',#300);
#114=VERTEX_POINT('',#301);
#115=VERTEX_POINT('',#303);
#116=VERTEX_POINT('',#305);
#117=VERTEX_POINT('',#309);
#118=VERTEX_POINT('',#312);
#119=VERTEX_POINT('',#314);
#120=VERTEX_POINT('',#318);
#121=VERTEX_POINT('',#322);
#122=VERTEX_POINT('',#329);
#123=VERTEX_POINT('',#330);
#124=VERTEX_POINT('',#334);
#125=VERTEX_POINT('',#335);
#126=CIRCLE('',#219,0.0075);
#127=CIRCLE('',#220,0.0075);
#128=CIRCLE('',#221,0.0075);
#129=CIRCLE('',#223,0.00498771324027147);
#130=CIRCLE('',#225,0.0015);
#131=CIRCLE('',#228,0.0015);
#132=CIRCLE('',#232,0.0034);
#133=CIRCLE('',#233,0.0034);
#134=CIRCLE('',#235,0.0034);
#135=EDGE_LOOP('',(#49));
#136=EDGE_LOOP('',(#50,#51,#52,#53));
#137=EDGE_LOOP('',(#54));
#138=EDGE_LOOP('',(#55));
#139=EDGE_LOOP('',(#56,#57,#58,#59));
#140=EDGE_LOOP('',(#60,#61,#62,#63));
#141=EDGE_LOOP('',(#64,#65,#66,#67));
#142=EDGE_LOOP('',(#68,#69,#70,#71));
#143=EDGE_LOOP('',(#72,#73,#74,#75));
#144=EDGE_LOOP('',(#76));
#145=EDGE_LOOP('',(#77,#78));
#146=EDGE_LOOP('',(#79,#80));
#147=EDGE_LOOP('',(#81,#82));
#148=EDGE_LOOP('',(#83,#84,#85,#86));
#149=EDGE_LOOP('',(#87,#88,#89,#90));
#150=FACE_BOUND('',#135,.T.);
#151=FACE_BOUND('',#136,.T.);
#152=FACE_BOUND('',#137,.T.);
#153=FACE_BOUND('',#138,.T.);
#154=FACE_BOUND('',#139,.T.);
#155=FACE_BOUND('',#140,.T.);
#156=FACE_BOUND('',#141,.T.);
#157=FACE_BOUND('',#142,.T.);
#158=FACE_BOUND('',#143,.T.);
#159=FACE_BOUND('',#144,.T.);
#160=FACE_BOUND('',#145,.T.);
#161=FACE_BOUND('',#146,.T.);
#162=FACE_BOUND('',#147,.T.);
#163=FACE_BOUND('',#148,.T.);
#164=FACE_BOUND('',#149,.T.);
#165=CYLINDRICAL_SURFACE('',#218,0.0075);
#166=CYLINDRICAL_SURFACE('',#227,0.0015);
#167=CYLINDRICAL_SURFACE('',#238,0.0034);
#168=ADVANCED_FACE('',(#150,#151),#165,.T.);
#169=ADVANCED_FACE('',(#152,#153),#17,.F.);
#170=ADVANCED_FACE('',(#154),#18,.T.);
#171=ADVANCED_FACE('Face appearance 1',(#155),#19,.T.);
#172=ADVANCED_FACE('Face appearance 1',(#156),#166,.T.);
#173=ADVANCED_FACE('Face appearance 1',(#157),#20,.F.);
#174=ADVANCED_FACE('Face appearance 1',(#158),#21,.T.);
#175=ADVANCED_FACE('',(#159,#160),#12,.F.);
#176=ADVANCED_FACE('',(#161),#22,.F.);
#177=ADVANCED_FACE('',(#162),#23,.F.);
#178=ADVANCED_FACE('',(#163),#24,.T.);
#179=ADVANCED_FACE('',(#164),#167,.F.);
#180=CLOSED_SHELL('',(#168,#169,#170,#171,#172,#173,#174,#175,#176,#177,
#178,#179));
#181=STYLED_ITEM('',(#182),#214);
#182=PRESENTATION_STYLE_ASSIGNMENT((#187));
#183=PRESENTATION_STYLE_ASSIGNMENT((#188));
#184=PRESENTATION_STYLE_ASSIGNMENT((#189));
#185=PRESENTATION_STYLE_ASSIGNMENT((#190));
#186=PRESENTATION_STYLE_ASSIGNMENT((#191));
#187=SURFACE_STYLE_USAGE(.BOTH.,#192);
#188=SURFACE_STYLE_USAGE(.BOTH.,#193);
#189=SURFACE_STYLE_USAGE(.BOTH.,#194);
#190=SURFACE_STYLE_USAGE(.BOTH.,#195);
#191=SURFACE_STYLE_USAGE(.BOTH.,#196);
#192=SURFACE_SIDE_STYLE('',(#197));
#193=SURFACE_SIDE_STYLE('',(#198));
#194=SURFACE_SIDE_STYLE('',(#199));
#195=SURFACE_SIDE_STYLE('',(#200));
#196=SURFACE_SIDE_STYLE('',(#201));
#197=SURFACE_STYLE_FILL_AREA(#202);
#198=SURFACE_STYLE_FILL_AREA(#203);
#199=SURFACE_STYLE_FILL_AREA(#204);
#200=SURFACE_STYLE_FILL_AREA(#205);
#201=SURFACE_STYLE_FILL_AREA(#206);
#202=FILL_AREA_STYLE('',(#207));
#203=FILL_AREA_STYLE('',(#208));
#204=FILL_AREA_STYLE('',(#209));
#205=FILL_AREA_STYLE('',(#210));
#206=FILL_AREA_STYLE('',(#211));
#207=FILL_AREA_STYLE_COLOUR('',#212);
#208=FILL_AREA_STYLE_COLOUR('',#213);
#209=FILL_AREA_STYLE_COLOUR('',#213);
#210=FILL_AREA_STYLE_COLOUR('',#213);
#211=FILL_AREA_STYLE_COLOUR('',#213);
#212=COLOUR_RGB('',0.498039215686275,0.498039215686275,0.498039215686275);
#213=COLOUR_RGB('',0.917647058823529,0.917647058823529,0.917647058823529);
#214=MANIFOLD_SOLID_BREP('Knob',#180);
#215=SHAPE_DEFINITION_REPRESENTATION(#349,#216);
#216=SHAPE_REPRESENTATION('Knob',(#217),#344);
#217=AXIS2_PLACEMENT_3D('',#295,#239,#240);
#218=AXIS2_PLACEMENT_3D('',#296,#241,#242);
#219=AXIS2_PLACEMENT_3D('',#297,#243,#244);
#220=AXIS2_PLACEMENT_3D('',#299,#245,#246);
#221=AXIS2_PLACEMENT_3D('',#304,#248,#249);
#222=AXIS2_PLACEMENT_3D('',#307,#251,#252);
#223=AXIS2_PLACEMENT_3D('',#308,#253,#254);
#224=AXIS2_PLACEMENT_3D('',#310,#255,#256);
#225=AXIS2_PLACEMENT_3D('',#313,#258,#259);
#226=AXIS2_PLACEMENT_3D('',#316,#261,#262);
#227=AXIS2_PLACEMENT_3D('',#320,#265,#266);
#228=AXIS2_PLACEMENT_3D('',#323,#268,#269);
#229=AXIS2_PLACEMENT_3D('',#324,#270,#271);
#230=AXIS2_PLACEMENT_3D('',#326,#273,#274);
#231=AXIS2_PLACEMENT_3D('',#327,#275,#276);
#232=AXIS2_PLACEMENT_3D('',#328,#277,#278);
#233=AXIS2_PLACEMENT_3D('',#331,#279,#280);
#234=AXIS2_PLACEMENT_3D('',#332,#281,#282);
#235=AXIS2_PLACEMENT_3D('',#333,#283,#284);
#236=AXIS2_PLACEMENT_3D('',#337,#286,#287);
#237=AXIS2_PLACEMENT_3D('',#339,#289,#290);
#238=AXIS2_PLACEMENT_3D('',#342,#293,#294);
#239=DIRECTION('',(0.,0.,1.));
#240=DIRECTION('',(1.,0.,0.));
#241=DIRECTION('',(0.,0.,1.));
#242=DIRECTION('',(1.,0.,0.));
#243=DIRECTION('',(0.,0.,1.));
#244=DIRECTION('',(1.,0.,0.));
#245=DIRECTION('',(0.,0.,1.));
#246=DIRECTION('',(1.,0.,0.));
#247=DIRECTION('',(0.,0.,-1.));
#248=DIRECTION('',(0.,0.,1.));
#249=DIRECTION('',(1.,0.,0.));
#250=DIRECTION('',(0.,0.,-1.));
#251=DIRECTION('',(0.,0.,1.));
#252=DIRECTION('',(1.,0.,0.));
#253=DIRECTION('',(0.,0.,1.));
#254=DIRECTION('',(1.,0.,0.));
#255=DIRECTION('',(0.,0.,1.));
#256=DIRECTION('',(1.,0.,0.));
#257=DIRECTION('',(0.,1.,0.));
#258=DIRECTION('',(0.,0.,-1.));
#259=DIRECTION('',(1.,0.,0.));
#260=DIRECTION('',(0.,1.,0.));
#261=DIRECTION('',(-1.,0.,0.));
#262=DIRECTION('',(0.,0.,1.));
#263=DIRECTION('',(0.,0.,-1.));
#264=DIRECTION('',(0.,1.,0.));
#265=DIRECTION('',(0.,0.,-1.));
#266=DIRECTION('',(-1.,0.,0.));
#267=DIRECTION('',(0.,0.,-1.));
#268=DIRECTION('',(0.,0.,-1.));
#269=DIRECTION('',(1.,0.,0.));
#270=DIRECTION('',(-1.,0.,0.));
#271=DIRECTION('',(0.,0.,1.));
#272=DIRECTION('',(0.,1.,0.));
#273=DIRECTION('',(0.,0.,1.));
#274=DIRECTION('',(1.,0.,0.));
#275=DIRECTION('',(0.,0.,-1.));
#276=DIRECTION('',(-1.,0.,0.));
#277=DIRECTION('',(0.,0.,1.));
#278=DIRECTION('',(1.,0.,0.));
#279=DIRECTION('',(0.,0.,1.));
#280=DIRECTION('',(1.,0.,0.));
#281=DIRECTION('',(0.,0.,1.));
#282=DIRECTION('',(1.,0.,0.));
#283=DIRECTION('',(0.,0.,1.));
#284=DIRECTION('',(1.,0.,0.));
#285=DIRECTION('',(1.,0.,0.));
#286=DIRECTION('',(0.,0.,1.));
#287=DIRECTION('',(1.,0.,0.));
#288=DIRECTION('',(1.,0.,0.));
#289=DIRECTION('',(0.,-1.,0.));
#290=DIRECTION('',(0.,0.,-1.));
#291=DIRECTION('',(0.,0.,1.));
#292=DIRECTION('',(0.,0.,1.));
#293=DIRECTION('',(0.,0.,1.));
#294=DIRECTION('',(1.,0.,0.));
#295=CARTESIAN_POINT('',(0.,0.,0.));
#296=CARTESIAN_POINT('',(0.,4.59242549680257E-19,-0.01475));
#297=CARTESIAN_POINT('',(0.,4.59242549680257E-19,-0.01475));
#298=CARTESIAN_POINT('',(0.0075,4.59242549680257E-19,-0.01475));
#299=CARTESIAN_POINT('',(0.,4.59242549680257E-19,0.002));
#300=CARTESIAN_POINT('',(-0.0015,0.00734846922834953,0.002));
#301=CARTESIAN_POINT('',(0.0015,0.00734846922834953,0.002));
#302=CARTESIAN_POINT('',(-0.0015,0.00734846922834953,0.0025));
#303=CARTESIAN_POINT('',(-0.0015,0.00734846922834953,0.0025));
#304=CARTESIAN_POINT('',(0.,4.59242549680257E-19,0.0025));
#305=CARTESIAN_POINT('',(0.0015,0.00734846922834953,0.0025));
#306=CARTESIAN_POINT('',(0.0015,0.00734846922834953,0.0025));
#307=CARTESIAN_POINT('',(0.,0.,-0.01475));
#308=CARTESIAN_POINT('',(9.14839653117205E-19,3.25260651745652E-19,-0.01475));
#309=CARTESIAN_POINT('',(0.00498771324027147,3.25260651745652E-19,-0.01475));
#310=CARTESIAN_POINT('',(0.,0.,0.002));
#311=CARTESIAN_POINT('',(0.0015,0.00517423461417476,0.002));
#312=CARTESIAN_POINT('',(0.0015,0.003,0.002));
#313=CARTESIAN_POINT('',(2.16840434497101E-19,0.003,0.002));
#314=CARTESIAN_POINT('',(-0.0015,0.003,0.002));
#315=CARTESIAN_POINT('',(-0.0015,0.00517423461417476,0.002));
#316=CARTESIAN_POINT('',(-0.0015,0.00517423461417476,0.0025));
#317=CARTESIAN_POINT('',(-0.0015,0.003,0.0025));
#318=CARTESIAN_POINT('',(-0.0015,0.003,0.0025));
#319=CARTESIAN_POINT('',(-0.0015,0.00517423461417476,0.0025));
#320=CARTESIAN_POINT('',(2.16840434497101E-19,0.003,0.0025));
#321=CARTESIAN_POINT('',(0.0015,0.003,0.0025));
#322=CARTESIAN_POINT('',(0.0015,0.003,0.0025));
#323=CARTESIAN_POINT('',(2.16840434497101E-19,0.003,0.0025));
#324=CARTESIAN_POINT('',(0.0015,0.00517423461417476,0.0025));
#325=CARTESIAN_POINT('',(0.0015,0.00517423461417476,0.0025));
#326=CARTESIAN_POINT('',(0.,0.001,0.0025));
#327=CARTESIAN_POINT('',(9.14839653117205E-19,3.25260651745652E-19,-0.012));
#328=CARTESIAN_POINT('',(9.14839653117205E-19,3.25260651745652E-19,-0.012));
#329=CARTESIAN_POINT('',(-0.00321714158842909,0.0011,-0.012));
#330=CARTESIAN_POINT('',(0.00321714158842909,0.0011,-0.012));
#331=CARTESIAN_POINT('',(-2.81892564846231E-18,0.,-0.012));
#332=CARTESIAN_POINT('',(0.,0.,0.));
#333=CARTESIAN_POINT('',(-2.81892564846231E-18,0.,0.));
#334=CARTESIAN_POINT('',(-0.00321714158842909,0.0011,0.));
#335=CARTESIAN_POINT('',(0.00321714158842908,0.0011,0.));
#336=CARTESIAN_POINT('',(0.,0.0011,0.));
#337=CARTESIAN_POINT('',(0.,0.,-0.012));
#338=CARTESIAN_POINT('',(0.,0.0011,-0.012));
#339=CARTESIAN_POINT('',(0.,0.0011,-0.012));
#340=CARTESIAN_POINT('',(-0.00321714158842909,0.0011,-0.012));
#341=CARTESIAN_POINT('',(0.00321714158842909,0.0011,-0.012));
#342=CARTESIAN_POINT('',(-2.81892564846231E-18,0.,-0.01475));
#343=MECHANICAL_DESIGN_GEOMETRIC_PRESENTATION_REPRESENTATION('',(#181,#13,
#14,#15,#16),#344);
#344=(
GEOMETRIC_REPRESENTATION_CONTEXT(3)
GLOBAL_UNCERTAINTY_ASSIGNED_CONTEXT((#345))
GLOBAL_UNIT_ASSIGNED_CONTEXT((#348,#347,#346))
REPRESENTATION_CONTEXT('Knob','TOP_LEVEL_ASSEMBLY_PART')
);
#345=UNCERTAINTY_MEASURE_WITH_UNIT(LENGTH_MEASURE(1.E-8),#348,
'DISTANCE_ACCURACY_VALUE','Maximum Tolerance applied to model');
#346=(
NAMED_UNIT(*)
SI_UNIT($,.STERADIAN.)
SOLID_ANGLE_UNIT()
);
#347=(
NAMED_UNIT(*)
PLANE_ANGLE_UNIT()
SI_UNIT($,.RADIAN.)
);
#348=(
LENGTH_UNIT()
NAMED_UNIT(*)
SI_UNIT($,.METRE.)
);
#349=PRODUCT_DEFINITION_SHAPE('','',#350);
#350=PRODUCT_DEFINITION('','',#352,#351);
#351=PRODUCT_DEFINITION_CONTEXT('',#358,'design');
#352=PRODUCT_DEFINITION_FORMATION_WITH_SPECIFIED_SOURCE('','',#354,
 .NOT_KNOWN.);
#353=PRODUCT_RELATED_PRODUCT_CATEGORY('','',(#354));
#354=PRODUCT('Knob','Knob','Knob',(#356));
#355=PRODUCT_CATEGORY('','');
#356=PRODUCT_CONTEXT('',#358,'mechanical');
#357=APPLICATION_PROTOCOL_DEFINITION('international standard',
'ap242_managed_model_based_3d_engineering',2020,#358);
#358=APPLICATION_CONTEXT('managed model based 3d engineering');
ENDSEC;
END-ISO-10303-21;
