ISO-10303-21;
HEADER;
/* Generated by software containing ST-Developer
 * from STEP Tools, Inc. (www.steptools.com) 
 */
/* OPTION: using custom renumber hook */

FILE_DESCRIPTION(
/* description */ ('STEP AP242 Edition 2',
'CAx-IF Rec.Pracs.---Representation and Presentation of Product Manufa
cturing Information (PMI)---4.0---2014-10-13',
'CAx-IF Rec.Pracs.---3D Tessellated Geometry---0.4---2014-09-14','2;1',
'CAx-IF Rec.Pracs.---User Defined Attributes---1.5---2016-08-15'),
/* implementation_level */ '2;1');

FILE_NAME(
/* name */ 'Audioswitchinator Case - Top',
/* time_stamp */ '2026-05-24T04:18:33Z',
/* author */ (''),
/* organization */ (''),
/* preprocessor_version */ 'ST-DEVELOPER v20',
/* originating_system */ 'ONSHAPE BY PTC INC, 1.215',
/* authorisation */ '  ');

FILE_SCHEMA (('AP242_MANAGED_MODEL_BASED_3D_ENGINEERING_MIM_LF { 1 0 10303 442 3 1 4 }'));
ENDSEC;

DATA;
#10=SHAPE_REPRESENTATION_RELATIONSHIP('','',#439,#11);
#11=ADVANCED_BREP_SHAPE_REPRESENTATION('',(#437),#717);
#12=CYLINDRICAL_SURFACE('',#448,0.005);
#13=CYLINDRICAL_SURFACE('',#462,0.0081);
#14=CYLINDRICAL_SURFACE('',#472,0.0035);
#15=CYLINDRICAL_SURFACE('',#476,0.0032);
#16=CYLINDRICAL_SURFACE('',#477,0.0036);
#17=CYLINDRICAL_SURFACE('',#478,0.003625);
#18=CYLINDRICAL_SURFACE('',#479,0.00225);
#19=CYLINDRICAL_SURFACE('',#480,0.00225);
#20=CYLINDRICAL_SURFACE('',#481,0.00225);
#21=CYLINDRICAL_SURFACE('',#482,0.00225);
#22=CIRCLE('',#444,0.003625);
#23=CIRCLE('',#445,0.0036);
#24=CIRCLE('',#446,0.0032);
#25=CIRCLE('',#447,0.0035);
#26=CIRCLE('',#449,0.005);
#27=CIRCLE('',#450,0.005);
#28=CIRCLE('',#452,0.00225);
#29=CIRCLE('',#453,0.00225);
#30=CIRCLE('',#454,0.00225);
#31=CIRCLE('',#455,0.00225);
#32=CIRCLE('',#458,0.00225);
#33=CIRCLE('',#459,0.00225);
#34=CIRCLE('',#460,0.00225);
#35=CIRCLE('',#461,0.00225);
#36=CIRCLE('',#463,0.0081);
#37=CIRCLE('',#464,0.0081);
#38=CIRCLE('',#466,0.003625);
#39=CIRCLE('',#467,0.0036);
#40=CIRCLE('',#468,0.0032);
#41=CIRCLE('',#469,0.0035);
#42=ORIENTED_EDGE('',*,*,#146,.T.);
#43=ORIENTED_EDGE('',*,*,#147,.T.);
#44=ORIENTED_EDGE('',*,*,#148,.F.);
#45=ORIENTED_EDGE('',*,*,#149,.T.);
#46=ORIENTED_EDGE('',*,*,#150,.F.);
#47=ORIENTED_EDGE('',*,*,#151,.T.);
#48=ORIENTED_EDGE('',*,*,#152,.F.);
#49=ORIENTED_EDGE('',*,*,#153,.F.);
#50=ORIENTED_EDGE('',*,*,#154,.F.);
#51=ORIENTED_EDGE('',*,*,#146,.F.);
#52=ORIENTED_EDGE('',*,*,#155,.T.);
#53=ORIENTED_EDGE('',*,*,#156,.T.);
#54=ORIENTED_EDGE('',*,*,#157,.F.);
#55=ORIENTED_EDGE('',*,*,#151,.F.);
#56=ORIENTED_EDGE('',*,*,#158,.F.);
#57=ORIENTED_EDGE('',*,*,#159,.F.);
#58=ORIENTED_EDGE('',*,*,#160,.T.);
#59=ORIENTED_EDGE('',*,*,#161,.T.);
#60=ORIENTED_EDGE('',*,*,#162,.T.);
#61=ORIENTED_EDGE('',*,*,#163,.T.);
#62=ORIENTED_EDGE('',*,*,#164,.F.);
#63=ORIENTED_EDGE('',*,*,#165,.T.);
#64=ORIENTED_EDGE('',*,*,#166,.T.);
#65=ORIENTED_EDGE('',*,*,#156,.F.);
#66=ORIENTED_EDGE('',*,*,#167,.F.);
#67=ORIENTED_EDGE('',*,*,#168,.F.);
#68=ORIENTED_EDGE('',*,*,#169,.F.);
#69=ORIENTED_EDGE('',*,*,#170,.F.);
#70=ORIENTED_EDGE('',*,*,#171,.F.);
#71=ORIENTED_EDGE('',*,*,#172,.T.);
#72=ORIENTED_EDGE('',*,*,#173,.T.);
#73=ORIENTED_EDGE('',*,*,#165,.F.);
#74=ORIENTED_EDGE('',*,*,#174,.F.);
#75=ORIENTED_EDGE('',*,*,#175,.T.);
#76=ORIENTED_EDGE('',*,*,#176,.T.);
#77=ORIENTED_EDGE('',*,*,#172,.F.);
#78=ORIENTED_EDGE('',*,*,#177,.F.);
#79=ORIENTED_EDGE('',*,*,#178,.F.);
#80=ORIENTED_EDGE('',*,*,#179,.F.);
#81=ORIENTED_EDGE('',*,*,#180,.F.);
#82=ORIENTED_EDGE('',*,*,#175,.F.);
#83=ORIENTED_EDGE('',*,*,#181,.T.);
#84=ORIENTED_EDGE('',*,*,#182,.T.);
#85=ORIENTED_EDGE('',*,*,#183,.F.);
#86=ORIENTED_EDGE('',*,*,#182,.F.);
#87=ORIENTED_EDGE('',*,*,#184,.T.);
#88=ORIENTED_EDGE('',*,*,#185,.T.);
#89=ORIENTED_EDGE('',*,*,#186,.F.);
#90=ORIENTED_EDGE('',*,*,#187,.F.);
#91=ORIENTED_EDGE('',*,*,#188,.F.);
#92=ORIENTED_EDGE('',*,*,#189,.F.);
#93=ORIENTED_EDGE('',*,*,#148,.T.);
#94=ORIENTED_EDGE('',*,*,#190,.T.);
#95=ORIENTED_EDGE('',*,*,#191,.T.);
#96=ORIENTED_EDGE('',*,*,#192,.T.);
#97=ORIENTED_EDGE('',*,*,#153,.T.);
#98=ORIENTED_EDGE('',*,*,#193,.T.);
#99=ORIENTED_EDGE('',*,*,#185,.F.);
#100=ORIENTED_EDGE('',*,*,#194,.F.);
#101=ORIENTED_EDGE('',*,*,#195,.F.);
#102=ORIENTED_EDGE('',*,*,#152,.T.);
#103=ORIENTED_EDGE('',*,*,#157,.T.);
#104=ORIENTED_EDGE('',*,*,#166,.F.);
#105=ORIENTED_EDGE('',*,*,#173,.F.);
#106=ORIENTED_EDGE('',*,*,#176,.F.);
#107=ORIENTED_EDGE('',*,*,#183,.T.);
#108=ORIENTED_EDGE('',*,*,#186,.T.);
#109=ORIENTED_EDGE('',*,*,#193,.F.);
#110=ORIENTED_EDGE('',*,*,#149,.F.);
#111=ORIENTED_EDGE('',*,*,#194,.T.);
#112=ORIENTED_EDGE('',*,*,#184,.F.);
#113=ORIENTED_EDGE('',*,*,#181,.F.);
#114=ORIENTED_EDGE('',*,*,#174,.T.);
#115=ORIENTED_EDGE('',*,*,#171,.T.);
#116=ORIENTED_EDGE('',*,*,#164,.T.);
#117=ORIENTED_EDGE('',*,*,#155,.F.);
#118=ORIENTED_EDGE('',*,*,#195,.T.);
#119=ORIENTED_EDGE('',*,*,#163,.F.);
#120=ORIENTED_EDGE('',*,*,#154,.T.);
#121=ORIENTED_EDGE('',*,*,#196,.T.);
#122=ORIENTED_EDGE('',*,*,#190,.F.);
#123=ORIENTED_EDGE('',*,*,#147,.F.);
#124=ORIENTED_EDGE('',*,*,#158,.T.);
#125=ORIENTED_EDGE('',*,*,#150,.T.);
#126=ORIENTED_EDGE('',*,*,#192,.F.);
#127=ORIENTED_EDGE('',*,*,#197,.F.);
#128=ORIENTED_EDGE('',*,*,#159,.T.);
#129=ORIENTED_EDGE('',*,*,#197,.T.);
#130=ORIENTED_EDGE('',*,*,#191,.F.);
#131=ORIENTED_EDGE('',*,*,#196,.F.);
#132=ORIENTED_EDGE('',*,*,#189,.T.);
#133=ORIENTED_EDGE('',*,*,#162,.F.);
#134=ORIENTED_EDGE('',*,*,#188,.T.);
#135=ORIENTED_EDGE('',*,*,#161,.F.);
#136=ORIENTED_EDGE('',*,*,#187,.T.);
#137=ORIENTED_EDGE('',*,*,#160,.F.);
#138=ORIENTED_EDGE('',*,*,#170,.T.);
#139=ORIENTED_EDGE('',*,*,#180,.T.);
#140=ORIENTED_EDGE('',*,*,#169,.T.);
#141=ORIENTED_EDGE('',*,*,#179,.T.);
#142=ORIENTED_EDGE('',*,*,#168,.T.);
#143=ORIENTED_EDGE('',*,*,#178,.T.);
#144=ORIENTED_EDGE('',*,*,#167,.T.);
#145=ORIENTED_EDGE('',*,*,#177,.T.);
#146=EDGE_CURVE('',#198,#199,#238,.T.);
#147=EDGE_CURVE('',#199,#200,#239,.T.);
#148=EDGE_CURVE('',#201,#200,#240,.T.);
#149=EDGE_CURVE('',#201,#198,#241,.T.);
#150=EDGE_CURVE('',#202,#203,#242,.T.);
#151=EDGE_CURVE('',#202,#204,#243,.T.);
#152=EDGE_CURVE('',#205,#204,#244,.T.);
#153=EDGE_CURVE('',#203,#205,#245,.T.);
#154=EDGE_CURVE('',#199,#206,#246,.T.);
#155=EDGE_CURVE('',#198,#207,#247,.T.);
#156=EDGE_CURVE('',#207,#208,#248,.T.);
#157=EDGE_CURVE('',#204,#208,#249,.T.);
#158=EDGE_CURVE('',#209,#202,#250,.T.);
#159=EDGE_CURVE('',#206,#209,#251,.T.);
#160=EDGE_CURVE('',#210,#210,#22,.F.);
#161=EDGE_CURVE('',#211,#211,#23,.F.);
#162=EDGE_CURVE('',#212,#212,#24,.F.);
#163=EDGE_CURVE('',#213,#213,#25,.F.);
#164=EDGE_CURVE('',#214,#207,#26,.F.);
#165=EDGE_CURVE('',#214,#215,#252,.T.);
#166=EDGE_CURVE('',#215,#208,#27,.T.);
#167=EDGE_CURVE('',#216,#216,#28,.F.);
#168=EDGE_CURVE('',#217,#217,#29,.F.);
#169=EDGE_CURVE('',#218,#218,#30,.F.);
#170=EDGE_CURVE('',#219,#219,#31,.F.);
#171=EDGE_CURVE('',#220,#214,#253,.T.);
#172=EDGE_CURVE('',#220,#221,#254,.T.);
#173=EDGE_CURVE('',#221,#215,#255,.T.);
#174=EDGE_CURVE('',#222,#220,#256,.T.);
#175=EDGE_CURVE('',#222,#223,#257,.T.);
#176=EDGE_CURVE('',#223,#221,#258,.T.);
#177=EDGE_CURVE('',#224,#224,#32,.T.);
#178=EDGE_CURVE('',#225,#225,#33,.T.);
#179=EDGE_CURVE('',#226,#226,#34,.T.);
#180=EDGE_CURVE('',#227,#227,#35,.T.);
#181=EDGE_CURVE('',#222,#228,#259,.T.);
#182=EDGE_CURVE('',#228,#229,#260,.T.);
#183=EDGE_CURVE('',#223,#229,#261,.T.);
#184=EDGE_CURVE('',#228,#230,#36,.F.);
#185=EDGE_CURVE('',#230,#231,#262,.T.);
#186=EDGE_CURVE('',#229,#231,#37,.T.);
#187=EDGE_CURVE('',#232,#232,#38,.T.);
#188=EDGE_CURVE('',#233,#233,#39,.T.);
#189=EDGE_CURVE('',#234,#234,#40,.T.);
#190=EDGE_CURVE('',#200,#235,#263,.T.);
#191=EDGE_CURVE('',#235,#236,#264,.T.);
#192=EDGE_CURVE('',#236,#203,#265,.T.);
#193=EDGE_CURVE('',#205,#231,#266,.T.);
#194=EDGE_CURVE('',#201,#230,#267,.T.);
#195=EDGE_CURVE('',#237,#237,#41,.T.);
#196=EDGE_CURVE('',#206,#235,#268,.T.);
#197=EDGE_CURVE('',#209,#236,#269,.T.);
#198=VERTEX_POINT('',#604);
#199=VERTEX_POINT('',#605);
#200=VERTEX_POINT('',#607);
#201=VERTEX_POINT('',#609);
#202=VERTEX_POINT('',#613);
#203=VERTEX_POINT('',#614);
#204=VERTEX_POINT('',#616);
#205=VERTEX_POINT('',#618);
#206=VERTEX_POINT('',#622);
#207=VERTEX_POINT('',#624);
#208=VERTEX_POINT('',#626);
#209=VERTEX_POINT('',#629);
#210=VERTEX_POINT('',#632);
#211=VERTEX_POINT('',#634);
#212=VERTEX_POINT('',#636);
#213=VERTEX_POINT('',#638);
#214=VERTEX_POINT('',#641);
#215=VERTEX_POINT('',#643);
#216=VERTEX_POINT('',#647);
#217=VERTEX_POINT('',#649);
#218=VERTEX_POINT('',#651);
#219=VERTEX_POINT('',#653);
#220=VERTEX_POINT('',#655);
#221=VERTEX_POINT('',#657);
#222=VERTEX_POINT('',#661);
#223=VERTEX_POINT('',#663);
#224=VERTEX_POINT('',#667);
#225=VERTEX_POINT('',#669);
#226=VERTEX_POINT('',#671);
#227=VERTEX_POINT('',#673);
#228=VERTEX_POINT('',#675);
#229=VERTEX_POINT('',#677);
#230=VERTEX_POINT('',#681);
#231=VERTEX_POINT('',#683);
#232=VERTEX_POINT('',#687);
#233=VERTEX_POINT('',#689);
#234=VERTEX_POINT('',#691);
#235=VERTEX_POINT('',#693);
#236=VERTEX_POINT('',#695);
#237=VERTEX_POINT('',#700);
#238=LINE('',#603,#270);
#239=LINE('',#606,#271);
#240=LINE('',#608,#272);
#241=LINE('',#610,#273);
#242=LINE('',#612,#274);
#243=LINE('',#615,#275);
#244=LINE('',#617,#276);
#245=LINE('',#619,#277);
#246=LINE('',#621,#278);
#247=LINE('',#623,#279);
#248=LINE('',#625,#280);
#249=LINE('',#627,#281);
#250=LINE('',#628,#282);
#251=LINE('',#630,#283);
#252=LINE('',#642,#284);
#253=LINE('',#654,#285);
#254=LINE('',#656,#286);
#255=LINE('',#658,#287);
#256=LINE('',#660,#288);
#257=LINE('',#662,#289);
#258=LINE('',#664,#290);
#259=LINE('',#674,#291);
#260=LINE('',#676,#292);
#261=LINE('',#678,#293);
#262=LINE('',#682,#294);
#263=LINE('',#692,#295);
#264=LINE('',#694,#296);
#265=LINE('',#696,#297);
#266=LINE('',#697,#298);
#267=LINE('',#698,#299);
#268=LINE('',#705,#300);
#269=LINE('',#707,#301);
#270=VECTOR('',#487,1.);
#271=VECTOR('',#488,1.);
#272=VECTOR('',#489,1.);
#273=VECTOR('',#490,1.);
#274=VECTOR('',#493,1.);
#275=VECTOR('',#494,1.);
#276=VECTOR('',#495,1.);
#277=VECTOR('',#496,1.);
#278=VECTOR('',#499,1.);
#279=VECTOR('',#500,1.);
#280=VECTOR('',#501,1.);
#281=VECTOR('',#502,1.);
#282=VECTOR('',#503,1.);
#283=VECTOR('',#504,1.);
#284=VECTOR('',#517,1.);
#285=VECTOR('',#530,1.);
#286=VECTOR('',#531,1.);
#287=VECTOR('',#532,1.);
#288=VECTOR('',#535,1.);
#289=VECTOR('',#536,1.);
#290=VECTOR('',#537,1.);
#291=VECTOR('',#548,1.);
#292=VECTOR('',#549,1.);
#293=VECTOR('',#550,1.);
#294=VECTOR('',#555,1.);
#295=VECTOR('',#566,1.);
#296=VECTOR('',#567,1.);
#297=VECTOR('',#568,1.);
#298=VECTOR('',#569,1.);
#299=VECTOR('',#570,1.);
#300=VECTOR('',#581,1.);
#301=VECTOR('',#584,1.);
#302=EDGE_LOOP('',(#42,#43,#44,#45));
#303=EDGE_LOOP('',(#46,#47,#48,#49));
#304=EDGE_LOOP('',(#50,#51,#52,#53,#54,#55,#56,#57));
#305=EDGE_LOOP('',(#58));
#306=EDGE_LOOP('',(#59));
#307=EDGE_LOOP('',(#60));
#308=EDGE_LOOP('',(#61));
#309=EDGE_LOOP('',(#62,#63,#64,#65));
#310=EDGE_LOOP('',(#66));
#311=EDGE_LOOP('',(#67));
#312=EDGE_LOOP('',(#68));
#313=EDGE_LOOP('',(#69));
#314=EDGE_LOOP('',(#70,#71,#72,#73));
#315=EDGE_LOOP('',(#74,#75,#76,#77));
#316=EDGE_LOOP('',(#78));
#317=EDGE_LOOP('',(#79));
#318=EDGE_LOOP('',(#80));
#319=EDGE_LOOP('',(#81));
#320=EDGE_LOOP('',(#82,#83,#84,#85));
#321=EDGE_LOOP('',(#86,#87,#88,#89));
#322=EDGE_LOOP('',(#90));
#323=EDGE_LOOP('',(#91));
#324=EDGE_LOOP('',(#92));
#325=EDGE_LOOP('',(#93,#94,#95,#96,#97,#98,#99,#100));
#326=EDGE_LOOP('',(#101));
#327=EDGE_LOOP('',(#102,#103,#104,#105,#106,#107,#108,#109));
#328=EDGE_LOOP('',(#110,#111,#112,#113,#114,#115,#116,#117));
#329=EDGE_LOOP('',(#118));
#330=EDGE_LOOP('',(#119));
#331=EDGE_LOOP('',(#120,#121,#122,#123));
#332=EDGE_LOOP('',(#124,#125,#126,#127));
#333=EDGE_LOOP('',(#128,#129,#130,#131));
#334=EDGE_LOOP('',(#132));
#335=EDGE_LOOP('',(#133));
#336=EDGE_LOOP('',(#134));
#337=EDGE_LOOP('',(#135));
#338=EDGE_LOOP('',(#136));
#339=EDGE_LOOP('',(#137));
#340=EDGE_LOOP('',(#138));
#341=EDGE_LOOP('',(#139));
#342=EDGE_LOOP('',(#140));
#343=EDGE_LOOP('',(#141));
#344=EDGE_LOOP('',(#142));
#345=EDGE_LOOP('',(#143));
#346=EDGE_LOOP('',(#144));
#347=EDGE_LOOP('',(#145));
#348=FACE_BOUND('',#302,.T.);
#349=FACE_BOUND('',#303,.T.);
#350=FACE_BOUND('',#304,.T.);
#351=FACE_BOUND('',#305,.T.);
#352=FACE_BOUND('',#306,.T.);
#353=FACE_BOUND('',#307,.T.);
#354=FACE_BOUND('',#308,.T.);
#355=FACE_BOUND('',#309,.T.);
#356=FACE_BOUND('',#310,.T.);
#357=FACE_BOUND('',#311,.T.);
#358=FACE_BOUND('',#312,.T.);
#359=FACE_BOUND('',#313,.T.);
#360=FACE_BOUND('',#314,.T.);
#361=FACE_BOUND('',#315,.T.);
#362=FACE_BOUND('',#316,.T.);
#363=FACE_BOUND('',#317,.T.);
#364=FACE_BOUND('',#318,.T.);
#365=FACE_BOUND('',#319,.T.);
#366=FACE_BOUND('',#320,.T.);
#367=FACE_BOUND('',#321,.T.);
#368=FACE_BOUND('',#322,.T.);
#369=FACE_BOUND('',#323,.T.);
#370=FACE_BOUND('',#324,.T.);
#371=FACE_BOUND('',#325,.T.);
#372=FACE_BOUND('',#326,.T.);
#373=FACE_BOUND('',#327,.T.);
#374=FACE_BOUND('',#328,.T.);
#375=FACE_BOUND('',#329,.T.);
#376=FACE_BOUND('',#330,.T.);
#377=FACE_BOUND('',#331,.T.);
#378=FACE_BOUND('',#332,.T.);
#379=FACE_BOUND('',#333,.T.);
#380=FACE_BOUND('',#334,.T.);
#381=FACE_BOUND('',#335,.T.);
#382=FACE_BOUND('',#336,.T.);
#383=FACE_BOUND('',#337,.T.);
#384=FACE_BOUND('',#338,.T.);
#385=FACE_BOUND('',#339,.T.);
#386=FACE_BOUND('',#340,.T.);
#387=FACE_BOUND('',#341,.T.);
#388=FACE_BOUND('',#342,.T.);
#389=FACE_BOUND('',#343,.T.);
#390=FACE_BOUND('',#344,.T.);
#391=FACE_BOUND('',#345,.T.);
#392=FACE_BOUND('',#346,.T.);
#393=FACE_BOUND('',#347,.T.);
#394=PLANE('',#441);
#395=PLANE('',#442);
#396=PLANE('',#443);
#397=PLANE('',#451);
#398=PLANE('',#456);
#399=PLANE('',#457);
#400=PLANE('',#465);
#401=PLANE('',#470);
#402=PLANE('',#471);
#403=PLANE('',#473);
#404=PLANE('',#474);
#405=PLANE('',#475);
#406=ADVANCED_FACE('',(#348),#394,.T.);
#407=ADVANCED_FACE('',(#349),#395,.T.);
#408=ADVANCED_FACE('',(#350,#351,#352,#353,#354),#396,.T.);
#409=ADVANCED_FACE('',(#355),#12,.F.);
#410=ADVANCED_FACE('',(#356,#357,#358,#359,#360),#397,.F.);
#411=ADVANCED_FACE('',(#361),#398,.F.);
#412=ADVANCED_FACE('',(#362,#363,#364,#365,#366),#399,.T.);
#413=ADVANCED_FACE('',(#367),#13,.T.);
#414=ADVANCED_FACE('',(#368,#369,#370,#371,#372),#400,.F.);
#415=ADVANCED_FACE('',(#373),#401,.T.);
#416=ADVANCED_FACE('',(#374),#402,.T.);
#417=ADVANCED_FACE('',(#375,#376),#14,.F.);
#418=ADVANCED_FACE('',(#377),#403,.T.);
#419=ADVANCED_FACE('',(#378),#404,.T.);
#420=ADVANCED_FACE('',(#379),#405,.T.);
#421=ADVANCED_FACE('',(#380,#381),#15,.F.);
#422=ADVANCED_FACE('',(#382,#383),#16,.F.);
#423=ADVANCED_FACE('',(#384,#385),#17,.F.);
#424=ADVANCED_FACE('',(#386,#387),#18,.F.);
#425=ADVANCED_FACE('',(#388,#389),#19,.F.);
#426=ADVANCED_FACE('',(#390,#391),#20,.F.);
#427=ADVANCED_FACE('',(#392,#393),#21,.F.);
#428=CLOSED_SHELL('',(#406,#407,#408,#409,#410,#411,#412,#413,#414,#415,
#416,#417,#418,#419,#420,#421,#422,#423,#424,#425,#426,#427));
#429=STYLED_ITEM('',(#430),#437);
#430=PRESENTATION_STYLE_ASSIGNMENT((#431));
#431=SURFACE_STYLE_USAGE(.BOTH.,#432);
#432=SURFACE_SIDE_STYLE('',(#433));
#433=SURFACE_STYLE_FILL_AREA(#434);
#434=FILL_AREA_STYLE('',(#435));
#435=FILL_AREA_STYLE_COLOUR('',#436);
#436=COLOUR_RGB('',0.647058823529412,0.647058823529412,0.647058823529412);
#437=MANIFOLD_SOLID_BREP('Top',#428);
#438=SHAPE_DEFINITION_REPRESENTATION(#722,#439);
#439=SHAPE_REPRESENTATION('Top',(#440),#717);
#440=AXIS2_PLACEMENT_3D('',#601,#483,#484);
#441=AXIS2_PLACEMENT_3D('',#602,#485,#486);
#442=AXIS2_PLACEMENT_3D('',#611,#491,#492);
#443=AXIS2_PLACEMENT_3D('',#620,#497,#498);
#444=AXIS2_PLACEMENT_3D('',#631,#505,#506);
#445=AXIS2_PLACEMENT_3D('',#633,#507,#508);
#446=AXIS2_PLACEMENT_3D('',#635,#509,#510);
#447=AXIS2_PLACEMENT_3D('',#637,#511,#512);
#448=AXIS2_PLACEMENT_3D('',#639,#513,#514);
#449=AXIS2_PLACEMENT_3D('',#640,#515,#516);
#450=AXIS2_PLACEMENT_3D('',#644,#518,#519);
#451=AXIS2_PLACEMENT_3D('',#645,#520,#521);
#452=AXIS2_PLACEMENT_3D('',#646,#522,#523);
#453=AXIS2_PLACEMENT_3D('',#648,#524,#525);
#454=AXIS2_PLACEMENT_3D('',#650,#526,#527);
#455=AXIS2_PLACEMENT_3D('',#652,#528,#529);
#456=AXIS2_PLACEMENT_3D('',#659,#533,#534);
#457=AXIS2_PLACEMENT_3D('',#665,#538,#539);
#458=AXIS2_PLACEMENT_3D('',#666,#540,#541);
#459=AXIS2_PLACEMENT_3D('',#668,#542,#543);
#460=AXIS2_PLACEMENT_3D('',#670,#544,#545);
#461=AXIS2_PLACEMENT_3D('',#672,#546,#547);
#462=AXIS2_PLACEMENT_3D('',#679,#551,#552);
#463=AXIS2_PLACEMENT_3D('',#680,#553,#554);
#464=AXIS2_PLACEMENT_3D('',#684,#556,#557);
#465=AXIS2_PLACEMENT_3D('',#685,#558,#559);
#466=AXIS2_PLACEMENT_3D('',#686,#560,#561);
#467=AXIS2_PLACEMENT_3D('',#688,#562,#563);
#468=AXIS2_PLACEMENT_3D('',#690,#564,#565);
#469=AXIS2_PLACEMENT_3D('',#699,#571,#572);
#470=AXIS2_PLACEMENT_3D('',#701,#573,#574);
#471=AXIS2_PLACEMENT_3D('',#702,#575,#576);
#472=AXIS2_PLACEMENT_3D('',#703,#577,#578);
#473=AXIS2_PLACEMENT_3D('',#704,#579,#580);
#474=AXIS2_PLACEMENT_3D('',#706,#582,#583);
#475=AXIS2_PLACEMENT_3D('',#708,#585,#586);
#476=AXIS2_PLACEMENT_3D('',#709,#587,#588);
#477=AXIS2_PLACEMENT_3D('',#710,#589,#590);
#478=AXIS2_PLACEMENT_3D('',#711,#591,#592);
#479=AXIS2_PLACEMENT_3D('',#712,#593,#594);
#480=AXIS2_PLACEMENT_3D('',#713,#595,#596);
#481=AXIS2_PLACEMENT_3D('',#714,#597,#598);
#482=AXIS2_PLACEMENT_3D('',#715,#599,#600);
#483=DIRECTION('',(0.,0.,1.));
#484=DIRECTION('',(1.,0.,0.));
#485=DIRECTION('',(0.,0.,-1.));
#486=DIRECTION('',(-1.,0.,0.));
#487=DIRECTION('',(1.,1.37021771582839E-16,0.));
#488=DIRECTION('',(1.37021771582839E-16,-1.,-2.14408241013108E-16));
#489=DIRECTION('',(1.,1.37021771582839E-16,0.));
#490=DIRECTION('',(-1.37021771582839E-16,1.,0.));
#491=DIRECTION('',(0.,0.,-1.));
#492=DIRECTION('',(-1.,0.,0.));
#493=DIRECTION('',(1.37021771582839E-16,-1.,-2.14408241013108E-16));
#494=DIRECTION('',(1.,1.37021771582839E-16,0.));
#495=DIRECTION('',(-1.37021771582839E-16,1.,0.));
#496=DIRECTION('',(1.,1.37021771582839E-16,0.));
#497=DIRECTION('',(-1.37021771582839E-16,1.,1.73472347597681E-15));
#498=DIRECTION('',(0.,-1.73472347597681E-15,1.));
#499=DIRECTION('',(0.936329177569045,-4.80804594393941E-16,0.351123441588391));
#500=DIRECTION('',(2.37694883884682E-31,-1.73472347597681E-15,1.));
#501=DIRECTION('',(1.,1.37021771582839E-16,0.));
#502=DIRECTION('',(2.37694883884682E-31,-1.73472347597681E-15,1.));
#503=DIRECTION('',(0.936329177569045,7.37399559784366E-16,-0.351123441588391));
#504=DIRECTION('',(1.,1.37021771582839E-16,-5.62742736297254E-33));
#505=DIRECTION('',(-1.37021771582839E-16,1.,1.73472347597681E-15));
#506=DIRECTION('',(0.,-1.73472347597681E-15,1.));
#507=DIRECTION('',(-1.37021771582839E-16,1.,1.73472347597681E-15));
#508=DIRECTION('',(0.,-1.73472347597681E-15,1.));
#509=DIRECTION('',(-1.37021771582839E-16,1.,1.73472347597681E-15));
#510=DIRECTION('',(0.,-1.73472347597681E-15,1.));
#511=DIRECTION('',(-1.37021771582839E-16,1.,1.73472347597681E-15));
#512=DIRECTION('',(0.,-1.73472347597681E-15,1.));
#513=DIRECTION('',(1.,1.37021771582839E-16,0.));
#514=DIRECTION('',(-1.37021771582839E-16,1.,0.));
#515=DIRECTION('',(-1.,-1.37021771582839E-16,0.));
#516=DIRECTION('',(1.37021771582839E-16,-1.,0.));
#517=DIRECTION('',(1.,1.37021771582839E-16,0.));
#518=DIRECTION('',(1.,1.37021771582839E-16,0.));
#519=DIRECTION('',(-1.37021771582839E-16,1.,0.));
#520=DIRECTION('',(0.,0.,1.));
#521=DIRECTION('',(1.,0.,0.));
#522=DIRECTION('',(0.,0.,1.));
#523=DIRECTION('',(1.,0.,0.));
#524=DIRECTION('',(0.,0.,1.));
#525=DIRECTION('',(1.,0.,0.));
#526=DIRECTION('',(0.,0.,1.));
#527=DIRECTION('',(1.,0.,0.));
#528=DIRECTION('',(0.,0.,1.));
#529=DIRECTION('',(1.,0.,0.));
#530=DIRECTION('',(1.37021771582839E-16,-1.,0.));
#531=DIRECTION('',(1.,1.37021771582839E-16,0.));
#532=DIRECTION('',(1.37021771582839E-16,-1.,0.));
#533=DIRECTION('',(1.37021771582839E-16,-1.,0.));
#534=DIRECTION('',(1.,1.37021771582839E-16,0.));
#535=DIRECTION('',(0.,0.,-1.));
#536=DIRECTION('',(1.,1.37021771582839E-16,0.));
#537=DIRECTION('',(0.,0.,-1.));
#538=DIRECTION('',(2.82864867397167E-32,-2.06437899707169E-16,1.));
#539=DIRECTION('',(0.,-1.,-2.06437899707169E-16));
#540=DIRECTION('',(2.82864867397167E-32,-2.06437899707169E-16,1.));
#541=DIRECTION('',(0.,-1.,-2.06437899707169E-16));
#542=DIRECTION('',(2.82864867397167E-32,-2.06437899707169E-16,1.));
#543=DIRECTION('',(0.,-1.,-2.06437899707169E-16));
#544=DIRECTION('',(2.82864867397167E-32,-2.06437899707169E-16,1.));
#545=DIRECTION('',(0.,-1.,-2.06437899707169E-16));
#546=DIRECTION('',(2.82864867397167E-32,-2.06437899707169E-16,1.));
#547=DIRECTION('',(0.,-1.,-2.06437899707169E-16));
#548=DIRECTION('',(1.37021771582839E-16,-1.,-2.06437899707169E-16));
#549=DIRECTION('',(1.,1.37021771582839E-16,0.));
#550=DIRECTION('',(1.37021771582839E-16,-1.,-2.06437899707169E-16));
#551=DIRECTION('',(1.,1.37021771582839E-16,0.));
#552=DIRECTION('',(-1.37021771582839E-16,1.,0.));
#553=DIRECTION('',(-1.,-1.37021771582839E-16,0.));
#554=DIRECTION('',(1.37021771582839E-16,-1.,0.));
#555=DIRECTION('',(1.,1.37021771582839E-16,0.));
#556=DIRECTION('',(1.,1.37021771582839E-16,0.));
#557=DIRECTION('',(-1.37021771582839E-16,1.,0.));
#558=DIRECTION('',(-1.37021771582839E-16,1.,2.14408241013108E-16));
#559=DIRECTION('',(0.,-2.14408241013108E-16,1.));
#560=DIRECTION('',(1.37021771582839E-16,-1.,-2.14408241013108E-16));
#561=DIRECTION('',(0.,2.14408241013108E-16,-1.));
#562=DIRECTION('',(1.37021771582839E-16,-1.,-2.14408241013108E-16));
#563=DIRECTION('',(0.,2.14408241013108E-16,-1.));
#564=DIRECTION('',(1.37021771582839E-16,-1.,-2.14408241013108E-16));
#565=DIRECTION('',(0.,2.14408241013108E-16,-1.));
#566=DIRECTION('',(0.936329177569045,5.3013723205777E-17,0.351123441588391));
#567=DIRECTION('',(1.,1.37021771582839E-16,-5.62742736297255E-33));
#568=DIRECTION('',(0.936329177569045,2.03581242184649E-16,-0.351123441588391));
#569=DIRECTION('',(2.93785970255764E-32,-2.14408241013108E-16,1.));
#570=DIRECTION('',(2.93785970255764E-32,-2.14408241013108E-16,1.));
#571=DIRECTION('',(1.37021771582839E-16,-1.,-2.14408241013108E-16));
#572=DIRECTION('',(0.,2.14408241013108E-16,-1.));
#573=DIRECTION('',(1.,1.37021771582839E-16,0.));
#574=DIRECTION('',(-1.37021771582839E-16,1.,0.));
#575=DIRECTION('',(-1.,-1.37021771582839E-16,0.));
#576=DIRECTION('',(1.37021771582839E-16,-1.,0.));
#577=DIRECTION('',(1.37021771582839E-16,-1.,-2.14408241013108E-16));
#578=DIRECTION('',(0.,2.14408241013108E-16,-1.));
#579=DIRECTION('',(0.351123441588391,2.48868247982534E-16,-0.936329177569045));
#580=DIRECTION('',(-0.936329177569045,0.,-0.351123441588391));
#581=DIRECTION('',(1.37021771582839E-16,-1.,-2.14408241013108E-16));
#582=DIRECTION('',(-0.351123441588391,1.52645135961124E-16,-0.936329177569045));
#583=DIRECTION('',(-0.936329177569045,0.,0.351123441588391));
#584=DIRECTION('',(1.37021771582839E-16,-1.,-2.14408241013108E-16));
#585=DIRECTION('',(-3.50060243885489E-32,2.14408241013108E-16,-1.));
#586=DIRECTION('',(0.,1.,2.14408241013108E-16));
#587=DIRECTION('',(1.37021771582839E-16,-1.,-2.14408241013108E-16));
#588=DIRECTION('',(0.,2.14408241013108E-16,-1.));
#589=DIRECTION('',(1.37021771582839E-16,-1.,-2.14408241013108E-16));
#590=DIRECTION('',(0.,2.14408241013108E-16,-1.));
#591=DIRECTION('',(1.37021771582839E-16,-1.,-2.14408241013108E-16));
#592=DIRECTION('',(0.,2.14408241013108E-16,-1.));
#593=DIRECTION('',(2.82864867397167E-32,-2.06437899707169E-16,1.));
#594=DIRECTION('',(0.,-1.,-2.06437899707169E-16));
#595=DIRECTION('',(2.82864867397167E-32,-2.06437899707169E-16,1.));
#596=DIRECTION('',(0.,-1.,-2.06437899707169E-16));
#597=DIRECTION('',(2.82864867397167E-32,-2.06437899707169E-16,1.));
#598=DIRECTION('',(0.,-1.,-2.06437899707169E-16));
#599=DIRECTION('',(2.82864867397167E-32,-2.06437899707169E-16,1.));
#600=DIRECTION('',(0.,-1.,-2.06437899707169E-16));
#601=CARTESIAN_POINT('',(0.,0.,0.));
#602=CARTESIAN_POINT('',(-0.075502,-0.0367,-0.004));
#603=CARTESIAN_POINT('',(-0.075502,-0.0351,-0.004));
#604=CARTESIAN_POINT('',(-0.0755,-0.0351,-0.004));
#605=CARTESIAN_POINT('',(-0.0505,-0.0351,-0.004));
#606=CARTESIAN_POINT('',(-0.0505,-0.035098,-0.004));
#607=CARTESIAN_POINT('',(-0.0505,-0.0382,-0.004));
#608=CARTESIAN_POINT('',(-0.075502,-0.0382,-0.004));
#609=CARTESIAN_POINT('',(-0.0755,-0.0382,-0.004));
#610=CARTESIAN_POINT('',(-0.0755,-0.0367,-0.004));
#611=CARTESIAN_POINT('',(-0.075502,-0.0367,-0.004));
#612=CARTESIAN_POINT('',(0.0505,-0.035098,-0.004));
#613=CARTESIAN_POINT('',(0.0505,-0.0351,-0.004));
#614=CARTESIAN_POINT('',(0.0505,-0.0382,-0.004));
#615=CARTESIAN_POINT('',(-0.075502,-0.0351,-0.004));
#616=CARTESIAN_POINT('',(0.0755,-0.0351,-0.004));
#617=CARTESIAN_POINT('',(0.0755,-0.0367,-0.004));
#618=CARTESIAN_POINT('',(0.0755,-0.0382,-0.004));
#619=CARTESIAN_POINT('',(-0.075502,-0.0382,-0.004));
#620=CARTESIAN_POINT('',(-0.075502,-0.0351,-0.002));
#621=CARTESIAN_POINT('',(-0.0465,-0.0351,-0.0025));
#622=CARTESIAN_POINT('',(-0.0425,-0.0351,-0.001));
#623=CARTESIAN_POINT('',(-0.0755,-0.0351,-0.002));
#624=CARTESIAN_POINT('',(-0.0755,-0.0351,0.028363));
#625=CARTESIAN_POINT('',(-0.075502,-0.0351,0.028363));
#626=CARTESIAN_POINT('',(0.0755,-0.0351,0.028363));
#627=CARTESIAN_POINT('',(0.0755,-0.0351,-0.002));
#628=CARTESIAN_POINT('',(0.0465,-0.0351,-0.0025));
#629=CARTESIAN_POINT('',(0.0425,-0.0351,-0.001));
#630=CARTESIAN_POINT('',(6.51412641200043E-18,-0.0351,-0.001));
#631=CARTESIAN_POINT('',(-0.0145,-0.0351,0.0111));
#632=CARTESIAN_POINT('',(-0.0145,-0.0351,0.014725));
#633=CARTESIAN_POINT('',(0.01625,-0.0351,0.0111));
#634=CARTESIAN_POINT('',(0.01625,-0.0351,0.0147));
#635=CARTESIAN_POINT('',(0.0465,-0.0351,0.010315));
#636=CARTESIAN_POINT('',(0.0465,-0.0351,0.013515));
#637=CARTESIAN_POINT('',(-0.042,-0.0351,0.01095));
#638=CARTESIAN_POINT('',(-0.042,-0.0351,0.01445));
#639=CARTESIAN_POINT('',(-0.075502,-0.0301,0.028363));
#640=CARTESIAN_POINT('',(-0.0755,-0.0301,0.028363));
#641=CARTESIAN_POINT('',(-0.0755,-0.0301,0.033363));
#642=CARTESIAN_POINT('',(-0.075502,-0.0301,0.033363));
#643=CARTESIAN_POINT('',(0.0755,-0.0301,0.033363));
#644=CARTESIAN_POINT('',(0.0755,-0.0301,0.028363));
#645=CARTESIAN_POINT('',(-0.075502,0.033125,0.033363));
#646=CARTESIAN_POINT('',(0.0655,-0.0181,0.033363));
#647=CARTESIAN_POINT('',(0.06775,-0.0181,0.033363));
#648=CARTESIAN_POINT('',(0.0655,0.023125,0.033363));
#649=CARTESIAN_POINT('',(0.06775,0.023125,0.033363));
#650=CARTESIAN_POINT('',(-0.0655,0.023125,0.033363));
#651=CARTESIAN_POINT('',(-0.06325,0.023125,0.033363));
#652=CARTESIAN_POINT('',(-0.0655,-0.0181,0.033363));
#653=CARTESIAN_POINT('',(-0.06325,-0.0181,0.033363));
#654=CARTESIAN_POINT('',(-0.0755,0.033125,0.033363));
#655=CARTESIAN_POINT('',(-0.0755,0.037125,0.033363));
#656=CARTESIAN_POINT('',(-0.075502,0.037125,0.033363));
#657=CARTESIAN_POINT('',(0.0755,0.037125,0.033363));
#658=CARTESIAN_POINT('',(0.0755,0.033125,0.033363));
#659=CARTESIAN_POINT('',(-0.075502,0.037125,0.034963));
#660=CARTESIAN_POINT('',(-0.0755,0.037125,0.034963));
#661=CARTESIAN_POINT('',(-0.0755,0.037125,0.036463));
#662=CARTESIAN_POINT('',(-0.075502,0.037125,0.036463));
#663=CARTESIAN_POINT('',(0.0755,0.037125,0.036463));
#664=CARTESIAN_POINT('',(0.0755,0.037125,0.034963));
#665=CARTESIAN_POINT('',(-0.075502,0.0035125,0.036463));
#666=CARTESIAN_POINT('',(0.0655,-0.0181,0.036463));
#667=CARTESIAN_POINT('',(0.0655,-0.02035,0.036463));
#668=CARTESIAN_POINT('',(0.0655,0.023125,0.036463));
#669=CARTESIAN_POINT('',(0.0655,0.020875,0.036463));
#670=CARTESIAN_POINT('',(-0.0655,0.023125,0.036463));
#671=CARTESIAN_POINT('',(-0.0655,0.020875,0.036463));
#672=CARTESIAN_POINT('',(-0.0655,-0.0181,0.036463));
#673=CARTESIAN_POINT('',(-0.0655,-0.02035,0.036463));
#674=CARTESIAN_POINT('',(-0.0755,0.0035125,0.036463));
#675=CARTESIAN_POINT('',(-0.0755,-0.0301,0.036463));
#676=CARTESIAN_POINT('',(-0.075502,-0.0301,0.036463));
#677=CARTESIAN_POINT('',(0.0755,-0.0301,0.036463));
#678=CARTESIAN_POINT('',(0.0755,0.0035125,0.036463));
#679=CARTESIAN_POINT('',(-0.075502,-0.0301,0.028363));
#680=CARTESIAN_POINT('',(-0.0755,-0.0301,0.028363));
#681=CARTESIAN_POINT('',(-0.0755,-0.0382,0.028363));
#682=CARTESIAN_POINT('',(-0.075502,-0.0382,0.028363));
#683=CARTESIAN_POINT('',(0.0755,-0.0382,0.028363));
#684=CARTESIAN_POINT('',(0.0755,-0.0301,0.028363));
#685=CARTESIAN_POINT('',(-0.075502,-0.0382,0.0121815));
#686=CARTESIAN_POINT('',(-0.0145,-0.0382,0.0111));
#687=CARTESIAN_POINT('',(-0.0145,-0.0382,0.007475));
#688=CARTESIAN_POINT('',(0.01625,-0.0382,0.0111));
#689=CARTESIAN_POINT('',(0.01625,-0.0382,0.0075));
#690=CARTESIAN_POINT('',(0.0465,-0.0382,0.010315));
#691=CARTESIAN_POINT('',(0.0465,-0.0382,0.007115));
#692=CARTESIAN_POINT('',(-0.0465,-0.0382,-0.0025));
#693=CARTESIAN_POINT('',(-0.0425,-0.0382,-0.001));
#694=CARTESIAN_POINT('',(6.93889390390723E-18,-0.0382,-0.001));
#695=CARTESIAN_POINT('',(0.0425,-0.0382,-0.001));
#696=CARTESIAN_POINT('',(0.0465,-0.0382,-0.0025));
#697=CARTESIAN_POINT('',(0.0755,-0.0382,0.0121815));
#698=CARTESIAN_POINT('',(-0.0755,-0.0382,0.0121815));
#699=CARTESIAN_POINT('',(-0.042,-0.0382,0.01095));
#700=CARTESIAN_POINT('',(-0.042,-0.0382,0.00745));
#701=CARTESIAN_POINT('',(0.0755,-0.000537499999999993,0.0162315));
#702=CARTESIAN_POINT('',(-0.0755,-0.035,0.003));
#703=CARTESIAN_POINT('',(-0.042,-0.035098,0.01095));
#704=CARTESIAN_POINT('',(-0.0465,-0.035098,-0.0025));
#705=CARTESIAN_POINT('',(-0.0425,-0.035098,-0.001));
#706=CARTESIAN_POINT('',(0.0465,-0.035098,-0.0025));
#707=CARTESIAN_POINT('',(0.0425,-0.035098,-0.001));
#708=CARTESIAN_POINT('',(6.51385236845726E-18,-0.035098,-0.001));
#709=CARTESIAN_POINT('',(0.0465,-0.035098,0.010315));
#710=CARTESIAN_POINT('',(0.01625,-0.035098,0.0111));
#711=CARTESIAN_POINT('',(-0.0145,-0.035098,0.0111));
#712=CARTESIAN_POINT('',(-0.0655,-0.0181,0.033361));
#713=CARTESIAN_POINT('',(-0.0655,0.023125,0.033361));
#714=CARTESIAN_POINT('',(0.0655,0.023125,0.033361));
#715=CARTESIAN_POINT('',(0.0655,-0.0181,0.033361));
#716=MECHANICAL_DESIGN_GEOMETRIC_PRESENTATION_REPRESENTATION('',(#429),
#717);
#717=(
GEOMETRIC_REPRESENTATION_CONTEXT(3)
GLOBAL_UNCERTAINTY_ASSIGNED_CONTEXT((#718))
GLOBAL_UNIT_ASSIGNED_CONTEXT((#721,#720,#719))
REPRESENTATION_CONTEXT('Top','TOP_LEVEL_ASSEMBLY_PART')
);
#718=UNCERTAINTY_MEASURE_WITH_UNIT(LENGTH_MEASURE(1.E-8),#721,
'DISTANCE_ACCURACY_VALUE','Maximum Tolerance applied to model');
#719=(
NAMED_UNIT(*)
SI_UNIT($,.STERADIAN.)
SOLID_ANGLE_UNIT()
);
#720=(
NAMED_UNIT(*)
PLANE_ANGLE_UNIT()
SI_UNIT($,.RADIAN.)
);
#721=(
LENGTH_UNIT()
NAMED_UNIT(*)
SI_UNIT($,.METRE.)
);
#722=PRODUCT_DEFINITION_SHAPE('','',#723);
#723=PRODUCT_DEFINITION('','',#725,#724);
#724=PRODUCT_DEFINITION_CONTEXT('',#731,'design');
#725=PRODUCT_DEFINITION_FORMATION_WITH_SPECIFIED_SOURCE('','',#727,
 .NOT_KNOWN.);
#726=PRODUCT_RELATED_PRODUCT_CATEGORY('','',(#727));
#727=PRODUCT('Top','Top','Top',(#729));
#728=PRODUCT_CATEGORY('','');
#729=PRODUCT_CONTEXT('',#731,'mechanical');
#730=APPLICATION_PROTOCOL_DEFINITION('international standard',
'ap242_managed_model_based_3d_engineering',2020,#731);
#731=APPLICATION_CONTEXT('managed model based 3d engineering');
ENDSEC;
END-ISO-10303-21;
