ISO-10303-21;
HEADER;
/* Generated by software containing ST-Developer
 * from STEP Tools, Inc. (www.steptools.com) 
 */
/* OPTION: using custom renumber hook */

FILE_DESCRIPTION(
/* description */ ('STEP AP242 Edition 2',
'CAx-IF Rec.Pracs.---Representation and Presentation of Product Manufa
cturing Information (PMI)---4.0---2014-10-13',
'CAx-IF Rec.Pracs.---3D Tessellated Geometry---0.4---2014-09-14','2;1',
'CAx-IF Rec.Pracs.---User Defined Attributes---1.5---2016-08-15'),
/* implementation_level */ '2;1');

FILE_NAME(
/* name */ 'Audioswitchinator Case - Top',
/* time_stamp */ '2026-05-27T17:23:33Z',
/* author */ (''),
/* organization */ (''),
/* preprocessor_version */ 'ST-DEVELOPER v20',
/* originating_system */ 'ONSHAPE BY PTC INC, 1.215',
/* authorisation */ '  ');

FILE_SCHEMA (('AP242_MANAGED_MODEL_BASED_3D_ENGINEERING_MIM_LF { 1 0 10303 442 3 1 4 }'));
ENDSEC;

DATA;
#10=SHAPE_REPRESENTATION_RELATIONSHIP('','',#699,#11);
#11=ADVANCED_BREP_SHAPE_REPRESENTATION('',(#697),#1169);
#12=CYLINDRICAL_SURFACE('',#707,0.005);
#13=CYLINDRICAL_SURFACE('',#721,0.0081);
#14=CYLINDRICAL_SURFACE('',#739,0.003625);
#15=CYLINDRICAL_SURFACE('',#740,0.0036);
#16=CYLINDRICAL_SURFACE('',#741,0.0032);
#17=CYLINDRICAL_SURFACE('',#742,0.0035);
#18=CYLINDRICAL_SURFACE('',#744,0.001);
#19=CYLINDRICAL_SURFACE('',#747,0.001);
#20=CYLINDRICAL_SURFACE('',#751,0.001);
#21=CYLINDRICAL_SURFACE('',#754,0.001);
#22=CYLINDRICAL_SURFACE('',#758,0.001);
#23=CYLINDRICAL_SURFACE('',#761,0.001);
#24=CYLINDRICAL_SURFACE('',#765,0.001);
#25=CYLINDRICAL_SURFACE('',#768,0.001);
#26=CYLINDRICAL_SURFACE('',#771,0.00225);
#27=CYLINDRICAL_SURFACE('',#772,0.00225);
#28=CYLINDRICAL_SURFACE('',#773,0.00225);
#29=CYLINDRICAL_SURFACE('',#774,0.00225);
#30=CIRCLE('',#703,0.0035);
#31=CIRCLE('',#704,0.0032);
#32=CIRCLE('',#705,0.0036);
#33=CIRCLE('',#706,0.003625);
#34=CIRCLE('',#708,0.005);
#35=CIRCLE('',#709,0.005);
#36=CIRCLE('',#711,0.00225);
#37=CIRCLE('',#712,0.00225);
#38=CIRCLE('',#713,0.00225);
#39=CIRCLE('',#714,0.00225);
#40=CIRCLE('',#717,0.00225);
#41=CIRCLE('',#718,0.00225);
#42=CIRCLE('',#719,0.00225);
#43=CIRCLE('',#720,0.00225);
#44=CIRCLE('',#722,0.0081);
#45=CIRCLE('',#723,0.0081);
#46=CIRCLE('',#725,0.001);
#47=CIRCLE('',#726,0.001);
#48=CIRCLE('',#727,0.001);
#49=CIRCLE('',#728,0.001);
#50=CIRCLE('',#729,0.001);
#51=CIRCLE('',#730,0.001);
#52=CIRCLE('',#731,0.001);
#53=CIRCLE('',#732,0.001);
#54=CIRCLE('',#733,0.0035);
#55=CIRCLE('',#734,0.0032);
#56=CIRCLE('',#735,0.0036);
#57=CIRCLE('',#736,0.003625);
#58=CIRCLE('',#745,0.001);
#59=CIRCLE('',#748,0.001);
#60=CIRCLE('',#752,0.001);
#61=CIRCLE('',#755,0.001);
#62=CIRCLE('',#759,0.001);
#63=CIRCLE('',#762,0.001);
#64=CIRCLE('',#766,0.001);
#65=CIRCLE('',#769,0.001);
#66=ORIENTED_EDGE('',*,*,#242,.F.);
#67=ORIENTED_EDGE('',*,*,#243,.T.);
#68=ORIENTED_EDGE('',*,*,#244,.T.);
#69=ORIENTED_EDGE('',*,*,#245,.F.);
#70=ORIENTED_EDGE('',*,*,#246,.T.);
#71=ORIENTED_EDGE('',*,*,#247,.T.);
#72=ORIENTED_EDGE('',*,*,#248,.T.);
#73=ORIENTED_EDGE('',*,*,#249,.T.);
#74=ORIENTED_EDGE('',*,*,#244,.F.);
#75=ORIENTED_EDGE('',*,*,#250,.T.);
#76=ORIENTED_EDGE('',*,*,#251,.T.);
#77=ORIENTED_EDGE('',*,*,#252,.F.);
#78=ORIENTED_EDGE('',*,*,#253,.F.);
#79=ORIENTED_EDGE('',*,*,#254,.T.);
#80=ORIENTED_EDGE('',*,*,#255,.T.);
#81=ORIENTED_EDGE('',*,*,#251,.F.);
#82=ORIENTED_EDGE('',*,*,#256,.F.);
#83=ORIENTED_EDGE('',*,*,#257,.F.);
#84=ORIENTED_EDGE('',*,*,#258,.F.);
#85=ORIENTED_EDGE('',*,*,#259,.F.);
#86=ORIENTED_EDGE('',*,*,#260,.F.);
#87=ORIENTED_EDGE('',*,*,#261,.T.);
#88=ORIENTED_EDGE('',*,*,#262,.T.);
#89=ORIENTED_EDGE('',*,*,#254,.F.);
#90=ORIENTED_EDGE('',*,*,#263,.F.);
#91=ORIENTED_EDGE('',*,*,#264,.T.);
#92=ORIENTED_EDGE('',*,*,#265,.T.);
#93=ORIENTED_EDGE('',*,*,#261,.F.);
#94=ORIENTED_EDGE('',*,*,#266,.F.);
#95=ORIENTED_EDGE('',*,*,#267,.F.);
#96=ORIENTED_EDGE('',*,*,#268,.F.);
#97=ORIENTED_EDGE('',*,*,#269,.F.);
#98=ORIENTED_EDGE('',*,*,#264,.F.);
#99=ORIENTED_EDGE('',*,*,#270,.T.);
#100=ORIENTED_EDGE('',*,*,#271,.T.);
#101=ORIENTED_EDGE('',*,*,#272,.F.);
#102=ORIENTED_EDGE('',*,*,#271,.F.);
#103=ORIENTED_EDGE('',*,*,#273,.T.);
#104=ORIENTED_EDGE('',*,*,#274,.T.);
#105=ORIENTED_EDGE('',*,*,#275,.F.);
#106=ORIENTED_EDGE('',*,*,#276,.T.);
#107=ORIENTED_EDGE('',*,*,#277,.T.);
#108=ORIENTED_EDGE('',*,*,#278,.F.);
#109=ORIENTED_EDGE('',*,*,#279,.T.);
#110=ORIENTED_EDGE('',*,*,#280,.T.);
#111=ORIENTED_EDGE('',*,*,#281,.T.);
#112=ORIENTED_EDGE('',*,*,#282,.F.);
#113=ORIENTED_EDGE('',*,*,#283,.T.);
#114=ORIENTED_EDGE('',*,*,#284,.T.);
#115=ORIENTED_EDGE('',*,*,#285,.T.);
#116=ORIENTED_EDGE('',*,*,#286,.F.);
#117=ORIENTED_EDGE('',*,*,#287,.T.);
#118=ORIENTED_EDGE('',*,*,#288,.T.);
#119=ORIENTED_EDGE('',*,*,#289,.T.);
#120=ORIENTED_EDGE('',*,*,#290,.F.);
#121=ORIENTED_EDGE('',*,*,#291,.T.);
#122=ORIENTED_EDGE('',*,*,#292,.F.);
#123=ORIENTED_EDGE('',*,*,#293,.F.);
#124=ORIENTED_EDGE('',*,*,#294,.F.);
#125=ORIENTED_EDGE('',*,*,#295,.F.);
#126=ORIENTED_EDGE('',*,*,#296,.F.);
#127=ORIENTED_EDGE('',*,*,#242,.T.);
#128=ORIENTED_EDGE('',*,*,#297,.T.);
#129=ORIENTED_EDGE('',*,*,#274,.F.);
#130=ORIENTED_EDGE('',*,*,#245,.T.);
#131=ORIENTED_EDGE('',*,*,#252,.T.);
#132=ORIENTED_EDGE('',*,*,#255,.F.);
#133=ORIENTED_EDGE('',*,*,#262,.F.);
#134=ORIENTED_EDGE('',*,*,#265,.F.);
#135=ORIENTED_EDGE('',*,*,#272,.T.);
#136=ORIENTED_EDGE('',*,*,#275,.T.);
#137=ORIENTED_EDGE('',*,*,#297,.F.);
#138=ORIENTED_EDGE('',*,*,#243,.F.);
#139=ORIENTED_EDGE('',*,*,#296,.T.);
#140=ORIENTED_EDGE('',*,*,#273,.F.);
#141=ORIENTED_EDGE('',*,*,#270,.F.);
#142=ORIENTED_EDGE('',*,*,#263,.T.);
#143=ORIENTED_EDGE('',*,*,#260,.T.);
#144=ORIENTED_EDGE('',*,*,#253,.T.);
#145=ORIENTED_EDGE('',*,*,#250,.F.);
#146=ORIENTED_EDGE('',*,*,#295,.T.);
#147=ORIENTED_EDGE('',*,*,#249,.F.);
#148=ORIENTED_EDGE('',*,*,#294,.T.);
#149=ORIENTED_EDGE('',*,*,#248,.F.);
#150=ORIENTED_EDGE('',*,*,#293,.T.);
#151=ORIENTED_EDGE('',*,*,#247,.F.);
#152=ORIENTED_EDGE('',*,*,#292,.T.);
#153=ORIENTED_EDGE('',*,*,#246,.F.);
#154=ORIENTED_EDGE('',*,*,#288,.F.);
#155=ORIENTED_EDGE('',*,*,#298,.F.);
#156=ORIENTED_EDGE('',*,*,#299,.T.);
#157=ORIENTED_EDGE('',*,*,#300,.T.);
#158=ORIENTED_EDGE('',*,*,#291,.F.);
#159=ORIENTED_EDGE('',*,*,#301,.F.);
#160=ORIENTED_EDGE('',*,*,#302,.T.);
#161=ORIENTED_EDGE('',*,*,#298,.T.);
#162=ORIENTED_EDGE('',*,*,#290,.T.);
#163=ORIENTED_EDGE('',*,*,#303,.F.);
#164=ORIENTED_EDGE('',*,*,#304,.F.);
#165=ORIENTED_EDGE('',*,*,#301,.T.);
#166=ORIENTED_EDGE('',*,*,#289,.F.);
#167=ORIENTED_EDGE('',*,*,#300,.F.);
#168=ORIENTED_EDGE('',*,*,#305,.T.);
#169=ORIENTED_EDGE('',*,*,#303,.T.);
#170=ORIENTED_EDGE('',*,*,#299,.F.);
#171=ORIENTED_EDGE('',*,*,#302,.F.);
#172=ORIENTED_EDGE('',*,*,#304,.T.);
#173=ORIENTED_EDGE('',*,*,#305,.F.);
#174=ORIENTED_EDGE('',*,*,#284,.F.);
#175=ORIENTED_EDGE('',*,*,#306,.F.);
#176=ORIENTED_EDGE('',*,*,#307,.T.);
#177=ORIENTED_EDGE('',*,*,#308,.T.);
#178=ORIENTED_EDGE('',*,*,#287,.F.);
#179=ORIENTED_EDGE('',*,*,#309,.F.);
#180=ORIENTED_EDGE('',*,*,#310,.T.);
#181=ORIENTED_EDGE('',*,*,#306,.T.);
#182=ORIENTED_EDGE('',*,*,#286,.T.);
#183=ORIENTED_EDGE('',*,*,#311,.F.);
#184=ORIENTED_EDGE('',*,*,#312,.F.);
#185=ORIENTED_EDGE('',*,*,#309,.T.);
#186=ORIENTED_EDGE('',*,*,#285,.F.);
#187=ORIENTED_EDGE('',*,*,#308,.F.);
#188=ORIENTED_EDGE('',*,*,#313,.T.);
#189=ORIENTED_EDGE('',*,*,#311,.T.);
#190=ORIENTED_EDGE('',*,*,#307,.F.);
#191=ORIENTED_EDGE('',*,*,#310,.F.);
#192=ORIENTED_EDGE('',*,*,#312,.T.);
#193=ORIENTED_EDGE('',*,*,#313,.F.);
#194=ORIENTED_EDGE('',*,*,#280,.F.);
#195=ORIENTED_EDGE('',*,*,#314,.F.);
#196=ORIENTED_EDGE('',*,*,#315,.T.);
#197=ORIENTED_EDGE('',*,*,#316,.T.);
#198=ORIENTED_EDGE('',*,*,#283,.F.);
#199=ORIENTED_EDGE('',*,*,#317,.F.);
#200=ORIENTED_EDGE('',*,*,#318,.T.);
#201=ORIENTED_EDGE('',*,*,#314,.T.);
#202=ORIENTED_EDGE('',*,*,#282,.T.);
#203=ORIENTED_EDGE('',*,*,#319,.F.);
#204=ORIENTED_EDGE('',*,*,#320,.F.);
#205=ORIENTED_EDGE('',*,*,#317,.T.);
#206=ORIENTED_EDGE('',*,*,#281,.F.);
#207=ORIENTED_EDGE('',*,*,#316,.F.);
#208=ORIENTED_EDGE('',*,*,#321,.T.);
#209=ORIENTED_EDGE('',*,*,#319,.T.);
#210=ORIENTED_EDGE('',*,*,#315,.F.);
#211=ORIENTED_EDGE('',*,*,#318,.F.);
#212=ORIENTED_EDGE('',*,*,#320,.T.);
#213=ORIENTED_EDGE('',*,*,#321,.F.);
#214=ORIENTED_EDGE('',*,*,#276,.F.);
#215=ORIENTED_EDGE('',*,*,#322,.F.);
#216=ORIENTED_EDGE('',*,*,#323,.T.);
#217=ORIENTED_EDGE('',*,*,#324,.T.);
#218=ORIENTED_EDGE('',*,*,#279,.F.);
#219=ORIENTED_EDGE('',*,*,#325,.F.);
#220=ORIENTED_EDGE('',*,*,#326,.T.);
#221=ORIENTED_EDGE('',*,*,#322,.T.);
#222=ORIENTED_EDGE('',*,*,#278,.T.);
#223=ORIENTED_EDGE('',*,*,#327,.F.);
#224=ORIENTED_EDGE('',*,*,#328,.F.);
#225=ORIENTED_EDGE('',*,*,#325,.T.);
#226=ORIENTED_EDGE('',*,*,#277,.F.);
#227=ORIENTED_EDGE('',*,*,#324,.F.);
#228=ORIENTED_EDGE('',*,*,#329,.T.);
#229=ORIENTED_EDGE('',*,*,#327,.T.);
#230=ORIENTED_EDGE('',*,*,#323,.F.);
#231=ORIENTED_EDGE('',*,*,#326,.F.);
#232=ORIENTED_EDGE('',*,*,#328,.T.);
#233=ORIENTED_EDGE('',*,*,#329,.F.);
#234=ORIENTED_EDGE('',*,*,#259,.T.);
#235=ORIENTED_EDGE('',*,*,#269,.T.);
#236=ORIENTED_EDGE('',*,*,#258,.T.);
#237=ORIENTED_EDGE('',*,*,#268,.T.);
#238=ORIENTED_EDGE('',*,*,#257,.T.);
#239=ORIENTED_EDGE('',*,*,#267,.T.);
#240=ORIENTED_EDGE('',*,*,#256,.T.);
#241=ORIENTED_EDGE('',*,*,#266,.T.);
#242=EDGE_CURVE('',#330,#331,#394,.T.);
#243=EDGE_CURVE('',#330,#332,#395,.T.);
#244=EDGE_CURVE('',#332,#333,#396,.T.);
#245=EDGE_CURVE('',#331,#333,#397,.T.);
#246=EDGE_CURVE('',#334,#334,#30,.F.);
#247=EDGE_CURVE('',#335,#335,#31,.F.);
#248=EDGE_CURVE('',#336,#336,#32,.F.);
#249=EDGE_CURVE('',#337,#337,#33,.F.);
#250=EDGE_CURVE('',#332,#338,#398,.T.);
#251=EDGE_CURVE('',#338,#339,#399,.T.);
#252=EDGE_CURVE('',#333,#339,#400,.T.);
#253=EDGE_CURVE('',#340,#338,#34,.F.);
#254=EDGE_CURVE('',#340,#341,#401,.T.);
#255=EDGE_CURVE('',#341,#339,#35,.T.);
#256=EDGE_CURVE('',#342,#342,#36,.F.);
#257=EDGE_CURVE('',#343,#343,#37,.F.);
#258=EDGE_CURVE('',#344,#344,#38,.F.);
#259=EDGE_CURVE('',#345,#345,#39,.F.);
#260=EDGE_CURVE('',#346,#340,#402,.T.);
#261=EDGE_CURVE('',#346,#347,#403,.T.);
#262=EDGE_CURVE('',#347,#341,#404,.T.);
#263=EDGE_CURVE('',#348,#346,#405,.T.);
#264=EDGE_CURVE('',#348,#349,#406,.T.);
#265=EDGE_CURVE('',#349,#347,#407,.T.);
#266=EDGE_CURVE('',#350,#350,#40,.T.);
#267=EDGE_CURVE('',#351,#351,#41,.T.);
#268=EDGE_CURVE('',#352,#352,#42,.T.);
#269=EDGE_CURVE('',#353,#353,#43,.T.);
#270=EDGE_CURVE('',#348,#354,#408,.T.);
#271=EDGE_CURVE('',#354,#355,#409,.T.);
#272=EDGE_CURVE('',#349,#355,#410,.T.);
#273=EDGE_CURVE('',#354,#356,#44,.F.);
#274=EDGE_CURVE('',#356,#357,#411,.T.);
#275=EDGE_CURVE('',#355,#357,#45,.T.);
#276=EDGE_CURVE('',#358,#359,#412,.T.);
#277=EDGE_CURVE('',#359,#360,#46,.T.);
#278=EDGE_CURVE('',#361,#360,#413,.T.);
#279=EDGE_CURVE('',#361,#358,#47,.T.);
#280=EDGE_CURVE('',#362,#363,#414,.T.);
#281=EDGE_CURVE('',#363,#364,#48,.T.);
#282=EDGE_CURVE('',#365,#364,#415,.T.);
#283=EDGE_CURVE('',#365,#362,#49,.T.);
#284=EDGE_CURVE('',#366,#367,#416,.T.);
#285=EDGE_CURVE('',#367,#368,#50,.T.);
#286=EDGE_CURVE('',#369,#368,#417,.T.);
#287=EDGE_CURVE('',#369,#366,#51,.T.);
#288=EDGE_CURVE('',#370,#371,#418,.T.);
#289=EDGE_CURVE('',#371,#372,#52,.T.);
#290=EDGE_CURVE('',#373,#372,#419,.T.);
#291=EDGE_CURVE('',#373,#370,#53,.T.);
#292=EDGE_CURVE('',#374,#374,#54,.T.);
#293=EDGE_CURVE('',#375,#375,#55,.T.);
#294=EDGE_CURVE('',#376,#376,#56,.T.);
#295=EDGE_CURVE('',#377,#377,#57,.T.);
#296=EDGE_CURVE('',#330,#356,#420,.T.);
#297=EDGE_CURVE('',#331,#357,#421,.T.);
#298=EDGE_CURVE('',#378,#370,#422,.T.);
#299=EDGE_CURVE('',#378,#379,#423,.T.);
#300=EDGE_CURVE('',#379,#371,#424,.T.);
#301=EDGE_CURVE('',#380,#373,#425,.T.);
#302=EDGE_CURVE('',#380,#378,#58,.T.);
#303=EDGE_CURVE('',#381,#372,#426,.T.);
#304=EDGE_CURVE('',#380,#381,#427,.T.);
#305=EDGE_CURVE('',#379,#381,#59,.T.);
#306=EDGE_CURVE('',#382,#366,#428,.T.);
#307=EDGE_CURVE('',#382,#383,#429,.T.);
#308=EDGE_CURVE('',#383,#367,#430,.T.);
#309=EDGE_CURVE('',#384,#369,#431,.T.);
#310=EDGE_CURVE('',#384,#382,#60,.T.);
#311=EDGE_CURVE('',#385,#368,#432,.T.);
#312=EDGE_CURVE('',#384,#385,#433,.T.);
#313=EDGE_CURVE('',#383,#385,#61,.T.);
#314=EDGE_CURVE('',#386,#362,#434,.T.);
#315=EDGE_CURVE('',#386,#387,#435,.T.);
#316=EDGE_CURVE('',#387,#363,#436,.T.);
#317=EDGE_CURVE('',#388,#365,#437,.T.);
#318=EDGE_CURVE('',#388,#386,#62,.T.);
#319=EDGE_CURVE('',#389,#364,#438,.T.);
#320=EDGE_CURVE('',#388,#389,#439,.T.);
#321=EDGE_CURVE('',#387,#389,#63,.T.);
#322=EDGE_CURVE('',#390,#358,#440,.T.);
#323=EDGE_CURVE('',#390,#391,#441,.T.);
#324=EDGE_CURVE('',#391,#359,#442,.T.);
#325=EDGE_CURVE('',#392,#361,#443,.T.);
#326=EDGE_CURVE('',#392,#390,#64,.T.);
#327=EDGE_CURVE('',#393,#360,#444,.T.);
#328=EDGE_CURVE('',#392,#393,#445,.T.);
#329=EDGE_CURVE('',#391,#393,#65,.T.);
#330=VERTEX_POINT('',#980);
#331=VERTEX_POINT('',#981);
#332=VERTEX_POINT('',#983);
#333=VERTEX_POINT('',#985);
#334=VERTEX_POINT('',#989);
#335=VERTEX_POINT('',#991);
#336=VERTEX_POINT('',#993);
#337=VERTEX_POINT('',#995);
#338=VERTEX_POINT('',#997);
#339=VERTEX_POINT('',#999);
#340=VERTEX_POINT('',#1003);
#341=VERTEX_POINT('',#1005);
#342=VERTEX_POINT('',#1009);
#343=VERTEX_POINT('',#1011);
#344=VERTEX_POINT('',#1013);
#345=VERTEX_POINT('',#1015);
#346=VERTEX_POINT('',#1017);
#347=VERTEX_POINT('',#1019);
#348=VERTEX_POINT('',#1023);
#349=VERTEX_POINT('',#1025);
#350=VERTEX_POINT('',#1029);
#351=VERTEX_POINT('',#1031);
#352=VERTEX_POINT('',#1033);
#353=VERTEX_POINT('',#1035);
#354=VERTEX_POINT('',#1037);
#355=VERTEX_POINT('',#1039);
#356=VERTEX_POINT('',#1043);
#357=VERTEX_POINT('',#1045);
#358=VERTEX_POINT('',#1049);
#359=VERTEX_POINT('',#1050);
#360=VERTEX_POINT('',#1052);
#361=VERTEX_POINT('',#1054);
#362=VERTEX_POINT('',#1057);
#363=VERTEX_POINT('',#1058);
#364=VERTEX_POINT('',#1060);
#365=VERTEX_POINT('',#1062);
#366=VERTEX_POINT('',#1065);
#367=VERTEX_POINT('',#1066);
#368=VERTEX_POINT('',#1068);
#369=VERTEX_POINT('',#1070);
#370=VERTEX_POINT('',#1073);
#371=VERTEX_POINT('',#1074);
#372=VERTEX_POINT('',#1076);
#373=VERTEX_POINT('',#1078);
#374=VERTEX_POINT('',#1081);
#375=VERTEX_POINT('',#1083);
#376=VERTEX_POINT('',#1085);
#377=VERTEX_POINT('',#1087);
#378=VERTEX_POINT('',#1098);
#379=VERTEX_POINT('',#1100);
#380=VERTEX_POINT('',#1104);
#381=VERTEX_POINT('',#1108);
#382=VERTEX_POINT('',#1115);
#383=VERTEX_POINT('',#1117);
#384=VERTEX_POINT('',#1121);
#385=VERTEX_POINT('',#1125);
#386=VERTEX_POINT('',#1132);
#387=VERTEX_POINT('',#1134);
#388=VERTEX_POINT('',#1138);
#389=VERTEX_POINT('',#1142);
#390=VERTEX_POINT('',#1149);
#391=VERTEX_POINT('',#1151);
#392=VERTEX_POINT('',#1155);
#393=VERTEX_POINT('',#1159);
#394=LINE('',#979,#446);
#395=LINE('',#982,#447);
#396=LINE('',#984,#448);
#397=LINE('',#986,#449);
#398=LINE('',#996,#450);
#399=LINE('',#998,#451);
#400=LINE('',#1000,#452);
#401=LINE('',#1004,#453);
#402=LINE('',#1016,#454);
#403=LINE('',#1018,#455);
#404=LINE('',#1020,#456);
#405=LINE('',#1022,#457);
#406=LINE('',#1024,#458);
#407=LINE('',#1026,#459);
#408=LINE('',#1036,#460);
#409=LINE('',#1038,#461);
#410=LINE('',#1040,#462);
#411=LINE('',#1044,#463);
#412=LINE('',#1048,#464);
#413=LINE('',#1053,#465);
#414=LINE('',#1056,#466);
#415=LINE('',#1061,#467);
#416=LINE('',#1064,#468);
#417=LINE('',#1069,#469);
#418=LINE('',#1072,#470);
#419=LINE('',#1077,#471);
#420=LINE('',#1088,#472);
#421=LINE('',#1089,#473);
#422=LINE('',#1097,#474);
#423=LINE('',#1099,#475);
#424=LINE('',#1101,#476);
#425=LINE('',#1103,#477);
#426=LINE('',#1107,#478);
#427=LINE('',#1109,#479);
#428=LINE('',#1114,#480);
#429=LINE('',#1116,#481);
#430=LINE('',#1118,#482);
#431=LINE('',#1120,#483);
#432=LINE('',#1124,#484);
#433=LINE('',#1126,#485);
#434=LINE('',#1131,#486);
#435=LINE('',#1133,#487);
#436=LINE('',#1135,#488);
#437=LINE('',#1137,#489);
#438=LINE('',#1141,#490);
#439=LINE('',#1143,#491);
#440=LINE('',#1148,#492);
#441=LINE('',#1150,#493);
#442=LINE('',#1152,#494);
#443=LINE('',#1154,#495);
#444=LINE('',#1158,#496);
#445=LINE('',#1160,#497);
#446=VECTOR('',#779,1.);
#447=VECTOR('',#780,1.);
#448=VECTOR('',#781,1.);
#449=VECTOR('',#782,1.);
#450=VECTOR('',#793,1.);
#451=VECTOR('',#794,1.);
#452=VECTOR('',#795,1.);
#453=VECTOR('',#800,1.);
#454=VECTOR('',#813,1.);
#455=VECTOR('',#814,1.);
#456=VECTOR('',#815,1.);
#457=VECTOR('',#818,1.);
#458=VECTOR('',#819,1.);
#459=VECTOR('',#820,1.);
#460=VECTOR('',#831,1.);
#461=VECTOR('',#832,1.);
#462=VECTOR('',#833,1.);
#463=VECTOR('',#838,1.);
#464=VECTOR('',#843,1.);
#465=VECTOR('',#846,1.);
#466=VECTOR('',#849,1.);
#467=VECTOR('',#852,1.);
#468=VECTOR('',#855,1.);
#469=VECTOR('',#858,1.);
#470=VECTOR('',#861,1.);
#471=VECTOR('',#864,1.);
#472=VECTOR('',#875,1.);
#473=VECTOR('',#876,1.);
#474=VECTOR('',#891,1.);
#475=VECTOR('',#892,1.);
#476=VECTOR('',#893,1.);
#477=VECTOR('',#896,1.);
#478=VECTOR('',#901,1.);
#479=VECTOR('',#902,1.);
#480=VECTOR('',#911,1.);
#481=VECTOR('',#912,1.);
#482=VECTOR('',#913,1.);
#483=VECTOR('',#916,1.);
#484=VECTOR('',#921,1.);
#485=VECTOR('',#922,1.);
#486=VECTOR('',#931,1.);
#487=VECTOR('',#932,1.);
#488=VECTOR('',#933,1.);
#489=VECTOR('',#936,1.);
#490=VECTOR('',#941,1.);
#491=VECTOR('',#942,1.);
#492=VECTOR('',#951,1.);
#493=VECTOR('',#952,1.);
#494=VECTOR('',#953,1.);
#495=VECTOR('',#956,1.);
#496=VECTOR('',#961,1.);
#497=VECTOR('',#962,1.);
#498=EDGE_LOOP('',(#66,#67,#68,#69));
#499=EDGE_LOOP('',(#70));
#500=EDGE_LOOP('',(#71));
#501=EDGE_LOOP('',(#72));
#502=EDGE_LOOP('',(#73));
#503=EDGE_LOOP('',(#74,#75,#76,#77));
#504=EDGE_LOOP('',(#78,#79,#80,#81));
#505=EDGE_LOOP('',(#82));
#506=EDGE_LOOP('',(#83));
#507=EDGE_LOOP('',(#84));
#508=EDGE_LOOP('',(#85));
#509=EDGE_LOOP('',(#86,#87,#88,#89));
#510=EDGE_LOOP('',(#90,#91,#92,#93));
#511=EDGE_LOOP('',(#94));
#512=EDGE_LOOP('',(#95));
#513=EDGE_LOOP('',(#96));
#514=EDGE_LOOP('',(#97));
#515=EDGE_LOOP('',(#98,#99,#100,#101));
#516=EDGE_LOOP('',(#102,#103,#104,#105));
#517=EDGE_LOOP('',(#106,#107,#108,#109));
#518=EDGE_LOOP('',(#110,#111,#112,#113));
#519=EDGE_LOOP('',(#114,#115,#116,#117));
#520=EDGE_LOOP('',(#118,#119,#120,#121));
#521=EDGE_LOOP('',(#122));
#522=EDGE_LOOP('',(#123));
#523=EDGE_LOOP('',(#124));
#524=EDGE_LOOP('',(#125));
#525=EDGE_LOOP('',(#126,#127,#128,#129));
#526=EDGE_LOOP('',(#130,#131,#132,#133,#134,#135,#136,#137));
#527=EDGE_LOOP('',(#138,#139,#140,#141,#142,#143,#144,#145));
#528=EDGE_LOOP('',(#146));
#529=EDGE_LOOP('',(#147));
#530=EDGE_LOOP('',(#148));
#531=EDGE_LOOP('',(#149));
#532=EDGE_LOOP('',(#150));
#533=EDGE_LOOP('',(#151));
#534=EDGE_LOOP('',(#152));
#535=EDGE_LOOP('',(#153));
#536=EDGE_LOOP('',(#154,#155,#156,#157));
#537=EDGE_LOOP('',(#158,#159,#160,#161));
#538=EDGE_LOOP('',(#162,#163,#164,#165));
#539=EDGE_LOOP('',(#166,#167,#168,#169));
#540=EDGE_LOOP('',(#170,#171,#172,#173));
#541=EDGE_LOOP('',(#174,#175,#176,#177));
#542=EDGE_LOOP('',(#178,#179,#180,#181));
#543=EDGE_LOOP('',(#182,#183,#184,#185));
#544=EDGE_LOOP('',(#186,#187,#188,#189));
#545=EDGE_LOOP('',(#190,#191,#192,#193));
#546=EDGE_LOOP('',(#194,#195,#196,#197));
#547=EDGE_LOOP('',(#198,#199,#200,#201));
#548=EDGE_LOOP('',(#202,#203,#204,#205));
#549=EDGE_LOOP('',(#206,#207,#208,#209));
#550=EDGE_LOOP('',(#210,#211,#212,#213));
#551=EDGE_LOOP('',(#214,#215,#216,#217));
#552=EDGE_LOOP('',(#218,#219,#220,#221));
#553=EDGE_LOOP('',(#222,#223,#224,#225));
#554=EDGE_LOOP('',(#226,#227,#228,#229));
#555=EDGE_LOOP('',(#230,#231,#232,#233));
#556=EDGE_LOOP('',(#234));
#557=EDGE_LOOP('',(#235));
#558=EDGE_LOOP('',(#236));
#559=EDGE_LOOP('',(#237));
#560=EDGE_LOOP('',(#238));
#561=EDGE_LOOP('',(#239));
#562=EDGE_LOOP('',(#240));
#563=EDGE_LOOP('',(#241));
#564=FACE_BOUND('',#498,.T.);
#565=FACE_BOUND('',#499,.T.);
#566=FACE_BOUND('',#500,.T.);
#567=FACE_BOUND('',#501,.T.);
#568=FACE_BOUND('',#502,.T.);
#569=FACE_BOUND('',#503,.T.);
#570=FACE_BOUND('',#504,.T.);
#571=FACE_BOUND('',#505,.T.);
#572=FACE_BOUND('',#506,.T.);
#573=FACE_BOUND('',#507,.T.);
#574=FACE_BOUND('',#508,.T.);
#575=FACE_BOUND('',#509,.T.);
#576=FACE_BOUND('',#510,.T.);
#577=FACE_BOUND('',#511,.T.);
#578=FACE_BOUND('',#512,.T.);
#579=FACE_BOUND('',#513,.T.);
#580=FACE_BOUND('',#514,.T.);
#581=FACE_BOUND('',#515,.T.);
#582=FACE_BOUND('',#516,.T.);
#583=FACE_BOUND('',#517,.T.);
#584=FACE_BOUND('',#518,.T.);
#585=FACE_BOUND('',#519,.T.);
#586=FACE_BOUND('',#520,.T.);
#587=FACE_BOUND('',#521,.T.);
#588=FACE_BOUND('',#522,.T.);
#589=FACE_BOUND('',#523,.T.);
#590=FACE_BOUND('',#524,.T.);
#591=FACE_BOUND('',#525,.T.);
#592=FACE_BOUND('',#526,.T.);
#593=FACE_BOUND('',#527,.T.);
#594=FACE_BOUND('',#528,.T.);
#595=FACE_BOUND('',#529,.T.);
#596=FACE_BOUND('',#530,.T.);
#597=FACE_BOUND('',#531,.T.);
#598=FACE_BOUND('',#532,.T.);
#599=FACE_BOUND('',#533,.T.);
#600=FACE_BOUND('',#534,.T.);
#601=FACE_BOUND('',#535,.T.);
#602=FACE_BOUND('',#536,.T.);
#603=FACE_BOUND('',#537,.T.);
#604=FACE_BOUND('',#538,.T.);
#605=FACE_BOUND('',#539,.T.);
#606=FACE_BOUND('',#540,.T.);
#607=FACE_BOUND('',#541,.T.);
#608=FACE_BOUND('',#542,.T.);
#609=FACE_BOUND('',#543,.T.);
#610=FACE_BOUND('',#544,.T.);
#611=FACE_BOUND('',#545,.T.);
#612=FACE_BOUND('',#546,.T.);
#613=FACE_BOUND('',#547,.T.);
#614=FACE_BOUND('',#548,.T.);
#615=FACE_BOUND('',#549,.T.);
#616=FACE_BOUND('',#550,.T.);
#617=FACE_BOUND('',#551,.T.);
#618=FACE_BOUND('',#552,.T.);
#619=FACE_BOUND('',#553,.T.);
#620=FACE_BOUND('',#554,.T.);
#621=FACE_BOUND('',#555,.T.);
#622=FACE_BOUND('',#556,.T.);
#623=FACE_BOUND('',#557,.T.);
#624=FACE_BOUND('',#558,.T.);
#625=FACE_BOUND('',#559,.T.);
#626=FACE_BOUND('',#560,.T.);
#627=FACE_BOUND('',#561,.T.);
#628=FACE_BOUND('',#562,.T.);
#629=FACE_BOUND('',#563,.T.);
#630=PLANE('',#701);
#631=PLANE('',#702);
#632=PLANE('',#710);
#633=PLANE('',#715);
#634=PLANE('',#716);
#635=PLANE('',#724);
#636=PLANE('',#737);
#637=PLANE('',#738);
#638=PLANE('',#743);
#639=PLANE('',#746);
#640=PLANE('',#749);
#641=PLANE('',#750);
#642=PLANE('',#753);
#643=PLANE('',#756);
#644=PLANE('',#757);
#645=PLANE('',#760);
#646=PLANE('',#763);
#647=PLANE('',#764);
#648=PLANE('',#767);
#649=PLANE('',#770);
#650=ADVANCED_FACE('',(#564),#630,.T.);
#651=ADVANCED_FACE('',(#565,#566,#567,#568,#569),#631,.T.);
#652=ADVANCED_FACE('',(#570),#12,.F.);
#653=ADVANCED_FACE('',(#571,#572,#573,#574,#575),#632,.F.);
#654=ADVANCED_FACE('',(#576),#633,.F.);
#655=ADVANCED_FACE('',(#577,#578,#579,#580,#581),#634,.T.);
#656=ADVANCED_FACE('',(#582),#13,.T.);
#657=ADVANCED_FACE('',(#583,#584,#585,#586,#587,#588,#589,#590,#591),#635,
 .F.);
#658=ADVANCED_FACE('',(#592),#636,.T.);
#659=ADVANCED_FACE('',(#593),#637,.T.);
#660=ADVANCED_FACE('',(#594,#595),#14,.F.);
#661=ADVANCED_FACE('',(#596,#597),#15,.F.);
#662=ADVANCED_FACE('',(#598,#599),#16,.F.);
#663=ADVANCED_FACE('',(#600,#601),#17,.F.);
#664=ADVANCED_FACE('',(#602),#638,.T.);
#665=ADVANCED_FACE('',(#603),#18,.F.);
#666=ADVANCED_FACE('',(#604),#639,.F.);
#667=ADVANCED_FACE('',(#605),#19,.F.);
#668=ADVANCED_FACE('',(#606),#640,.T.);
#669=ADVANCED_FACE('',(#607),#641,.T.);
#670=ADVANCED_FACE('',(#608),#20,.F.);
#671=ADVANCED_FACE('',(#609),#642,.F.);
#672=ADVANCED_FACE('',(#610),#21,.F.);
#673=ADVANCED_FACE('',(#611),#643,.T.);
#674=ADVANCED_FACE('',(#612),#644,.T.);
#675=ADVANCED_FACE('',(#613),#22,.F.);
#676=ADVANCED_FACE('',(#614),#645,.F.);
#677=ADVANCED_FACE('',(#615),#23,.F.);
#678=ADVANCED_FACE('',(#616),#646,.T.);
#679=ADVANCED_FACE('',(#617),#647,.T.);
#680=ADVANCED_FACE('',(#618),#24,.F.);
#681=ADVANCED_FACE('',(#619),#648,.F.);
#682=ADVANCED_FACE('',(#620),#25,.F.);
#683=ADVANCED_FACE('',(#621),#649,.T.);
#684=ADVANCED_FACE('',(#622,#623),#26,.F.);
#685=ADVANCED_FACE('',(#624,#625),#27,.F.);
#686=ADVANCED_FACE('',(#626,#627),#28,.F.);
#687=ADVANCED_FACE('',(#628,#629),#29,.F.);
#688=CLOSED_SHELL('',(#650,#651,#652,#653,#654,#655,#656,#657,#658,#659,
#660,#661,#662,#663,#664,#665,#666,#667,#668,#669,#670,#671,#672,#673,#674,
#675,#676,#677,#678,#679,#680,#681,#682,#683,#684,#685,#686,#687));
#689=STYLED_ITEM('',(#690),#697);
#690=PRESENTATION_STYLE_ASSIGNMENT((#691));
#691=SURFACE_STYLE_USAGE(.BOTH.,#692);
#692=SURFACE_SIDE_STYLE('',(#693));
#693=SURFACE_STYLE_FILL_AREA(#694);
#694=FILL_AREA_STYLE('',(#695));
#695=FILL_AREA_STYLE_COLOUR('',#696);
#696=COLOUR_RGB('',0.647058823529412,0.647058823529412,0.647058823529412);
#697=MANIFOLD_SOLID_BREP('Top',#688);
#698=SHAPE_DEFINITION_REPRESENTATION(#1174,#699);
#699=SHAPE_REPRESENTATION('Top',(#700),#1169);
#700=AXIS2_PLACEMENT_3D('',#977,#775,#776);
#701=AXIS2_PLACEMENT_3D('',#978,#777,#778);
#702=AXIS2_PLACEMENT_3D('',#987,#783,#784);
#703=AXIS2_PLACEMENT_3D('',#988,#785,#786);
#704=AXIS2_PLACEMENT_3D('',#990,#787,#788);
#705=AXIS2_PLACEMENT_3D('',#992,#789,#790);
#706=AXIS2_PLACEMENT_3D('',#994,#791,#792);
#707=AXIS2_PLACEMENT_3D('',#1001,#796,#797);
#708=AXIS2_PLACEMENT_3D('',#1002,#798,#799);
#709=AXIS2_PLACEMENT_3D('',#1006,#801,#802);
#710=AXIS2_PLACEMENT_3D('',#1007,#803,#804);
#711=AXIS2_PLACEMENT_3D('',#1008,#805,#806);
#712=AXIS2_PLACEMENT_3D('',#1010,#807,#808);
#713=AXIS2_PLACEMENT_3D('',#1012,#809,#810);
#714=AXIS2_PLACEMENT_3D('',#1014,#811,#812);
#715=AXIS2_PLACEMENT_3D('',#1021,#816,#817);
#716=AXIS2_PLACEMENT_3D('',#1027,#821,#822);
#717=AXIS2_PLACEMENT_3D('',#1028,#823,#824);
#718=AXIS2_PLACEMENT_3D('',#1030,#825,#826);
#719=AXIS2_PLACEMENT_3D('',#1032,#827,#828);
#720=AXIS2_PLACEMENT_3D('',#1034,#829,#830);
#721=AXIS2_PLACEMENT_3D('',#1041,#834,#835);
#722=AXIS2_PLACEMENT_3D('',#1042,#836,#837);
#723=AXIS2_PLACEMENT_3D('',#1046,#839,#840);
#724=AXIS2_PLACEMENT_3D('',#1047,#841,#842);
#725=AXIS2_PLACEMENT_3D('',#1051,#844,#845);
#726=AXIS2_PLACEMENT_3D('',#1055,#847,#848);
#727=AXIS2_PLACEMENT_3D('',#1059,#850,#851);
#728=AXIS2_PLACEMENT_3D('',#1063,#853,#854);
#729=AXIS2_PLACEMENT_3D('',#1067,#856,#857);
#730=AXIS2_PLACEMENT_3D('',#1071,#859,#860);
#731=AXIS2_PLACEMENT_3D('',#1075,#862,#863);
#732=AXIS2_PLACEMENT_3D('',#1079,#865,#866);
#733=AXIS2_PLACEMENT_3D('',#1080,#867,#868);
#734=AXIS2_PLACEMENT_3D('',#1082,#869,#870);
#735=AXIS2_PLACEMENT_3D('',#1084,#871,#872);
#736=AXIS2_PLACEMENT_3D('',#1086,#873,#874);
#737=AXIS2_PLACEMENT_3D('',#1090,#877,#878);
#738=AXIS2_PLACEMENT_3D('',#1091,#879,#880);
#739=AXIS2_PLACEMENT_3D('',#1092,#881,#882);
#740=AXIS2_PLACEMENT_3D('',#1093,#883,#884);
#741=AXIS2_PLACEMENT_3D('',#1094,#885,#886);
#742=AXIS2_PLACEMENT_3D('',#1095,#887,#888);
#743=AXIS2_PLACEMENT_3D('',#1096,#889,#890);
#744=AXIS2_PLACEMENT_3D('',#1102,#894,#895);
#745=AXIS2_PLACEMENT_3D('',#1105,#897,#898);
#746=AXIS2_PLACEMENT_3D('',#1106,#899,#900);
#747=AXIS2_PLACEMENT_3D('',#1110,#903,#904);
#748=AXIS2_PLACEMENT_3D('',#1111,#905,#906);
#749=AXIS2_PLACEMENT_3D('',#1112,#907,#908);
#750=AXIS2_PLACEMENT_3D('',#1113,#909,#910);
#751=AXIS2_PLACEMENT_3D('',#1119,#914,#915);
#752=AXIS2_PLACEMENT_3D('',#1122,#917,#918);
#753=AXIS2_PLACEMENT_3D('',#1123,#919,#920);
#754=AXIS2_PLACEMENT_3D('',#1127,#923,#924);
#755=AXIS2_PLACEMENT_3D('',#1128,#925,#926);
#756=AXIS2_PLACEMENT_3D('',#1129,#927,#928);
#757=AXIS2_PLACEMENT_3D('',#1130,#929,#930);
#758=AXIS2_PLACEMENT_3D('',#1136,#934,#935);
#759=AXIS2_PLACEMENT_3D('',#1139,#937,#938);
#760=AXIS2_PLACEMENT_3D('',#1140,#939,#940);
#761=AXIS2_PLACEMENT_3D('',#1144,#943,#944);
#762=AXIS2_PLACEMENT_3D('',#1145,#945,#946);
#763=AXIS2_PLACEMENT_3D('',#1146,#947,#948);
#764=AXIS2_PLACEMENT_3D('',#1147,#949,#950);
#765=AXIS2_PLACEMENT_3D('',#1153,#954,#955);
#766=AXIS2_PLACEMENT_3D('',#1156,#957,#958);
#767=AXIS2_PLACEMENT_3D('',#1157,#959,#960);
#768=AXIS2_PLACEMENT_3D('',#1161,#963,#964);
#769=AXIS2_PLACEMENT_3D('',#1162,#965,#966);
#770=AXIS2_PLACEMENT_3D('',#1163,#967,#968);
#771=AXIS2_PLACEMENT_3D('',#1164,#969,#970);
#772=AXIS2_PLACEMENT_3D('',#1165,#971,#972);
#773=AXIS2_PLACEMENT_3D('',#1166,#973,#974);
#774=AXIS2_PLACEMENT_3D('',#1167,#975,#976);
#775=DIRECTION('',(0.,0.,1.));
#776=DIRECTION('',(1.,0.,0.));
#777=DIRECTION('',(0.,0.,-1.));
#778=DIRECTION('',(-1.,0.,0.));
#779=DIRECTION('',(1.,1.37021771582839E-16,0.));
#780=DIRECTION('',(-1.37021771582839E-16,1.,0.));
#781=DIRECTION('',(1.,1.37021771582839E-16,0.));
#782=DIRECTION('',(-1.37021771582839E-16,1.,0.));
#783=DIRECTION('',(-1.37021771582839E-16,1.,1.73472347597681E-15));
#784=DIRECTION('',(0.,-1.73472347597681E-15,1.));
#785=DIRECTION('',(-1.37021771582839E-16,1.,1.73472347597681E-15));
#786=DIRECTION('',(0.,-1.73472347597681E-15,1.));
#787=DIRECTION('',(-1.37021771582839E-16,1.,1.73472347597681E-15));
#788=DIRECTION('',(0.,-1.73472347597681E-15,1.));
#789=DIRECTION('',(-1.37021771582839E-16,1.,1.73472347597681E-15));
#790=DIRECTION('',(0.,-1.73472347597681E-15,1.));
#791=DIRECTION('',(-1.37021771582839E-16,1.,1.73472347597681E-15));
#792=DIRECTION('',(0.,-1.73472347597681E-15,1.));
#793=DIRECTION('',(2.37694883884682E-31,-1.73472347597681E-15,1.));
#794=DIRECTION('',(1.,1.37021771582839E-16,0.));
#795=DIRECTION('',(2.37694883884682E-31,-1.73472347597681E-15,1.));
#796=DIRECTION('',(1.,1.37021771582839E-16,0.));
#797=DIRECTION('',(-1.37021771582839E-16,1.,0.));
#798=DIRECTION('',(-1.,-1.37021771582839E-16,0.));
#799=DIRECTION('',(1.37021771582839E-16,-1.,0.));
#800=DIRECTION('',(1.,1.37021771582839E-16,0.));
#801=DIRECTION('',(1.,1.37021771582839E-16,0.));
#802=DIRECTION('',(-1.37021771582839E-16,1.,0.));
#803=DIRECTION('',(0.,0.,1.));
#804=DIRECTION('',(1.,0.,0.));
#805=DIRECTION('',(0.,0.,1.));
#806=DIRECTION('',(1.,0.,0.));
#807=DIRECTION('',(0.,0.,1.));
#808=DIRECTION('',(1.,0.,0.));
#809=DIRECTION('',(0.,0.,1.));
#810=DIRECTION('',(1.,0.,0.));
#811=DIRECTION('',(0.,0.,1.));
#812=DIRECTION('',(1.,0.,0.));
#813=DIRECTION('',(1.37021771582839E-16,-1.,0.));
#814=DIRECTION('',(1.,1.37021771582839E-16,0.));
#815=DIRECTION('',(1.37021771582839E-16,-1.,0.));
#816=DIRECTION('',(1.37021771582839E-16,-1.,0.));
#817=DIRECTION('',(1.,1.37021771582839E-16,0.));
#818=DIRECTION('',(0.,0.,-1.));
#819=DIRECTION('',(1.,1.37021771582839E-16,0.));
#820=DIRECTION('',(0.,0.,-1.));
#821=DIRECTION('',(2.82864867397167E-32,-2.06437899707169E-16,1.));
#822=DIRECTION('',(0.,-1.,-2.06437899707169E-16));
#823=DIRECTION('',(2.82864867397167E-32,-2.06437899707169E-16,1.));
#824=DIRECTION('',(0.,-1.,-2.06437899707169E-16));
#825=DIRECTION('',(2.82864867397167E-32,-2.06437899707169E-16,1.));
#826=DIRECTION('',(0.,-1.,-2.06437899707169E-16));
#827=DIRECTION('',(2.82864867397167E-32,-2.06437899707169E-16,1.));
#828=DIRECTION('',(0.,-1.,-2.06437899707169E-16));
#829=DIRECTION('',(2.82864867397167E-32,-2.06437899707169E-16,1.));
#830=DIRECTION('',(0.,-1.,-2.06437899707169E-16));
#831=DIRECTION('',(1.37021771582839E-16,-1.,-2.06437899707169E-16));
#832=DIRECTION('',(1.,1.37021771582839E-16,0.));
#833=DIRECTION('',(1.37021771582839E-16,-1.,-2.06437899707169E-16));
#834=DIRECTION('',(1.,1.37021771582839E-16,0.));
#835=DIRECTION('',(-1.37021771582839E-16,1.,0.));
#836=DIRECTION('',(-1.,-1.37021771582839E-16,0.));
#837=DIRECTION('',(1.37021771582839E-16,-1.,0.));
#838=DIRECTION('',(1.,1.37021771582839E-16,0.));
#839=DIRECTION('',(1.,1.37021771582839E-16,0.));
#840=DIRECTION('',(-1.37021771582839E-16,1.,0.));
#841=DIRECTION('',(-1.37021771582839E-16,1.,2.14408241013108E-16));
#842=DIRECTION('',(0.,-2.14408241013108E-16,1.));
#843=DIRECTION('',(-0.707106781186548,-2.48498545019068E-16,0.707106781186547));
#844=DIRECTION('',(-1.37021771582839E-16,1.,2.14408241013108E-16));
#845=DIRECTION('',(0.,2.14408241013108E-16,-1.));
#846=DIRECTION('',(-0.707106781186548,-2.48498545019068E-16,0.707106781186547));
#847=DIRECTION('',(-1.37021771582839E-16,1.,2.14408241013108E-16));
#848=DIRECTION('',(0.,2.14408241013108E-16,-1.));
#849=DIRECTION('',(-0.258819045102521,-2.42566301443098E-16,0.965925826289068));
#850=DIRECTION('',(-1.37021771582839E-16,1.,2.14408241013108E-16));
#851=DIRECTION('',(0.,2.14408241013108E-16,-1.));
#852=DIRECTION('',(-0.258819045102521,-2.42566301443098E-16,0.965925826289068));
#853=DIRECTION('',(-1.37021771582839E-16,1.,2.14408241013108E-16));
#854=DIRECTION('',(0.,2.14408241013108E-16,-1.));
#855=DIRECTION('',(0.258819045102521,-1.71638613284446E-16,0.965925826289068));
#856=DIRECTION('',(-1.37021771582839E-16,1.,2.14408241013108E-16));
#857=DIRECTION('',(0.,2.14408241013108E-16,-1.));
#858=DIRECTION('',(0.258819045102521,-1.71638613284446E-16,0.965925826289068));
#859=DIRECTION('',(-1.37021771582839E-16,1.,2.14408241013108E-16));
#860=DIRECTION('',(0.,2.14408241013108E-16,-1.));
#861=DIRECTION('',(0.707106781186547,-5.47204973062293E-17,0.707106781186548));
#862=DIRECTION('',(-1.37021771582839E-16,1.,2.14408241013108E-16));
#863=DIRECTION('',(0.,2.14408241013108E-16,-1.));
#864=DIRECTION('',(0.707106781186547,-5.47204973062293E-17,0.707106781186548));
#865=DIRECTION('',(-1.37021771582839E-16,1.,2.14408241013108E-16));
#866=DIRECTION('',(0.,2.14408241013108E-16,-1.));
#867=DIRECTION('',(1.37021771582839E-16,-1.,-2.14408241013108E-16));
#868=DIRECTION('',(0.,2.14408241013108E-16,-1.));
#869=DIRECTION('',(1.37021771582839E-16,-1.,-2.14408241013108E-16));
#870=DIRECTION('',(0.,2.14408241013108E-16,-1.));
#871=DIRECTION('',(1.37021771582839E-16,-1.,-2.14408241013108E-16));
#872=DIRECTION('',(0.,2.14408241013108E-16,-1.));
#873=DIRECTION('',(1.37021771582839E-16,-1.,-2.14408241013108E-16));
#874=DIRECTION('',(0.,2.14408241013108E-16,-1.));
#875=DIRECTION('',(2.93785970255764E-32,-2.14408241013108E-16,1.));
#876=DIRECTION('',(2.93785970255764E-32,-2.14408241013108E-16,1.));
#877=DIRECTION('',(1.,1.37021771582839E-16,0.));
#878=DIRECTION('',(-1.37021771582839E-16,1.,0.));
#879=DIRECTION('',(-1.,-1.37021771582839E-16,0.));
#880=DIRECTION('',(1.37021771582839E-16,-1.,0.));
#881=DIRECTION('',(1.37021771582839E-16,-1.,-2.14408241013108E-16));
#882=DIRECTION('',(0.,2.14408241013108E-16,-1.));
#883=DIRECTION('',(1.37021771582839E-16,-1.,-2.14408241013108E-16));
#884=DIRECTION('',(0.,2.14408241013108E-16,-1.));
#885=DIRECTION('',(1.37021771582839E-16,-1.,-2.14408241013108E-16));
#886=DIRECTION('',(0.,2.14408241013108E-16,-1.));
#887=DIRECTION('',(1.37021771582839E-16,-1.,-2.14408241013108E-16));
#888=DIRECTION('',(0.,2.14408241013108E-16,-1.));
#889=DIRECTION('',(0.707106781186548,2.48498545019068E-16,-0.707106781186547));
#890=DIRECTION('',(-0.707106781186547,0.,-0.707106781186548));
#891=DIRECTION('',(1.37021771582839E-16,-1.,-2.14408241013108E-16));
#892=DIRECTION('',(0.707106781186547,-5.47204973062293E-17,0.707106781186548));
#893=DIRECTION('',(1.37021771582839E-16,-1.,-2.14408241013108E-16));
#894=DIRECTION('',(1.37021771582839E-16,-1.,-2.14408241013108E-16));
#895=DIRECTION('',(0.,2.14408241013108E-16,-1.));
#896=DIRECTION('',(1.37021771582839E-16,-1.,-2.14408241013108E-16));
#897=DIRECTION('',(-1.37021771582839E-16,1.,2.14408241013108E-16));
#898=DIRECTION('',(0.,2.14408241013108E-16,-1.));
#899=DIRECTION('',(0.707106781186548,2.48498545019068E-16,-0.707106781186547));
#900=DIRECTION('',(-0.707106781186547,0.,-0.707106781186548));
#901=DIRECTION('',(1.37021771582839E-16,-1.,-2.14408241013108E-16));
#902=DIRECTION('',(0.707106781186547,-5.47204973062293E-17,0.707106781186548));
#903=DIRECTION('',(1.37021771582839E-16,-1.,-2.14408241013108E-16));
#904=DIRECTION('',(0.,2.14408241013108E-16,-1.));
#905=DIRECTION('',(-1.37021771582839E-16,1.,2.14408241013108E-16));
#906=DIRECTION('',(0.,2.14408241013108E-16,-1.));
#907=DIRECTION('',(1.37021771582839E-16,-1.,-2.14408241013108E-16));
#908=DIRECTION('',(1.,1.37021771582839E-16,2.93785970255764E-32));
#909=DIRECTION('',(0.965925826289068,1.87845804136869E-16,-0.258819045102521));
#910=DIRECTION('',(-0.258819045102521,0.,-0.965925826289068));
#911=DIRECTION('',(1.37021771582839E-16,-1.,-2.14408241013108E-16));
#912=DIRECTION('',(0.258819045102521,-1.71638613284446E-16,0.965925826289068));
#913=DIRECTION('',(1.37021771582839E-16,-1.,-2.14408241013108E-16));
#914=DIRECTION('',(1.37021771582839E-16,-1.,-2.14408241013108E-16));
#915=DIRECTION('',(0.,2.14408241013108E-16,-1.));
#916=DIRECTION('',(1.37021771582839E-16,-1.,-2.14408241013108E-16));
#917=DIRECTION('',(-1.37021771582839E-16,1.,2.14408241013108E-16));
#918=DIRECTION('',(0.,2.14408241013108E-16,-1.));
#919=DIRECTION('',(0.965925826289068,1.87845804136869E-16,-0.258819045102521));
#920=DIRECTION('',(-0.258819045102521,0.,-0.965925826289068));
#921=DIRECTION('',(1.37021771582839E-16,-1.,-2.14408241013108E-16));
#922=DIRECTION('',(0.258819045102521,-1.71638613284446E-16,0.965925826289068));
#923=DIRECTION('',(1.37021771582839E-16,-1.,-2.14408241013108E-16));
#924=DIRECTION('',(0.,2.14408241013108E-16,-1.));
#925=DIRECTION('',(-1.37021771582839E-16,1.,2.14408241013108E-16));
#926=DIRECTION('',(0.,2.14408241013108E-16,-1.));
#927=DIRECTION('',(1.37021771582839E-16,-1.,-2.14408241013108E-16));
#928=DIRECTION('',(1.,1.37021771582839E-16,2.93785970255764E-32));
#929=DIRECTION('',(0.965925826289068,7.68599317346217E-17,0.258819045102521));
#930=DIRECTION('',(0.258819045102521,0.,-0.965925826289068));
#931=DIRECTION('',(1.37021771582839E-16,-1.,-2.14408241013108E-16));
#932=DIRECTION('',(-0.258819045102521,-2.42566301443098E-16,0.965925826289068));
#933=DIRECTION('',(1.37021771582839E-16,-1.,-2.14408241013108E-16));
#934=DIRECTION('',(1.37021771582839E-16,-1.,-2.14408241013108E-16));
#935=DIRECTION('',(0.,2.14408241013108E-16,-1.));
#936=DIRECTION('',(1.37021771582839E-16,-1.,-2.14408241013108E-16));
#937=DIRECTION('',(-1.37021771582839E-16,1.,2.14408241013108E-16));
#938=DIRECTION('',(0.,2.14408241013108E-16,-1.));
#939=DIRECTION('',(0.965925826289068,7.68599317346217E-17,0.258819045102521));
#940=DIRECTION('',(0.258819045102521,0.,-0.965925826289068));
#941=DIRECTION('',(1.37021771582839E-16,-1.,-2.14408241013108E-16));
#942=DIRECTION('',(-0.258819045102521,-2.42566301443098E-16,0.965925826289068));
#943=DIRECTION('',(1.37021771582839E-16,-1.,-2.14408241013108E-16));
#944=DIRECTION('',(0.,2.14408241013108E-16,-1.));
#945=DIRECTION('',(-1.37021771582839E-16,1.,2.14408241013108E-16));
#946=DIRECTION('',(0.,2.14408241013108E-16,-1.));
#947=DIRECTION('',(1.37021771582839E-16,-1.,-2.14408241013108E-16));
#948=DIRECTION('',(1.,1.37021771582839E-16,2.93785970255764E-32));
#949=DIRECTION('',(0.707106781186547,-5.47204973062292E-17,0.707106781186548));
#950=DIRECTION('',(0.707106781186548,0.,-0.707106781186547));
#951=DIRECTION('',(1.37021771582839E-16,-1.,-2.14408241013108E-16));
#952=DIRECTION('',(-0.707106781186548,-2.48498545019068E-16,0.707106781186547));
#953=DIRECTION('',(1.37021771582839E-16,-1.,-2.14408241013108E-16));
#954=DIRECTION('',(1.37021771582839E-16,-1.,-2.14408241013108E-16));
#955=DIRECTION('',(0.,2.14408241013108E-16,-1.));
#956=DIRECTION('',(1.37021771582839E-16,-1.,-2.14408241013108E-16));
#957=DIRECTION('',(-1.37021771582839E-16,1.,2.14408241013108E-16));
#958=DIRECTION('',(0.,2.14408241013108E-16,-1.));
#959=DIRECTION('',(0.707106781186547,-5.47204973062292E-17,0.707106781186548));
#960=DIRECTION('',(0.707106781186548,0.,-0.707106781186547));
#961=DIRECTION('',(1.37021771582839E-16,-1.,-2.14408241013108E-16));
#962=DIRECTION('',(-0.707106781186548,-2.48498545019068E-16,0.707106781186547));
#963=DIRECTION('',(1.37021771582839E-16,-1.,-2.14408241013108E-16));
#964=DIRECTION('',(0.,2.14408241013108E-16,-1.));
#965=DIRECTION('',(-1.37021771582839E-16,1.,2.14408241013108E-16));
#966=DIRECTION('',(0.,2.14408241013108E-16,-1.));
#967=DIRECTION('',(1.37021771582839E-16,-1.,-2.14408241013108E-16));
#968=DIRECTION('',(1.,1.37021771582839E-16,2.93785970255764E-32));
#969=DIRECTION('',(2.82864867397167E-32,-2.06437899707169E-16,1.));
#970=DIRECTION('',(0.,-1.,-2.06437899707169E-16));
#971=DIRECTION('',(2.82864867397167E-32,-2.06437899707169E-16,1.));
#972=DIRECTION('',(0.,-1.,-2.06437899707169E-16));
#973=DIRECTION('',(2.82864867397167E-32,-2.06437899707169E-16,1.));
#974=DIRECTION('',(0.,-1.,-2.06437899707169E-16));
#975=DIRECTION('',(2.82864867397167E-32,-2.06437899707169E-16,1.));
#976=DIRECTION('',(0.,-1.,-2.06437899707169E-16));
#977=CARTESIAN_POINT('',(0.,0.,0.));
#978=CARTESIAN_POINT('',(-0.075502,-0.0367,-0.004));
#979=CARTESIAN_POINT('',(-0.075502,-0.0382,-0.004));
#980=CARTESIAN_POINT('',(-0.0755,-0.0382,-0.004));
#981=CARTESIAN_POINT('',(0.0755,-0.0382,-0.004));
#982=CARTESIAN_POINT('',(-0.0755,-0.0367,-0.004));
#983=CARTESIAN_POINT('',(-0.0755,-0.0351,-0.004));
#984=CARTESIAN_POINT('',(-0.075502,-0.0351,-0.004));
#985=CARTESIAN_POINT('',(0.0755,-0.0351,-0.004));
#986=CARTESIAN_POINT('',(0.0755,-0.0367,-0.004));
#987=CARTESIAN_POINT('',(-0.075502,-0.0351,-0.002));
#988=CARTESIAN_POINT('',(-0.042,-0.0351,0.01095));
#989=CARTESIAN_POINT('',(-0.042,-0.0351,0.01445));
#990=CARTESIAN_POINT('',(0.0465,-0.0351,0.010315));
#991=CARTESIAN_POINT('',(0.0465,-0.0351,0.013515));
#992=CARTESIAN_POINT('',(0.01625,-0.0351,0.0111));
#993=CARTESIAN_POINT('',(0.01625,-0.0351,0.0147));
#994=CARTESIAN_POINT('',(-0.0145,-0.0351,0.0111));
#995=CARTESIAN_POINT('',(-0.0145,-0.0351,0.014725));
#996=CARTESIAN_POINT('',(-0.0755,-0.0351,-0.002));
#997=CARTESIAN_POINT('',(-0.0755,-0.0351,0.028363));
#998=CARTESIAN_POINT('',(-0.075502,-0.0351,0.028363));
#999=CARTESIAN_POINT('',(0.0755,-0.0351,0.028363));
#1000=CARTESIAN_POINT('',(0.0755,-0.0351,-0.002));
#1001=CARTESIAN_POINT('',(-0.075502,-0.0301,0.028363));
#1002=CARTESIAN_POINT('',(-0.0755,-0.0301,0.028363));
#1003=CARTESIAN_POINT('',(-0.0755,-0.0301,0.033363));
#1004=CARTESIAN_POINT('',(-0.075502,-0.0301,0.033363));
#1005=CARTESIAN_POINT('',(0.0755,-0.0301,0.033363));
#1006=CARTESIAN_POINT('',(0.0755,-0.0301,0.028363));
#1007=CARTESIAN_POINT('',(-0.075502,0.033125,0.033363));
#1008=CARTESIAN_POINT('',(0.0655,-0.0181,0.033363));
#1009=CARTESIAN_POINT('',(0.06775,-0.0181,0.033363));
#1010=CARTESIAN_POINT('',(0.0655,0.023125,0.033363));
#1011=CARTESIAN_POINT('',(0.06775,0.023125,0.033363));
#1012=CARTESIAN_POINT('',(-0.0655,0.023125,0.033363));
#1013=CARTESIAN_POINT('',(-0.06325,0.023125,0.033363));
#1014=CARTESIAN_POINT('',(-0.0655,-0.0181,0.033363));
#1015=CARTESIAN_POINT('',(-0.06325,-0.0181,0.033363));
#1016=CARTESIAN_POINT('',(-0.0755,0.033125,0.033363));
#1017=CARTESIAN_POINT('',(-0.0755,0.037125,0.033363));
#1018=CARTESIAN_POINT('',(-0.075502,0.037125,0.033363));
#1019=CARTESIAN_POINT('',(0.0755,0.037125,0.033363));
#1020=CARTESIAN_POINT('',(0.0755,0.033125,0.033363));
#1021=CARTESIAN_POINT('',(-0.075502,0.037125,0.034963));
#1022=CARTESIAN_POINT('',(-0.0755,0.037125,0.034963));
#1023=CARTESIAN_POINT('',(-0.0755,0.037125,0.036463));
#1024=CARTESIAN_POINT('',(-0.075502,0.037125,0.036463));
#1025=CARTESIAN_POINT('',(0.0755,0.037125,0.036463));
#1026=CARTESIAN_POINT('',(0.0755,0.037125,0.034963));
#1027=CARTESIAN_POINT('',(-0.075502,0.0035125,0.036463));
#1028=CARTESIAN_POINT('',(0.0655,-0.0181,0.036463));
#1029=CARTESIAN_POINT('',(0.0655,-0.02035,0.036463));
#1030=CARTESIAN_POINT('',(0.0655,0.023125,0.036463));
#1031=CARTESIAN_POINT('',(0.0655,0.020875,0.036463));
#1032=CARTESIAN_POINT('',(-0.0655,0.023125,0.036463));
#1033=CARTESIAN_POINT('',(-0.0655,0.020875,0.036463));
#1034=CARTESIAN_POINT('',(-0.0655,-0.0181,0.036463));
#1035=CARTESIAN_POINT('',(-0.0655,-0.02035,0.036463));
#1036=CARTESIAN_POINT('',(-0.0755,0.0035125,0.036463));
#1037=CARTESIAN_POINT('',(-0.0755,-0.0301,0.036463));
#1038=CARTESIAN_POINT('',(-0.075502,-0.0301,0.036463));
#1039=CARTESIAN_POINT('',(0.0755,-0.0301,0.036463));
#1040=CARTESIAN_POINT('',(0.0755,0.0035125,0.036463));
#1041=CARTESIAN_POINT('',(-0.075502,-0.0301,0.028363));
#1042=CARTESIAN_POINT('',(-0.0755,-0.0301,0.028363));
#1043=CARTESIAN_POINT('',(-0.0755,-0.0382,0.028363));
#1044=CARTESIAN_POINT('',(-0.075502,-0.0382,0.028363));
#1045=CARTESIAN_POINT('',(0.0755,-0.0382,0.028363));
#1046=CARTESIAN_POINT('',(0.0755,-0.0301,0.028363));
#1047=CARTESIAN_POINT('',(-0.075502,-0.0382,0.0121815));
#1048=CARTESIAN_POINT('',(0.00829504871165136,-0.0382,0.0176407377259756));
#1049=CARTESIAN_POINT('',(0.00988603896932109,-0.0382,0.0160497474683058));
#1050=CARTESIAN_POINT('',(0.00670405845398162,-0.0382,0.0192317279836453));
#1051=CARTESIAN_POINT('',(0.00741116523516817,-0.0382,0.0199388347648318));
#1052=CARTESIAN_POINT('',(0.00811827201635472,-0.0382,0.0206459415460184));
#1053=CARTESIAN_POINT('',(0.00970926227402446,-0.0382,0.0190549512883487));
#1054=CARTESIAN_POINT('',(0.0113002525316942,-0.0382,0.0174639610306789));
#1055=CARTESIAN_POINT('',(0.0105931457505076,-0.0382,0.0167568542494924));
#1056=CARTESIAN_POINT('',(0.0126311789614101,-0.0382,0.0207419206743604));
#1057=CARTESIAN_POINT('',(0.0132135218128908,-0.0382,0.01856858756521));
#1058=CARTESIAN_POINT('',(0.0120488361099294,-0.0382,0.0229152537835108));
#1059=CARTESIAN_POINT('',(0.0130147619362185,-0.0382,0.0231740728286134));
#1060=CARTESIAN_POINT('',(0.0139806877625076,-0.0382,0.0234328918737159));
#1061=CARTESIAN_POINT('',(0.0145630306139882,-0.0382,0.0212595587645654));
#1062=CARTESIAN_POINT('',(0.0151453734654689,-0.0382,0.0190862256554151));
#1063=CARTESIAN_POINT('',(0.0141794476391799,-0.0382,0.0188274066103125));
#1064=CARTESIAN_POINT('',(0.0179369693860118,-0.0382,0.0212595587645654));
#1065=CARTESIAN_POINT('',(0.0173546265345311,-0.0382,0.0190862256554151));
#1066=CARTESIAN_POINT('',(0.0185193122374925,-0.0382,0.0234328918737159));
#1067=CARTESIAN_POINT('',(0.0194852380637816,-0.0382,0.0231740728286134));
#1068=CARTESIAN_POINT('',(0.0204511638900706,-0.0382,0.0229152537835108));
#1069=CARTESIAN_POINT('',(0.01986882103859,-0.0382,0.0207419206743604));
#1070=CARTESIAN_POINT('',(0.0192864781871093,-0.0382,0.01856858756521));
#1071=CARTESIAN_POINT('',(0.0183205523608202,-0.0382,0.0188274066103125));
#1072=CARTESIAN_POINT('',(0.0227907377259756,-0.0382,0.0190549512883487));
#1073=CARTESIAN_POINT('',(0.0211997474683059,-0.0382,0.0174639610306789));
#1074=CARTESIAN_POINT('',(0.0243817279836453,-0.0382,0.0206459415460184));
#1075=CARTESIAN_POINT('',(0.0250888347648319,-0.0382,0.0199388347648318));
#1076=CARTESIAN_POINT('',(0.0257959415460184,-0.0382,0.0192317279836453));
#1077=CARTESIAN_POINT('',(0.0242049512883487,-0.0382,0.0176407377259756));
#1078=CARTESIAN_POINT('',(0.0226139610306789,-0.0382,0.0160497474683058));
#1079=CARTESIAN_POINT('',(0.0219068542494924,-0.0382,0.0167568542494924));
#1080=CARTESIAN_POINT('',(-0.042,-0.0382,0.01095));
#1081=CARTESIAN_POINT('',(-0.042,-0.0382,0.00745));
#1082=CARTESIAN_POINT('',(0.0465,-0.0382,0.010315));
#1083=CARTESIAN_POINT('',(0.0465,-0.0382,0.007115));
#1084=CARTESIAN_POINT('',(0.01625,-0.0382,0.0111));
#1085=CARTESIAN_POINT('',(0.01625,-0.0382,0.0075));
#1086=CARTESIAN_POINT('',(-0.0145,-0.0382,0.0111));
#1087=CARTESIAN_POINT('',(-0.0145,-0.0382,0.007475));
#1088=CARTESIAN_POINT('',(-0.0755,-0.0382,0.0121815));
#1089=CARTESIAN_POINT('',(0.0755,-0.0382,0.0121815));
#1090=CARTESIAN_POINT('',(0.0755,-0.000537499999999993,0.0162315));
#1091=CARTESIAN_POINT('',(-0.0755,-0.035,0.003));
#1092=CARTESIAN_POINT('',(-0.0145,-0.035098,0.0111));
#1093=CARTESIAN_POINT('',(0.01625,-0.035098,0.0111));
#1094=CARTESIAN_POINT('',(0.0465,-0.035098,0.010315));
#1095=CARTESIAN_POINT('',(-0.042,-0.035098,0.01095));
#1096=CARTESIAN_POINT('',(0.0227907377259756,-0.0377,0.0190549512883487));
#1097=CARTESIAN_POINT('',(0.0211997474683059,-0.0377,0.0174639610306789));
#1098=CARTESIAN_POINT('',(0.0211997474683059,-0.0377,0.0174639610306789));
#1099=CARTESIAN_POINT('',(0.0227907377259756,-0.0377,0.0190549512883487));
#1100=CARTESIAN_POINT('',(0.0243817279836453,-0.0377,0.0206459415460184));
#1101=CARTESIAN_POINT('',(0.0243817279836453,-0.0377,0.0206459415460184));
#1102=CARTESIAN_POINT('',(0.0219068542494924,-0.0377,0.0167568542494924));
#1103=CARTESIAN_POINT('',(0.0226139610306789,-0.0377,0.0160497474683058));
#1104=CARTESIAN_POINT('',(0.0226139610306789,-0.0377,0.0160497474683058));
#1105=CARTESIAN_POINT('',(0.0219068542494924,-0.0377,0.0167568542494924));
#1106=CARTESIAN_POINT('',(0.0242049512883487,-0.0377,0.0176407377259756));
#1107=CARTESIAN_POINT('',(0.0257959415460184,-0.0377,0.0192317279836453));
#1108=CARTESIAN_POINT('',(0.0257959415460184,-0.0377,0.0192317279836453));
#1109=CARTESIAN_POINT('',(0.0242049512883487,-0.0377,0.0176407377259756));
#1110=CARTESIAN_POINT('',(0.0250888347648319,-0.0377,0.0199388347648318));
#1111=CARTESIAN_POINT('',(0.0250888347648319,-0.0377,0.0199388347648318));
#1112=CARTESIAN_POINT('',(5.16572078867303E-18,-0.0377,0.0121815));
#1113=CARTESIAN_POINT('',(0.0179369693860118,-0.0377,0.0212595587645654));
#1114=CARTESIAN_POINT('',(0.0173546265345311,-0.0377,0.0190862256554151));
#1115=CARTESIAN_POINT('',(0.0173546265345311,-0.0377,0.0190862256554151));
#1116=CARTESIAN_POINT('',(0.0179369693860118,-0.0377,0.0212595587645654));
#1117=CARTESIAN_POINT('',(0.0185193122374925,-0.0377,0.0234328918737159));
#1118=CARTESIAN_POINT('',(0.0185193122374925,-0.0377,0.0234328918737159));
#1119=CARTESIAN_POINT('',(0.0183205523608202,-0.0377,0.0188274066103125));
#1120=CARTESIAN_POINT('',(0.0192864781871093,-0.0377,0.01856858756521));
#1121=CARTESIAN_POINT('',(0.0192864781871093,-0.0377,0.01856858756521));
#1122=CARTESIAN_POINT('',(0.0183205523608202,-0.0377,0.0188274066103125));
#1123=CARTESIAN_POINT('',(0.01986882103859,-0.0377,0.0207419206743604));
#1124=CARTESIAN_POINT('',(0.0204511638900706,-0.0377,0.0229152537835108));
#1125=CARTESIAN_POINT('',(0.0204511638900706,-0.0377,0.0229152537835108));
#1126=CARTESIAN_POINT('',(0.01986882103859,-0.0377,0.0207419206743604));
#1127=CARTESIAN_POINT('',(0.0194852380637816,-0.0377,0.0231740728286134));
#1128=CARTESIAN_POINT('',(0.0194852380637816,-0.0377,0.0231740728286134));
#1129=CARTESIAN_POINT('',(5.16572078867303E-18,-0.0377,0.0121815));
#1130=CARTESIAN_POINT('',(0.0126311789614101,-0.0377,0.0207419206743604));
#1131=CARTESIAN_POINT('',(0.0132135218128908,-0.0377,0.01856858756521));
#1132=CARTESIAN_POINT('',(0.0132135218128908,-0.0377,0.01856858756521));
#1133=CARTESIAN_POINT('',(0.0126311789614101,-0.0377,0.0207419206743604));
#1134=CARTESIAN_POINT('',(0.0120488361099294,-0.0377,0.0229152537835108));
#1135=CARTESIAN_POINT('',(0.0120488361099294,-0.0377,0.0229152537835108));
#1136=CARTESIAN_POINT('',(0.0141794476391799,-0.0377,0.0188274066103125));
#1137=CARTESIAN_POINT('',(0.0151453734654689,-0.0377,0.0190862256554151));
#1138=CARTESIAN_POINT('',(0.0151453734654689,-0.0377,0.0190862256554151));
#1139=CARTESIAN_POINT('',(0.0141794476391799,-0.0377,0.0188274066103125));
#1140=CARTESIAN_POINT('',(0.0145630306139882,-0.0377,0.0212595587645654));
#1141=CARTESIAN_POINT('',(0.0139806877625076,-0.0377,0.0234328918737159));
#1142=CARTESIAN_POINT('',(0.0139806877625076,-0.0377,0.0234328918737159));
#1143=CARTESIAN_POINT('',(0.0145630306139882,-0.0377,0.0212595587645654));
#1144=CARTESIAN_POINT('',(0.0130147619362185,-0.0377,0.0231740728286134));
#1145=CARTESIAN_POINT('',(0.0130147619362185,-0.0377,0.0231740728286134));
#1146=CARTESIAN_POINT('',(5.16572078867303E-18,-0.0377,0.0121815));
#1147=CARTESIAN_POINT('',(0.00829504871165136,-0.0377,0.0176407377259756));
#1148=CARTESIAN_POINT('',(0.00988603896932109,-0.0377,0.0160497474683058));
#1149=CARTESIAN_POINT('',(0.00988603896932109,-0.0377,0.0160497474683058));
#1150=CARTESIAN_POINT('',(0.00829504871165136,-0.0377,0.0176407377259756));
#1151=CARTESIAN_POINT('',(0.00670405845398162,-0.0377,0.0192317279836453));
#1152=CARTESIAN_POINT('',(0.00670405845398162,-0.0377,0.0192317279836453));
#1153=CARTESIAN_POINT('',(0.0105931457505076,-0.0377,0.0167568542494924));
#1154=CARTESIAN_POINT('',(0.0113002525316942,-0.0377,0.0174639610306789));
#1155=CARTESIAN_POINT('',(0.0113002525316942,-0.0377,0.0174639610306789));
#1156=CARTESIAN_POINT('',(0.0105931457505076,-0.0377,0.0167568542494924));
#1157=CARTESIAN_POINT('',(0.00970926227402446,-0.0377,0.0190549512883487));
#1158=CARTESIAN_POINT('',(0.00811827201635472,-0.0377,0.0206459415460184));
#1159=CARTESIAN_POINT('',(0.00811827201635472,-0.0377,0.0206459415460184));
#1160=CARTESIAN_POINT('',(0.00970926227402446,-0.0377,0.0190549512883487));
#1161=CARTESIAN_POINT('',(0.00741116523516817,-0.0377,0.0199388347648318));
#1162=CARTESIAN_POINT('',(0.00741116523516817,-0.0377,0.0199388347648318));
#1163=CARTESIAN_POINT('',(5.16572078867303E-18,-0.0377,0.0121815));
#1164=CARTESIAN_POINT('',(-0.0655,-0.0181,0.033361));
#1165=CARTESIAN_POINT('',(-0.0655,0.023125,0.033361));
#1166=CARTESIAN_POINT('',(0.0655,0.023125,0.033361));
#1167=CARTESIAN_POINT('',(0.0655,-0.0181,0.033361));
#1168=MECHANICAL_DESIGN_GEOMETRIC_PRESENTATION_REPRESENTATION('',(#689),
#1169);
#1169=(
GEOMETRIC_REPRESENTATION_CONTEXT(3)
GLOBAL_UNCERTAINTY_ASSIGNED_CONTEXT((#1170))
GLOBAL_UNIT_ASSIGNED_CONTEXT((#1173,#1172,#1171))
REPRESENTATION_CONTEXT('Top','TOP_LEVEL_ASSEMBLY_PART')
);
#1170=UNCERTAINTY_MEASURE_WITH_UNIT(LENGTH_MEASURE(1.E-8),#1173,
'DISTANCE_ACCURACY_VALUE','Maximum Tolerance applied to model');
#1171=(
NAMED_UNIT(*)
SI_UNIT($,.STERADIAN.)
SOLID_ANGLE_UNIT()
);
#1172=(
NAMED_UNIT(*)
PLANE_ANGLE_UNIT()
SI_UNIT($,.RADIAN.)
);
#1173=(
LENGTH_UNIT()
NAMED_UNIT(*)
SI_UNIT($,.METRE.)
);
#1174=PRODUCT_DEFINITION_SHAPE('','',#1175);
#1175=PRODUCT_DEFINITION('','',#1177,#1176);
#1176=PRODUCT_DEFINITION_CONTEXT('',#1183,'design');
#1177=PRODUCT_DEFINITION_FORMATION_WITH_SPECIFIED_SOURCE('','',#1179,
 .NOT_KNOWN.);
#1178=PRODUCT_RELATED_PRODUCT_CATEGORY('','',(#1179));
#1179=PRODUCT('Top','Top','Top',(#1181));
#1180=PRODUCT_CATEGORY('','');
#1181=PRODUCT_CONTEXT('',#1183,'mechanical');
#1182=APPLICATION_PROTOCOL_DEFINITION('international standard',
'ap242_managed_model_based_3d_engineering',2020,#1183);
#1183=APPLICATION_CONTEXT('managed model based 3d engineering');
ENDSEC;
END-ISO-10303-21;
