ISO-10303-21;
HEADER;
/* Generated by software containing ST-Developer
 * from STEP Tools, Inc. (www.steptools.com) 
 */
/* OPTION: using custom renumber hook */

FILE_DESCRIPTION(
/* description */ ('STEP AP242 Edition 2',
'CAx-IF Rec.Pracs.---Representation and Presentation of Product Manufa
cturing Information (PMI)---4.0---2014-10-13',
'CAx-IF Rec.Pracs.---3D Tessellated Geometry---0.4---2014-09-14','2;1',
'CAx-IF Rec.Pracs.---User Defined Attributes---1.5---2016-08-15'),
/* implementation_level */ '2;1');

FILE_NAME(
/* name */ 'Audioswitchinator Case - Bottom',
/* time_stamp */ '2026-06-10T00:22:59Z',
/* author */ (''),
/* organization */ (''),
/* preprocessor_version */ 'ST-DEVELOPER v20',
/* originating_system */ 'ONSHAPE BY PTC INC, 1.216',
/* authorisation */ '  ');

FILE_SCHEMA (('AP242_MANAGED_MODEL_BASED_3D_ENGINEERING_MIM_LF { 1 0 10303 442 3 1 4 }'));
ENDSEC;

DATA;
#10=SHAPE_REPRESENTATION_RELATIONSHIP('','',#1009,#11);
#11=ADVANCED_BREP_SHAPE_REPRESENTATION('',(#1007),#1693);
#12=CONICAL_SURFACE('',#1125,0.002,0.785398163397448);
#13=CONICAL_SURFACE('',#1126,0.002,0.785398163397448);
#14=CONICAL_SURFACE('',#1127,0.002,0.785398163397448);
#15=CONICAL_SURFACE('',#1128,0.002,0.785398163397448);
#16=CONICAL_SURFACE('',#1129,0.002,0.785398163397448);
#17=CONICAL_SURFACE('',#1130,0.002,0.785398163397449);
#18=CONICAL_SURFACE('',#1131,0.002,0.785398163397448);
#19=CONICAL_SURFACE('',#1132,0.002,0.785398163397449);
#20=CYLINDRICAL_SURFACE('',#1065,0.005);
#21=CYLINDRICAL_SURFACE('',#1066,0.005);
#22=CYLINDRICAL_SURFACE('',#1079,0.002);
#23=CYLINDRICAL_SURFACE('',#1081,0.002);
#24=CYLINDRICAL_SURFACE('',#1083,0.002);
#25=CYLINDRICAL_SURFACE('',#1085,0.002);
#26=CYLINDRICAL_SURFACE('',#1087,0.004);
#27=CYLINDRICAL_SURFACE('',#1091,0.004);
#28=CYLINDRICAL_SURFACE('',#1095,0.004);
#29=CYLINDRICAL_SURFACE('',#1099,0.004);
#30=CYLINDRICAL_SURFACE('',#1103,0.002);
#31=CYLINDRICAL_SURFACE('',#1105,0.002);
#32=CYLINDRICAL_SURFACE('',#1107,0.002);
#33=CYLINDRICAL_SURFACE('',#1109,0.002);
#34=CYLINDRICAL_SURFACE('',#1111,0.005);
#35=CYLINDRICAL_SURFACE('',#1112,0.005);
#36=CYLINDRICAL_SURFACE('',#1113,0.005);
#37=CYLINDRICAL_SURFACE('',#1114,0.005);
#38=CYLINDRICAL_SURFACE('',#1115,0.005);
#39=CYLINDRICAL_SURFACE('',#1116,0.0011938);
#40=CYLINDRICAL_SURFACE('',#1117,0.002125);
#41=CYLINDRICAL_SURFACE('',#1118,0.004625);
#42=CYLINDRICAL_SURFACE('',#1119,0.005);
#43=CYLINDRICAL_SURFACE('',#1120,0.0011938);
#44=CYLINDRICAL_SURFACE('',#1121,0.005);
#45=CYLINDRICAL_SURFACE('',#1122,0.005);
#46=CYLINDRICAL_SURFACE('',#1123,0.005);
#47=CYLINDRICAL_SURFACE('',#1124,0.005);
#48=LINE('',#1447,#96);
#49=LINE('',#1450,#97);
#50=LINE('',#1452,#98);
#51=LINE('',#1454,#99);
#52=LINE('',#1466,#100);
#53=LINE('',#1468,#101);
#54=LINE('',#1470,#102);
#55=LINE('',#1474,#103);
#56=LINE('',#1476,#104);
#57=LINE('',#1478,#105);
#58=LINE('',#1480,#106);
#59=LINE('',#1482,#107);
#60=LINE('',#1484,#108);
#61=LINE('',#1486,#109);
#62=LINE('',#1490,#110);
#63=LINE('',#1492,#111);
#64=LINE('',#1494,#112);
#65=LINE('',#1504,#113);
#66=LINE('',#1507,#114);
#67=LINE('',#1509,#115);
#68=LINE('',#1511,#116);
#69=LINE('',#1523,#117);
#70=LINE('',#1525,#118);
#71=LINE('',#1527,#119);
#72=LINE('',#1557,#120);
#73=LINE('',#1559,#121);
#74=LINE('',#1561,#122);
#75=LINE('',#1563,#123);
#76=LINE('',#1564,#124);
#77=LINE('',#1568,#125);
#78=LINE('',#1578,#126);
#79=LINE('',#1579,#127);
#80=LINE('',#1581,#128);
#81=LINE('',#1583,#129);
#82=LINE('',#1584,#130);
#83=LINE('',#1586,#131);
#84=LINE('',#1588,#132);
#85=LINE('',#1589,#133);
#86=LINE('',#1593,#134);
#87=LINE('',#1595,#135);
#88=LINE('',#1597,#136);
#89=LINE('',#1599,#137);
#90=LINE('',#1605,#138);
#91=LINE('',#1608,#139);
#92=LINE('',#1610,#140);
#93=LINE('',#1612,#141);
#94=LINE('',#1614,#142);
#95=LINE('',#1620,#143);
#96=VECTOR('',#1155,1.);
#97=VECTOR('',#1156,1.);
#98=VECTOR('',#1157,1.);
#99=VECTOR('',#1158,1.);
#100=VECTOR('',#1171,1.);
#101=VECTOR('',#1172,1.);
#102=VECTOR('',#1173,1.);
#103=VECTOR('',#1176,1.);
#104=VECTOR('',#1177,1.);
#105=VECTOR('',#1178,1.);
#106=VECTOR('',#1181,1.);
#107=VECTOR('',#1182,1.);
#108=VECTOR('',#1183,1.);
#109=VECTOR('',#1184,1.);
#110=VECTOR('',#1187,1.);
#111=VECTOR('',#1188,1.);
#112=VECTOR('',#1191,1.);
#113=VECTOR('',#1202,1.);
#114=VECTOR('',#1203,1.);
#115=VECTOR('',#1204,1.);
#116=VECTOR('',#1205,1.);
#117=VECTOR('',#1218,1.);
#118=VECTOR('',#1219,1.);
#119=VECTOR('',#1220,1.);
#120=VECTOR('',#1251,1.);
#121=VECTOR('',#1252,1.);
#122=VECTOR('',#1255,1.);
#123=VECTOR('',#1256,1.);
#124=VECTOR('',#1257,1.);
#125=VECTOR('',#1262,1.);
#126=VECTOR('',#1273,1.);
#127=VECTOR('',#1274,1.);
#128=VECTOR('',#1275,1.);
#129=VECTOR('',#1276,1.);
#130=VECTOR('',#1277,1.);
#131=VECTOR('',#1278,1.);
#132=VECTOR('',#1279,1.);
#133=VECTOR('',#1280,1.);
#134=VECTOR('',#1287,1.);
#135=VECTOR('',#1288,1.);
#136=VECTOR('',#1291,1.);
#137=VECTOR('',#1292,1.);
#138=VECTOR('',#1299,1.);
#139=VECTOR('',#1304,1.);
#140=VECTOR('',#1305,1.);
#141=VECTOR('',#1308,1.);
#142=VECTOR('',#1309,1.);
#143=VECTOR('',#1316,1.);
#144=ORIENTED_EDGE('',*,*,#368,.T.);
#145=ORIENTED_EDGE('',*,*,#369,.T.);
#146=ORIENTED_EDGE('',*,*,#370,.T.);
#147=ORIENTED_EDGE('',*,*,#371,.T.);
#148=ORIENTED_EDGE('',*,*,#372,.T.);
#149=ORIENTED_EDGE('',*,*,#373,.T.);
#150=ORIENTED_EDGE('',*,*,#374,.T.);
#151=ORIENTED_EDGE('',*,*,#375,.T.);
#152=ORIENTED_EDGE('',*,*,#376,.T.);
#153=ORIENTED_EDGE('',*,*,#377,.F.);
#154=ORIENTED_EDGE('',*,*,#378,.T.);
#155=ORIENTED_EDGE('',*,*,#379,.F.);
#156=ORIENTED_EDGE('',*,*,#380,.T.);
#157=ORIENTED_EDGE('',*,*,#381,.T.);
#158=ORIENTED_EDGE('',*,*,#382,.T.);
#159=ORIENTED_EDGE('',*,*,#383,.T.);
#160=ORIENTED_EDGE('',*,*,#384,.T.);
#161=ORIENTED_EDGE('',*,*,#385,.T.);
#162=ORIENTED_EDGE('',*,*,#386,.F.);
#163=ORIENTED_EDGE('',*,*,#377,.T.);
#164=ORIENTED_EDGE('',*,*,#387,.T.);
#165=ORIENTED_EDGE('',*,*,#388,.T.);
#166=ORIENTED_EDGE('',*,*,#389,.F.);
#167=ORIENTED_EDGE('',*,*,#390,.T.);
#168=ORIENTED_EDGE('',*,*,#391,.T.);
#169=ORIENTED_EDGE('',*,*,#392,.T.);
#170=ORIENTED_EDGE('',*,*,#379,.T.);
#171=ORIENTED_EDGE('',*,*,#393,.T.);
#172=ORIENTED_EDGE('',*,*,#394,.F.);
#173=ORIENTED_EDGE('',*,*,#395,.F.);
#174=ORIENTED_EDGE('',*,*,#396,.F.);
#175=ORIENTED_EDGE('',*,*,#397,.T.);
#176=ORIENTED_EDGE('',*,*,#398,.F.);
#177=ORIENTED_EDGE('',*,*,#399,.F.);
#178=ORIENTED_EDGE('',*,*,#380,.F.);
#179=ORIENTED_EDGE('',*,*,#399,.T.);
#180=ORIENTED_EDGE('',*,*,#400,.T.);
#181=ORIENTED_EDGE('',*,*,#387,.F.);
#182=ORIENTED_EDGE('',*,*,#401,.F.);
#183=ORIENTED_EDGE('',*,*,#402,.F.);
#184=ORIENTED_EDGE('',*,*,#403,.F.);
#185=ORIENTED_EDGE('',*,*,#404,.F.);
#186=ORIENTED_EDGE('',*,*,#405,.F.);
#187=ORIENTED_EDGE('',*,*,#406,.F.);
#188=ORIENTED_EDGE('',*,*,#407,.T.);
#189=ORIENTED_EDGE('',*,*,#408,.T.);
#190=ORIENTED_EDGE('',*,*,#409,.T.);
#191=ORIENTED_EDGE('',*,*,#410,.F.);
#192=ORIENTED_EDGE('',*,*,#411,.F.);
#193=ORIENTED_EDGE('',*,*,#412,.F.);
#194=ORIENTED_EDGE('',*,*,#413,.F.);
#195=ORIENTED_EDGE('',*,*,#414,.F.);
#196=ORIENTED_EDGE('',*,*,#415,.F.);
#197=ORIENTED_EDGE('',*,*,#416,.T.);
#198=ORIENTED_EDGE('',*,*,#406,.T.);
#199=ORIENTED_EDGE('',*,*,#417,.F.);
#200=ORIENTED_EDGE('',*,*,#418,.F.);
#201=ORIENTED_EDGE('',*,*,#419,.F.);
#202=ORIENTED_EDGE('',*,*,#420,.F.);
#203=ORIENTED_EDGE('',*,*,#421,.F.);
#204=ORIENTED_EDGE('',*,*,#422,.F.);
#205=ORIENTED_EDGE('',*,*,#423,.F.);
#206=ORIENTED_EDGE('',*,*,#424,.F.);
#207=ORIENTED_EDGE('',*,*,#425,.F.);
#208=ORIENTED_EDGE('',*,*,#426,.F.);
#209=ORIENTED_EDGE('',*,*,#427,.F.);
#210=ORIENTED_EDGE('',*,*,#428,.F.);
#211=ORIENTED_EDGE('',*,*,#429,.F.);
#212=ORIENTED_EDGE('',*,*,#430,.F.);
#213=ORIENTED_EDGE('',*,*,#431,.T.);
#214=ORIENTED_EDGE('',*,*,#432,.F.);
#215=ORIENTED_EDGE('',*,*,#407,.F.);
#216=ORIENTED_EDGE('',*,*,#416,.F.);
#217=ORIENTED_EDGE('',*,*,#400,.F.);
#218=ORIENTED_EDGE('',*,*,#398,.T.);
#219=ORIENTED_EDGE('',*,*,#433,.T.);
#220=ORIENTED_EDGE('',*,*,#434,.F.);
#221=ORIENTED_EDGE('',*,*,#414,.T.);
#222=ORIENTED_EDGE('',*,*,#405,.T.);
#223=ORIENTED_EDGE('',*,*,#435,.T.);
#224=ORIENTED_EDGE('',*,*,#388,.F.);
#225=ORIENTED_EDGE('',*,*,#431,.F.);
#226=ORIENTED_EDGE('',*,*,#415,.T.);
#227=ORIENTED_EDGE('',*,*,#434,.T.);
#228=ORIENTED_EDGE('',*,*,#436,.F.);
#229=ORIENTED_EDGE('',*,*,#437,.F.);
#230=ORIENTED_EDGE('',*,*,#438,.T.);
#231=ORIENTED_EDGE('',*,*,#439,.T.);
#232=ORIENTED_EDGE('',*,*,#440,.T.);
#233=ORIENTED_EDGE('',*,*,#441,.T.);
#234=ORIENTED_EDGE('',*,*,#408,.F.);
#235=ORIENTED_EDGE('',*,*,#432,.T.);
#236=ORIENTED_EDGE('',*,*,#437,.T.);
#237=ORIENTED_EDGE('',*,*,#442,.F.);
#238=ORIENTED_EDGE('',*,*,#443,.F.);
#239=ORIENTED_EDGE('',*,*,#444,.F.);
#240=ORIENTED_EDGE('',*,*,#445,.T.);
#241=ORIENTED_EDGE('',*,*,#393,.F.);
#242=ORIENTED_EDGE('',*,*,#378,.F.);
#243=ORIENTED_EDGE('',*,*,#386,.T.);
#244=ORIENTED_EDGE('',*,*,#446,.F.);
#245=ORIENTED_EDGE('',*,*,#447,.T.);
#246=ORIENTED_EDGE('',*,*,#448,.T.);
#247=ORIENTED_EDGE('',*,*,#449,.F.);
#248=ORIENTED_EDGE('',*,*,#409,.F.);
#249=ORIENTED_EDGE('',*,*,#449,.T.);
#250=ORIENTED_EDGE('',*,*,#389,.T.);
#251=ORIENTED_EDGE('',*,*,#435,.F.);
#252=ORIENTED_EDGE('',*,*,#436,.T.);
#253=ORIENTED_EDGE('',*,*,#433,.F.);
#254=ORIENTED_EDGE('',*,*,#397,.F.);
#255=ORIENTED_EDGE('',*,*,#442,.T.);
#256=ORIENTED_EDGE('',*,*,#392,.F.);
#257=ORIENTED_EDGE('',*,*,#450,.F.);
#258=ORIENTED_EDGE('',*,*,#451,.T.);
#259=ORIENTED_EDGE('',*,*,#446,.T.);
#260=ORIENTED_EDGE('',*,*,#390,.F.);
#261=ORIENTED_EDGE('',*,*,#448,.F.);
#262=ORIENTED_EDGE('',*,*,#452,.T.);
#263=ORIENTED_EDGE('',*,*,#453,.T.);
#264=ORIENTED_EDGE('',*,*,#454,.T.);
#265=ORIENTED_EDGE('',*,*,#455,.T.);
#266=ORIENTED_EDGE('',*,*,#391,.F.);
#267=ORIENTED_EDGE('',*,*,#453,.F.);
#268=ORIENTED_EDGE('',*,*,#456,.T.);
#269=ORIENTED_EDGE('',*,*,#450,.T.);
#270=ORIENTED_EDGE('',*,*,#451,.F.);
#271=ORIENTED_EDGE('',*,*,#456,.F.);
#272=ORIENTED_EDGE('',*,*,#452,.F.);
#273=ORIENTED_EDGE('',*,*,#447,.F.);
#274=ORIENTED_EDGE('',*,*,#394,.T.);
#275=ORIENTED_EDGE('',*,*,#445,.F.);
#276=ORIENTED_EDGE('',*,*,#457,.F.);
#277=ORIENTED_EDGE('',*,*,#458,.T.);
#278=ORIENTED_EDGE('',*,*,#396,.T.);
#279=ORIENTED_EDGE('',*,*,#459,.F.);
#280=ORIENTED_EDGE('',*,*,#460,.F.);
#281=ORIENTED_EDGE('',*,*,#443,.T.);
#282=ORIENTED_EDGE('',*,*,#461,.T.);
#283=ORIENTED_EDGE('',*,*,#462,.T.);
#284=ORIENTED_EDGE('',*,*,#395,.T.);
#285=ORIENTED_EDGE('',*,*,#458,.F.);
#286=ORIENTED_EDGE('',*,*,#463,.F.);
#287=ORIENTED_EDGE('',*,*,#459,.T.);
#288=ORIENTED_EDGE('',*,*,#457,.T.);
#289=ORIENTED_EDGE('',*,*,#444,.T.);
#290=ORIENTED_EDGE('',*,*,#460,.T.);
#291=ORIENTED_EDGE('',*,*,#463,.T.);
#292=ORIENTED_EDGE('',*,*,#464,.T.);
#293=ORIENTED_EDGE('',*,*,#413,.T.);
#294=ORIENTED_EDGE('',*,*,#465,.T.);
#295=ORIENTED_EDGE('',*,*,#412,.T.);
#296=ORIENTED_EDGE('',*,*,#466,.T.);
#297=ORIENTED_EDGE('',*,*,#411,.T.);
#298=ORIENTED_EDGE('',*,*,#467,.T.);
#299=ORIENTED_EDGE('',*,*,#410,.T.);
#300=ORIENTED_EDGE('',*,*,#404,.T.);
#301=ORIENTED_EDGE('',*,*,#468,.F.);
#302=ORIENTED_EDGE('',*,*,#469,.T.);
#303=ORIENTED_EDGE('',*,*,#468,.T.);
#304=ORIENTED_EDGE('',*,*,#401,.T.);
#305=ORIENTED_EDGE('',*,*,#470,.F.);
#306=ORIENTED_EDGE('',*,*,#471,.T.);
#307=ORIENTED_EDGE('',*,*,#470,.T.);
#308=ORIENTED_EDGE('',*,*,#403,.T.);
#309=ORIENTED_EDGE('',*,*,#472,.F.);
#310=ORIENTED_EDGE('',*,*,#473,.T.);
#311=ORIENTED_EDGE('',*,*,#472,.T.);
#312=ORIENTED_EDGE('',*,*,#402,.T.);
#313=ORIENTED_EDGE('',*,*,#474,.F.);
#314=ORIENTED_EDGE('',*,*,#475,.T.);
#315=ORIENTED_EDGE('',*,*,#474,.T.);
#316=ORIENTED_EDGE('',*,*,#476,.T.);
#317=ORIENTED_EDGE('',*,*,#462,.F.);
#318=ORIENTED_EDGE('',*,*,#477,.T.);
#319=ORIENTED_EDGE('',*,*,#461,.F.);
#320=ORIENTED_EDGE('',*,*,#478,.T.);
#321=ORIENTED_EDGE('',*,*,#455,.F.);
#322=ORIENTED_EDGE('',*,*,#479,.T.);
#323=ORIENTED_EDGE('',*,*,#454,.F.);
#324=ORIENTED_EDGE('',*,*,#421,.T.);
#325=ORIENTED_EDGE('',*,*,#381,.F.);
#326=ORIENTED_EDGE('',*,*,#419,.T.);
#327=ORIENTED_EDGE('',*,*,#383,.F.);
#328=ORIENTED_EDGE('',*,*,#420,.T.);
#329=ORIENTED_EDGE('',*,*,#382,.F.);
#330=ORIENTED_EDGE('',*,*,#417,.T.);
#331=ORIENTED_EDGE('',*,*,#385,.F.);
#332=ORIENTED_EDGE('',*,*,#418,.T.);
#333=ORIENTED_EDGE('',*,*,#384,.F.);
#334=ORIENTED_EDGE('',*,*,#430,.T.);
#335=ORIENTED_EDGE('',*,*,#376,.F.);
#336=ORIENTED_EDGE('',*,*,#429,.T.);
#337=ORIENTED_EDGE('',*,*,#375,.F.);
#338=ORIENTED_EDGE('',*,*,#428,.T.);
#339=ORIENTED_EDGE('',*,*,#374,.F.);
#340=ORIENTED_EDGE('',*,*,#427,.T.);
#341=ORIENTED_EDGE('',*,*,#373,.F.);
#342=ORIENTED_EDGE('',*,*,#426,.T.);
#343=ORIENTED_EDGE('',*,*,#372,.F.);
#344=ORIENTED_EDGE('',*,*,#425,.T.);
#345=ORIENTED_EDGE('',*,*,#371,.F.);
#346=ORIENTED_EDGE('',*,*,#424,.T.);
#347=ORIENTED_EDGE('',*,*,#370,.F.);
#348=ORIENTED_EDGE('',*,*,#423,.T.);
#349=ORIENTED_EDGE('',*,*,#369,.F.);
#350=ORIENTED_EDGE('',*,*,#422,.T.);
#351=ORIENTED_EDGE('',*,*,#368,.F.);
#352=ORIENTED_EDGE('',*,*,#438,.F.);
#353=ORIENTED_EDGE('',*,*,#477,.F.);
#354=ORIENTED_EDGE('',*,*,#439,.F.);
#355=ORIENTED_EDGE('',*,*,#476,.F.);
#356=ORIENTED_EDGE('',*,*,#440,.F.);
#357=ORIENTED_EDGE('',*,*,#479,.F.);
#358=ORIENTED_EDGE('',*,*,#441,.F.);
#359=ORIENTED_EDGE('',*,*,#478,.F.);
#360=ORIENTED_EDGE('',*,*,#473,.F.);
#361=ORIENTED_EDGE('',*,*,#465,.F.);
#362=ORIENTED_EDGE('',*,*,#475,.F.);
#363=ORIENTED_EDGE('',*,*,#464,.F.);
#364=ORIENTED_EDGE('',*,*,#471,.F.);
#365=ORIENTED_EDGE('',*,*,#466,.F.);
#366=ORIENTED_EDGE('',*,*,#469,.F.);
#367=ORIENTED_EDGE('',*,*,#467,.F.);
#368=EDGE_CURVE('',#480,#480,#574,.F.);
#369=EDGE_CURVE('',#481,#481,#575,.F.);
#370=EDGE_CURVE('',#482,#482,#576,.F.);
#371=EDGE_CURVE('',#483,#483,#577,.F.);
#372=EDGE_CURVE('',#484,#484,#578,.F.);
#373=EDGE_CURVE('',#485,#485,#579,.F.);
#374=EDGE_CURVE('',#486,#486,#580,.F.);
#375=EDGE_CURVE('',#487,#487,#581,.F.);
#376=EDGE_CURVE('',#488,#488,#582,.F.);
#377=EDGE_CURVE('',#489,#490,#48,.T.);
#378=EDGE_CURVE('',#489,#491,#49,.T.);
#379=EDGE_CURVE('',#492,#491,#50,.T.);
#380=EDGE_CURVE('',#492,#490,#51,.T.);
#381=EDGE_CURVE('',#493,#493,#583,.F.);
#382=EDGE_CURVE('',#494,#494,#584,.F.);
#383=EDGE_CURVE('',#495,#495,#585,.F.);
#384=EDGE_CURVE('',#496,#496,#586,.F.);
#385=EDGE_CURVE('',#497,#497,#587,.F.);
#386=EDGE_CURVE('',#489,#498,#52,.T.);
#387=EDGE_CURVE('',#490,#499,#53,.T.);
#388=EDGE_CURVE('',#499,#500,#54,.T.);
#389=EDGE_CURVE('',#501,#500,#588,.T.);
#390=EDGE_CURVE('',#501,#502,#55,.T.);
#391=EDGE_CURVE('',#502,#503,#56,.T.);
#392=EDGE_CURVE('',#503,#498,#57,.T.);
#393=EDGE_CURVE('',#491,#504,#58,.T.);
#394=EDGE_CURVE('',#505,#504,#59,.T.);
#395=EDGE_CURVE('',#506,#505,#60,.T.);
#396=EDGE_CURVE('',#507,#506,#61,.T.);
#397=EDGE_CURVE('',#507,#508,#589,.T.);
#398=EDGE_CURVE('',#509,#508,#62,.T.);
#399=EDGE_CURVE('',#492,#509,#63,.T.);
#400=EDGE_CURVE('',#509,#499,#64,.T.);
#401=EDGE_CURVE('',#510,#510,#590,.T.);
#402=EDGE_CURVE('',#511,#511,#591,.T.);
#403=EDGE_CURVE('',#512,#512,#592,.T.);
#404=EDGE_CURVE('',#513,#513,#593,.T.);
#405=EDGE_CURVE('',#514,#515,#65,.T.);
#406=EDGE_CURVE('',#516,#514,#66,.T.);
#407=EDGE_CURVE('',#516,#517,#67,.T.);
#408=EDGE_CURVE('',#517,#518,#68,.T.);
#409=EDGE_CURVE('',#518,#515,#594,.T.);
#410=EDGE_CURVE('',#519,#519,#595,.F.);
#411=EDGE_CURVE('',#520,#520,#596,.F.);
#412=EDGE_CURVE('',#521,#521,#597,.F.);
#413=EDGE_CURVE('',#522,#522,#598,.F.);
#414=EDGE_CURVE('',#523,#514,#69,.T.);
#415=EDGE_CURVE('',#524,#523,#70,.T.);
#416=EDGE_CURVE('',#524,#516,#71,.T.);
#417=EDGE_CURVE('',#525,#525,#599,.T.);
#418=EDGE_CURVE('',#526,#526,#600,.T.);
#419=EDGE_CURVE('',#527,#527,#601,.T.);
#420=EDGE_CURVE('',#528,#528,#602,.T.);
#421=EDGE_CURVE('',#529,#529,#603,.T.);
#422=EDGE_CURVE('',#530,#530,#604,.T.);
#423=EDGE_CURVE('',#531,#531,#605,.T.);
#424=EDGE_CURVE('',#532,#532,#606,.T.);
#425=EDGE_CURVE('',#533,#533,#607,.T.);
#426=EDGE_CURVE('',#534,#534,#608,.T.);
#427=EDGE_CURVE('',#535,#535,#609,.T.);
#428=EDGE_CURVE('',#536,#536,#610,.T.);
#429=EDGE_CURVE('',#537,#537,#611,.T.);
#430=EDGE_CURVE('',#538,#538,#612,.T.);
#431=EDGE_CURVE('',#524,#539,#72,.T.);
#432=EDGE_CURVE('',#517,#539,#73,.T.);
#433=EDGE_CURVE('',#508,#540,#74,.T.);
#434=EDGE_CURVE('',#523,#540,#75,.T.);
#435=EDGE_CURVE('',#515,#500,#76,.T.);
#436=EDGE_CURVE('',#541,#540,#613,.T.);
#437=EDGE_CURVE('',#539,#541,#77,.T.);
#438=EDGE_CURVE('',#542,#542,#614,.T.);
#439=EDGE_CURVE('',#543,#543,#615,.T.);
#440=EDGE_CURVE('',#544,#544,#616,.T.);
#441=EDGE_CURVE('',#545,#545,#617,.T.);
#442=EDGE_CURVE('',#507,#541,#78,.T.);
#443=EDGE_CURVE('',#546,#507,#79,.T.);
#444=EDGE_CURVE('',#547,#546,#80,.T.);
#445=EDGE_CURVE('',#547,#504,#81,.T.);
#446=EDGE_CURVE('',#548,#498,#82,.T.);
#447=EDGE_CURVE('',#548,#549,#83,.T.);
#448=EDGE_CURVE('',#549,#501,#84,.T.);
#449=EDGE_CURVE('',#518,#501,#85,.T.);
#450=EDGE_CURVE('',#550,#503,#86,.T.);
#451=EDGE_CURVE('',#550,#548,#87,.T.);
#452=EDGE_CURVE('',#549,#551,#88,.T.);
#453=EDGE_CURVE('',#551,#502,#89,.T.);
#454=EDGE_CURVE('',#552,#552,#618,.F.);
#455=EDGE_CURVE('',#553,#553,#619,.F.);
#456=EDGE_CURVE('',#551,#550,#90,.T.);
#457=EDGE_CURVE('',#554,#547,#91,.T.);
#458=EDGE_CURVE('',#554,#505,#92,.T.);
#459=EDGE_CURVE('',#555,#506,#93,.T.);
#460=EDGE_CURVE('',#546,#555,#94,.T.);
#461=EDGE_CURVE('',#556,#556,#620,.F.);
#462=EDGE_CURVE('',#557,#557,#621,.F.);
#463=EDGE_CURVE('',#555,#554,#95,.T.);
#464=EDGE_CURVE('',#558,#558,#622,.T.);
#465=EDGE_CURVE('',#559,#559,#623,.T.);
#466=EDGE_CURVE('',#560,#560,#624,.T.);
#467=EDGE_CURVE('',#561,#561,#625,.T.);
#468=EDGE_CURVE('',#562,#562,#626,.T.);
#469=EDGE_CURVE('',#563,#563,#627,.F.);
#470=EDGE_CURVE('',#564,#564,#628,.T.);
#471=EDGE_CURVE('',#565,#565,#629,.F.);
#472=EDGE_CURVE('',#566,#566,#630,.T.);
#473=EDGE_CURVE('',#567,#567,#631,.F.);
#474=EDGE_CURVE('',#568,#568,#632,.T.);
#475=EDGE_CURVE('',#569,#569,#633,.F.);
#476=EDGE_CURVE('',#570,#570,#634,.F.);
#477=EDGE_CURVE('',#571,#571,#635,.F.);
#478=EDGE_CURVE('',#572,#572,#636,.F.);
#479=EDGE_CURVE('',#573,#573,#637,.F.);
#480=VERTEX_POINT('',#1430);
#481=VERTEX_POINT('',#1432);
#482=VERTEX_POINT('',#1434);
#483=VERTEX_POINT('',#1436);
#484=VERTEX_POINT('',#1438);
#485=VERTEX_POINT('',#1440);
#486=VERTEX_POINT('',#1442);
#487=VERTEX_POINT('',#1444);
#488=VERTEX_POINT('',#1446);
#489=VERTEX_POINT('',#1448);
#490=VERTEX_POINT('',#1449);
#491=VERTEX_POINT('',#1451);
#492=VERTEX_POINT('',#1453);
#493=VERTEX_POINT('',#1456);
#494=VERTEX_POINT('',#1458);
#495=VERTEX_POINT('',#1460);
#496=VERTEX_POINT('',#1462);
#497=VERTEX_POINT('',#1464);
#498=VERTEX_POINT('',#1467);
#499=VERTEX_POINT('',#1469);
#500=VERTEX_POINT('',#1471);
#501=VERTEX_POINT('',#1473);
#502=VERTEX_POINT('',#1475);
#503=VERTEX_POINT('',#1477);
#504=VERTEX_POINT('',#1481);
#505=VERTEX_POINT('',#1483);
#506=VERTEX_POINT('',#1485);
#507=VERTEX_POINT('',#1487);
#508=VERTEX_POINT('',#1489);
#509=VERTEX_POINT('',#1491);
#510=VERTEX_POINT('',#1496);
#511=VERTEX_POINT('',#1498);
#512=VERTEX_POINT('',#1500);
#513=VERTEX_POINT('',#1502);
#514=VERTEX_POINT('',#1505);
#515=VERTEX_POINT('',#1506);
#516=VERTEX_POINT('',#1508);
#517=VERTEX_POINT('',#1510);
#518=VERTEX_POINT('',#1512);
#519=VERTEX_POINT('',#1516);
#520=VERTEX_POINT('',#1518);
#521=VERTEX_POINT('',#1520);
#522=VERTEX_POINT('',#1522);
#523=VERTEX_POINT('',#1524);
#524=VERTEX_POINT('',#1526);
#525=VERTEX_POINT('',#1530);
#526=VERTEX_POINT('',#1532);
#527=VERTEX_POINT('',#1534);
#528=VERTEX_POINT('',#1536);
#529=VERTEX_POINT('',#1538);
#530=VERTEX_POINT('',#1540);
#531=VERTEX_POINT('',#1542);
#532=VERTEX_POINT('',#1544);
#533=VERTEX_POINT('',#1546);
#534=VERTEX_POINT('',#1548);
#535=VERTEX_POINT('',#1550);
#536=VERTEX_POINT('',#1552);
#537=VERTEX_POINT('',#1554);
#538=VERTEX_POINT('',#1556);
#539=VERTEX_POINT('',#1558);
#540=VERTEX_POINT('',#1562);
#541=VERTEX_POINT('',#1567);
#542=VERTEX_POINT('',#1571);
#543=VERTEX_POINT('',#1573);
#544=VERTEX_POINT('',#1575);
#545=VERTEX_POINT('',#1577);
#546=VERTEX_POINT('',#1580);
#547=VERTEX_POINT('',#1582);
#548=VERTEX_POINT('',#1585);
#549=VERTEX_POINT('',#1587);
#550=VERTEX_POINT('',#1594);
#551=VERTEX_POINT('',#1598);
#552=VERTEX_POINT('',#1602);
#553=VERTEX_POINT('',#1604);
#554=VERTEX_POINT('',#1609);
#555=VERTEX_POINT('',#1613);
#556=VERTEX_POINT('',#1617);
#557=VERTEX_POINT('',#1619);
#558=VERTEX_POINT('',#1624);
#559=VERTEX_POINT('',#1627);
#560=VERTEX_POINT('',#1630);
#561=VERTEX_POINT('',#1633);
#562=VERTEX_POINT('',#1636);
#563=VERTEX_POINT('',#1639);
#564=VERTEX_POINT('',#1642);
#565=VERTEX_POINT('',#1645);
#566=VERTEX_POINT('',#1648);
#567=VERTEX_POINT('',#1651);
#568=VERTEX_POINT('',#1654);
#569=VERTEX_POINT('',#1657);
#570=VERTEX_POINT('',#1660);
#571=VERTEX_POINT('',#1663);
#572=VERTEX_POINT('',#1666);
#573=VERTEX_POINT('',#1669);
#574=CIRCLE('',#1012,0.005);
#575=CIRCLE('',#1013,0.005);
#576=CIRCLE('',#1014,0.005);
#577=CIRCLE('',#1015,0.005);
#578=CIRCLE('',#1016,0.0011938);
#579=CIRCLE('',#1017,0.005);
#580=CIRCLE('',#1018,0.004625);
#581=CIRCLE('',#1019,0.002125);
#582=CIRCLE('',#1020,0.0011938);
#583=CIRCLE('',#1021,0.005);
#584=CIRCLE('',#1022,0.005);
#585=CIRCLE('',#1023,0.005);
#586=CIRCLE('',#1024,0.005);
#587=CIRCLE('',#1025,0.005);
#588=CIRCLE('',#1027,0.005);
#589=CIRCLE('',#1029,0.005);
#590=CIRCLE('',#1031,0.004);
#591=CIRCLE('',#1032,0.004);
#592=CIRCLE('',#1033,0.004);
#593=CIRCLE('',#1034,0.004);
#594=CIRCLE('',#1036,0.005);
#595=CIRCLE('',#1038,0.002);
#596=CIRCLE('',#1039,0.002);
#597=CIRCLE('',#1040,0.002);
#598=CIRCLE('',#1041,0.002);
#599=CIRCLE('',#1043,0.005);
#600=CIRCLE('',#1044,0.005);
#601=CIRCLE('',#1045,0.005);
#602=CIRCLE('',#1046,0.005);
#603=CIRCLE('',#1047,0.005);
#604=CIRCLE('',#1048,0.005);
#605=CIRCLE('',#1049,0.005);
#606=CIRCLE('',#1050,0.005);
#607=CIRCLE('',#1051,0.005);
#608=CIRCLE('',#1052,0.0011938);
#609=CIRCLE('',#1053,0.005);
#610=CIRCLE('',#1054,0.004625);
#611=CIRCLE('',#1055,0.002125);
#612=CIRCLE('',#1056,0.0011938);
#613=CIRCLE('',#1059,0.005);
#614=CIRCLE('',#1061,0.0035);
#615=CIRCLE('',#1062,0.0035);
#616=CIRCLE('',#1063,0.0035);
#617=CIRCLE('',#1064,0.0035);
#618=CIRCLE('',#1070,0.002);
#619=CIRCLE('',#1071,0.002);
#620=CIRCLE('',#1076,0.002);
#621=CIRCLE('',#1077,0.002);
#622=CIRCLE('',#1080,0.002);
#623=CIRCLE('',#1082,0.002);
#624=CIRCLE('',#1084,0.002);
#625=CIRCLE('',#1086,0.002);
#626=CIRCLE('',#1088,0.004);
#627=CIRCLE('',#1090,0.0035);
#628=CIRCLE('',#1092,0.004);
#629=CIRCLE('',#1094,0.0035);
#630=CIRCLE('',#1096,0.004);
#631=CIRCLE('',#1098,0.0035);
#632=CIRCLE('',#1100,0.004);
#633=CIRCLE('',#1102,0.0035);
#634=CIRCLE('',#1104,0.002);
#635=CIRCLE('',#1106,0.002);
#636=CIRCLE('',#1108,0.002);
#637=CIRCLE('',#1110,0.002);
#638=EDGE_LOOP('',(#144));
#639=EDGE_LOOP('',(#145));
#640=EDGE_LOOP('',(#146));
#641=EDGE_LOOP('',(#147));
#642=EDGE_LOOP('',(#148));
#643=EDGE_LOOP('',(#149));
#644=EDGE_LOOP('',(#150));
#645=EDGE_LOOP('',(#151));
#646=EDGE_LOOP('',(#152));
#647=EDGE_LOOP('',(#153,#154,#155,#156));
#648=EDGE_LOOP('',(#157));
#649=EDGE_LOOP('',(#158));
#650=EDGE_LOOP('',(#159));
#651=EDGE_LOOP('',(#160));
#652=EDGE_LOOP('',(#161));
#653=EDGE_LOOP('',(#162,#163,#164,#165,#166,#167,#168,#169));
#654=EDGE_LOOP('',(#170,#171,#172,#173,#174,#175,#176,#177));
#655=EDGE_LOOP('',(#178,#179,#180,#181));
#656=EDGE_LOOP('',(#182));
#657=EDGE_LOOP('',(#183));
#658=EDGE_LOOP('',(#184));
#659=EDGE_LOOP('',(#185));
#660=EDGE_LOOP('',(#186,#187,#188,#189,#190));
#661=EDGE_LOOP('',(#191));
#662=EDGE_LOOP('',(#192));
#663=EDGE_LOOP('',(#193));
#664=EDGE_LOOP('',(#194));
#665=EDGE_LOOP('',(#195,#196,#197,#198));
#666=EDGE_LOOP('',(#199));
#667=EDGE_LOOP('',(#200));
#668=EDGE_LOOP('',(#201));
#669=EDGE_LOOP('',(#202));
#670=EDGE_LOOP('',(#203));
#671=EDGE_LOOP('',(#204));
#672=EDGE_LOOP('',(#205));
#673=EDGE_LOOP('',(#206));
#674=EDGE_LOOP('',(#207));
#675=EDGE_LOOP('',(#208));
#676=EDGE_LOOP('',(#209));
#677=EDGE_LOOP('',(#210));
#678=EDGE_LOOP('',(#211));
#679=EDGE_LOOP('',(#212));
#680=EDGE_LOOP('',(#213,#214,#215,#216));
#681=EDGE_LOOP('',(#217,#218,#219,#220,#221,#222,#223,#224));
#682=EDGE_LOOP('',(#225,#226,#227,#228,#229));
#683=EDGE_LOOP('',(#230));
#684=EDGE_LOOP('',(#231));
#685=EDGE_LOOP('',(#232));
#686=EDGE_LOOP('',(#233));
#687=EDGE_LOOP('',(#234,#235,#236,#237,#238,#239,#240,#241,#242,#243,#244,
#245,#246,#247));
#688=EDGE_LOOP('',(#248,#249,#250,#251));
#689=EDGE_LOOP('',(#252,#253,#254,#255));
#690=EDGE_LOOP('',(#256,#257,#258,#259));
#691=EDGE_LOOP('',(#260,#261,#262,#263));
#692=EDGE_LOOP('',(#264));
#693=EDGE_LOOP('',(#265));
#694=EDGE_LOOP('',(#266,#267,#268,#269));
#695=EDGE_LOOP('',(#270,#271,#272,#273));
#696=EDGE_LOOP('',(#274,#275,#276,#277));
#697=EDGE_LOOP('',(#278,#279,#280,#281));
#698=EDGE_LOOP('',(#282));
#699=EDGE_LOOP('',(#283));
#700=EDGE_LOOP('',(#284,#285,#286,#287));
#701=EDGE_LOOP('',(#288,#289,#290,#291));
#702=EDGE_LOOP('',(#292));
#703=EDGE_LOOP('',(#293));
#704=EDGE_LOOP('',(#294));
#705=EDGE_LOOP('',(#295));
#706=EDGE_LOOP('',(#296));
#707=EDGE_LOOP('',(#297));
#708=EDGE_LOOP('',(#298));
#709=EDGE_LOOP('',(#299));
#710=EDGE_LOOP('',(#300));
#711=EDGE_LOOP('',(#301));
#712=EDGE_LOOP('',(#302));
#713=EDGE_LOOP('',(#303));
#714=EDGE_LOOP('',(#304));
#715=EDGE_LOOP('',(#305));
#716=EDGE_LOOP('',(#306));
#717=EDGE_LOOP('',(#307));
#718=EDGE_LOOP('',(#308));
#719=EDGE_LOOP('',(#309));
#720=EDGE_LOOP('',(#310));
#721=EDGE_LOOP('',(#311));
#722=EDGE_LOOP('',(#312));
#723=EDGE_LOOP('',(#313));
#724=EDGE_LOOP('',(#314));
#725=EDGE_LOOP('',(#315));
#726=EDGE_LOOP('',(#316));
#727=EDGE_LOOP('',(#317));
#728=EDGE_LOOP('',(#318));
#729=EDGE_LOOP('',(#319));
#730=EDGE_LOOP('',(#320));
#731=EDGE_LOOP('',(#321));
#732=EDGE_LOOP('',(#322));
#733=EDGE_LOOP('',(#323));
#734=EDGE_LOOP('',(#324));
#735=EDGE_LOOP('',(#325));
#736=EDGE_LOOP('',(#326));
#737=EDGE_LOOP('',(#327));
#738=EDGE_LOOP('',(#328));
#739=EDGE_LOOP('',(#329));
#740=EDGE_LOOP('',(#330));
#741=EDGE_LOOP('',(#331));
#742=EDGE_LOOP('',(#332));
#743=EDGE_LOOP('',(#333));
#744=EDGE_LOOP('',(#334));
#745=EDGE_LOOP('',(#335));
#746=EDGE_LOOP('',(#336));
#747=EDGE_LOOP('',(#337));
#748=EDGE_LOOP('',(#338));
#749=EDGE_LOOP('',(#339));
#750=EDGE_LOOP('',(#340));
#751=EDGE_LOOP('',(#341));
#752=EDGE_LOOP('',(#342));
#753=EDGE_LOOP('',(#343));
#754=EDGE_LOOP('',(#344));
#755=EDGE_LOOP('',(#345));
#756=EDGE_LOOP('',(#346));
#757=EDGE_LOOP('',(#347));
#758=EDGE_LOOP('',(#348));
#759=EDGE_LOOP('',(#349));
#760=EDGE_LOOP('',(#350));
#761=EDGE_LOOP('',(#351));
#762=EDGE_LOOP('',(#352));
#763=EDGE_LOOP('',(#353));
#764=EDGE_LOOP('',(#354));
#765=EDGE_LOOP('',(#355));
#766=EDGE_LOOP('',(#356));
#767=EDGE_LOOP('',(#357));
#768=EDGE_LOOP('',(#358));
#769=EDGE_LOOP('',(#359));
#770=EDGE_LOOP('',(#360));
#771=EDGE_LOOP('',(#361));
#772=EDGE_LOOP('',(#362));
#773=EDGE_LOOP('',(#363));
#774=EDGE_LOOP('',(#364));
#775=EDGE_LOOP('',(#365));
#776=EDGE_LOOP('',(#366));
#777=EDGE_LOOP('',(#367));
#778=FACE_BOUND('',#638,.T.);
#779=FACE_BOUND('',#639,.T.);
#780=FACE_BOUND('',#640,.T.);
#781=FACE_BOUND('',#641,.T.);
#782=FACE_BOUND('',#642,.T.);
#783=FACE_BOUND('',#643,.T.);
#784=FACE_BOUND('',#644,.T.);
#785=FACE_BOUND('',#645,.T.);
#786=FACE_BOUND('',#646,.T.);
#787=FACE_BOUND('',#647,.T.);
#788=FACE_BOUND('',#648,.T.);
#789=FACE_BOUND('',#649,.T.);
#790=FACE_BOUND('',#650,.T.);
#791=FACE_BOUND('',#651,.T.);
#792=FACE_BOUND('',#652,.T.);
#793=FACE_BOUND('',#653,.T.);
#794=FACE_BOUND('',#654,.T.);
#795=FACE_BOUND('',#655,.T.);
#796=FACE_BOUND('',#656,.T.);
#797=FACE_BOUND('',#657,.T.);
#798=FACE_BOUND('',#658,.T.);
#799=FACE_BOUND('',#659,.T.);
#800=FACE_BOUND('',#660,.T.);
#801=FACE_BOUND('',#661,.T.);
#802=FACE_BOUND('',#662,.T.);
#803=FACE_BOUND('',#663,.T.);
#804=FACE_BOUND('',#664,.T.);
#805=FACE_BOUND('',#665,.T.);
#806=FACE_BOUND('',#666,.T.);
#807=FACE_BOUND('',#667,.T.);
#808=FACE_BOUND('',#668,.T.);
#809=FACE_BOUND('',#669,.T.);
#810=FACE_BOUND('',#670,.T.);
#811=FACE_BOUND('',#671,.T.);
#812=FACE_BOUND('',#672,.T.);
#813=FACE_BOUND('',#673,.T.);
#814=FACE_BOUND('',#674,.T.);
#815=FACE_BOUND('',#675,.T.);
#816=FACE_BOUND('',#676,.T.);
#817=FACE_BOUND('',#677,.T.);
#818=FACE_BOUND('',#678,.T.);
#819=FACE_BOUND('',#679,.T.);
#820=FACE_BOUND('',#680,.T.);
#821=FACE_BOUND('',#681,.T.);
#822=FACE_BOUND('',#682,.T.);
#823=FACE_BOUND('',#683,.T.);
#824=FACE_BOUND('',#684,.T.);
#825=FACE_BOUND('',#685,.T.);
#826=FACE_BOUND('',#686,.T.);
#827=FACE_BOUND('',#687,.T.);
#828=FACE_BOUND('',#688,.T.);
#829=FACE_BOUND('',#689,.T.);
#830=FACE_BOUND('',#690,.T.);
#831=FACE_BOUND('',#691,.T.);
#832=FACE_BOUND('',#692,.T.);
#833=FACE_BOUND('',#693,.T.);
#834=FACE_BOUND('',#694,.T.);
#835=FACE_BOUND('',#695,.T.);
#836=FACE_BOUND('',#696,.T.);
#837=FACE_BOUND('',#697,.T.);
#838=FACE_BOUND('',#698,.T.);
#839=FACE_BOUND('',#699,.T.);
#840=FACE_BOUND('',#700,.T.);
#841=FACE_BOUND('',#701,.T.);
#842=FACE_BOUND('',#702,.T.);
#843=FACE_BOUND('',#703,.T.);
#844=FACE_BOUND('',#704,.T.);
#845=FACE_BOUND('',#705,.T.);
#846=FACE_BOUND('',#706,.T.);
#847=FACE_BOUND('',#707,.T.);
#848=FACE_BOUND('',#708,.T.);
#849=FACE_BOUND('',#709,.T.);
#850=FACE_BOUND('',#710,.T.);
#851=FACE_BOUND('',#711,.T.);
#852=FACE_BOUND('',#712,.T.);
#853=FACE_BOUND('',#713,.T.);
#854=FACE_BOUND('',#714,.T.);
#855=FACE_BOUND('',#715,.T.);
#856=FACE_BOUND('',#716,.T.);
#857=FACE_BOUND('',#717,.T.);
#858=FACE_BOUND('',#718,.T.);
#859=FACE_BOUND('',#719,.T.);
#860=FACE_BOUND('',#720,.T.);
#861=FACE_BOUND('',#721,.T.);
#862=FACE_BOUND('',#722,.T.);
#863=FACE_BOUND('',#723,.T.);
#864=FACE_BOUND('',#724,.T.);
#865=FACE_BOUND('',#725,.T.);
#866=FACE_BOUND('',#726,.T.);
#867=FACE_BOUND('',#727,.T.);
#868=FACE_BOUND('',#728,.T.);
#869=FACE_BOUND('',#729,.T.);
#870=FACE_BOUND('',#730,.T.);
#871=FACE_BOUND('',#731,.T.);
#872=FACE_BOUND('',#732,.T.);
#873=FACE_BOUND('',#733,.T.);
#874=FACE_BOUND('',#734,.T.);
#875=FACE_BOUND('',#735,.T.);
#876=FACE_BOUND('',#736,.T.);
#877=FACE_BOUND('',#737,.T.);
#878=FACE_BOUND('',#738,.T.);
#879=FACE_BOUND('',#739,.T.);
#880=FACE_BOUND('',#740,.T.);
#881=FACE_BOUND('',#741,.T.);
#882=FACE_BOUND('',#742,.T.);
#883=FACE_BOUND('',#743,.T.);
#884=FACE_BOUND('',#744,.T.);
#885=FACE_BOUND('',#745,.T.);
#886=FACE_BOUND('',#746,.T.);
#887=FACE_BOUND('',#747,.T.);
#888=FACE_BOUND('',#748,.T.);
#889=FACE_BOUND('',#749,.T.);
#890=FACE_BOUND('',#750,.T.);
#891=FACE_BOUND('',#751,.T.);
#892=FACE_BOUND('',#752,.T.);
#893=FACE_BOUND('',#753,.T.);
#894=FACE_BOUND('',#754,.T.);
#895=FACE_BOUND('',#755,.T.);
#896=FACE_BOUND('',#756,.T.);
#897=FACE_BOUND('',#757,.T.);
#898=FACE_BOUND('',#758,.T.);
#899=FACE_BOUND('',#759,.T.);
#900=FACE_BOUND('',#760,.T.);
#901=FACE_BOUND('',#761,.T.);
#902=FACE_BOUND('',#762,.T.);
#903=FACE_BOUND('',#763,.T.);
#904=FACE_BOUND('',#764,.T.);
#905=FACE_BOUND('',#765,.T.);
#906=FACE_BOUND('',#766,.T.);
#907=FACE_BOUND('',#767,.T.);
#908=FACE_BOUND('',#768,.T.);
#909=FACE_BOUND('',#769,.T.);
#910=FACE_BOUND('',#770,.T.);
#911=FACE_BOUND('',#771,.T.);
#912=FACE_BOUND('',#772,.T.);
#913=FACE_BOUND('',#773,.T.);
#914=FACE_BOUND('',#774,.T.);
#915=FACE_BOUND('',#775,.T.);
#916=FACE_BOUND('',#776,.T.);
#917=FACE_BOUND('',#777,.T.);
#918=PLANE('',#1011);
#919=PLANE('',#1026);
#920=PLANE('',#1028);
#921=PLANE('',#1030);
#922=PLANE('',#1035);
#923=PLANE('',#1037);
#924=PLANE('',#1042);
#925=PLANE('',#1057);
#926=PLANE('',#1058);
#927=PLANE('',#1060);
#928=PLANE('',#1067);
#929=PLANE('',#1068);
#930=PLANE('',#1069);
#931=PLANE('',#1072);
#932=PLANE('',#1073);
#933=PLANE('',#1074);
#934=PLANE('',#1075);
#935=PLANE('',#1078);
#936=PLANE('',#1089);
#937=PLANE('',#1093);
#938=PLANE('',#1097);
#939=PLANE('',#1101);
#940=ADVANCED_FACE('',(#778,#779,#780,#781,#782,#783,#784,#785,#786,#787,
#788,#789,#790,#791,#792),#918,.T.);
#941=ADVANCED_FACE('',(#793),#919,.F.);
#942=ADVANCED_FACE('',(#794),#920,.T.);
#943=ADVANCED_FACE('',(#795,#796,#797,#798,#799),#921,.T.);
#944=ADVANCED_FACE('',(#800),#922,.T.);
#945=ADVANCED_FACE('',(#801,#802,#803,#804,#805),#923,.F.);
#946=ADVANCED_FACE('',(#806,#807,#808,#809,#810,#811,#812,#813,#814,#815,
#816,#817,#818,#819,#820),#924,.T.);
#947=ADVANCED_FACE('',(#821),#925,.F.);
#948=ADVANCED_FACE('',(#822),#926,.T.);
#949=ADVANCED_FACE('',(#823,#824,#825,#826,#827),#927,.F.);
#950=ADVANCED_FACE('',(#828),#20,.T.);
#951=ADVANCED_FACE('',(#829),#21,.T.);
#952=ADVANCED_FACE('',(#830),#928,.T.);
#953=ADVANCED_FACE('',(#831),#929,.T.);
#954=ADVANCED_FACE('',(#832,#833,#834),#930,.T.);
#955=ADVANCED_FACE('',(#835),#931,.F.);
#956=ADVANCED_FACE('',(#836),#932,.F.);
#957=ADVANCED_FACE('',(#837),#933,.F.);
#958=ADVANCED_FACE('',(#838,#839,#840),#934,.F.);
#959=ADVANCED_FACE('',(#841),#935,.T.);
#960=ADVANCED_FACE('',(#842,#843),#22,.F.);
#961=ADVANCED_FACE('',(#844,#845),#23,.F.);
#962=ADVANCED_FACE('',(#846,#847),#24,.F.);
#963=ADVANCED_FACE('',(#848,#849),#25,.F.);
#964=ADVANCED_FACE('',(#850,#851),#26,.T.);
#965=ADVANCED_FACE('',(#852,#853),#936,.T.);
#966=ADVANCED_FACE('',(#854,#855),#27,.T.);
#967=ADVANCED_FACE('',(#856,#857),#937,.T.);
#968=ADVANCED_FACE('',(#858,#859),#28,.T.);
#969=ADVANCED_FACE('',(#860,#861),#938,.T.);
#970=ADVANCED_FACE('',(#862,#863),#29,.T.);
#971=ADVANCED_FACE('',(#864,#865),#939,.T.);
#972=ADVANCED_FACE('',(#866,#867),#30,.F.);
#973=ADVANCED_FACE('',(#868,#869),#31,.F.);
#974=ADVANCED_FACE('',(#870,#871),#32,.F.);
#975=ADVANCED_FACE('',(#872,#873),#33,.F.);
#976=ADVANCED_FACE('',(#874,#875),#34,.F.);
#977=ADVANCED_FACE('',(#876,#877),#35,.F.);
#978=ADVANCED_FACE('',(#878,#879),#36,.F.);
#979=ADVANCED_FACE('',(#880,#881),#37,.F.);
#980=ADVANCED_FACE('',(#882,#883),#38,.F.);
#981=ADVANCED_FACE('',(#884,#885),#39,.F.);
#982=ADVANCED_FACE('',(#886,#887),#40,.F.);
#983=ADVANCED_FACE('',(#888,#889),#41,.F.);
#984=ADVANCED_FACE('',(#890,#891),#42,.F.);
#985=ADVANCED_FACE('',(#892,#893),#43,.F.);
#986=ADVANCED_FACE('',(#894,#895),#44,.F.);
#987=ADVANCED_FACE('',(#896,#897),#45,.F.);
#988=ADVANCED_FACE('',(#898,#899),#46,.F.);
#989=ADVANCED_FACE('',(#900,#901),#47,.F.);
#990=ADVANCED_FACE('',(#902,#903),#12,.F.);
#991=ADVANCED_FACE('',(#904,#905),#13,.F.);
#992=ADVANCED_FACE('',(#906,#907),#14,.F.);
#993=ADVANCED_FACE('',(#908,#909),#15,.F.);
#994=ADVANCED_FACE('',(#910,#911),#16,.F.);
#995=ADVANCED_FACE('',(#912,#913),#17,.F.);
#996=ADVANCED_FACE('',(#914,#915),#18,.F.);
#997=ADVANCED_FACE('',(#916,#917),#19,.F.);
#998=CLOSED_SHELL('',(#940,#941,#942,#943,#944,#945,#946,#947,#948,#949,
#950,#951,#952,#953,#954,#955,#956,#957,#958,#959,#960,#961,#962,#963,#964,
#965,#966,#967,#968,#969,#970,#971,#972,#973,#974,#975,#976,#977,#978,#979,
#980,#981,#982,#983,#984,#985,#986,#987,#988,#989,#990,#991,#992,#993,#994,
#995,#996,#997));
#999=STYLED_ITEM('',(#1000),#1007);
#1000=PRESENTATION_STYLE_ASSIGNMENT((#1001));
#1001=SURFACE_STYLE_USAGE(.BOTH.,#1002);
#1002=SURFACE_SIDE_STYLE('',(#1003));
#1003=SURFACE_STYLE_FILL_AREA(#1004);
#1004=FILL_AREA_STYLE('',(#1005));
#1005=FILL_AREA_STYLE_COLOUR('',#1006);
#1006=COLOUR_RGB('',0.0431372549019608,0.215686274509804,0.403921568627451);
#1007=MANIFOLD_SOLID_BREP('Bottom',#998);
#1008=SHAPE_DEFINITION_REPRESENTATION(#1698,#1009);
#1009=SHAPE_REPRESENTATION('Bottom',(#1010),#1693);
#1010=AXIS2_PLACEMENT_3D('',#1427,#1133,#1134);
#1011=AXIS2_PLACEMENT_3D('',#1428,#1135,#1136);
#1012=AXIS2_PLACEMENT_3D('',#1429,#1137,#1138);
#1013=AXIS2_PLACEMENT_3D('',#1431,#1139,#1140);
#1014=AXIS2_PLACEMENT_3D('',#1433,#1141,#1142);
#1015=AXIS2_PLACEMENT_3D('',#1435,#1143,#1144);
#1016=AXIS2_PLACEMENT_3D('',#1437,#1145,#1146);
#1017=AXIS2_PLACEMENT_3D('',#1439,#1147,#1148);
#1018=AXIS2_PLACEMENT_3D('',#1441,#1149,#1150);
#1019=AXIS2_PLACEMENT_3D('',#1443,#1151,#1152);
#1020=AXIS2_PLACEMENT_3D('',#1445,#1153,#1154);
#1021=AXIS2_PLACEMENT_3D('',#1455,#1159,#1160);
#1022=AXIS2_PLACEMENT_3D('',#1457,#1161,#1162);
#1023=AXIS2_PLACEMENT_3D('',#1459,#1163,#1164);
#1024=AXIS2_PLACEMENT_3D('',#1461,#1165,#1166);
#1025=AXIS2_PLACEMENT_3D('',#1463,#1167,#1168);
#1026=AXIS2_PLACEMENT_3D('',#1465,#1169,#1170);
#1027=AXIS2_PLACEMENT_3D('',#1472,#1174,#1175);
#1028=AXIS2_PLACEMENT_3D('',#1479,#1179,#1180);
#1029=AXIS2_PLACEMENT_3D('',#1488,#1185,#1186);
#1030=AXIS2_PLACEMENT_3D('',#1493,#1189,#1190);
#1031=AXIS2_PLACEMENT_3D('',#1495,#1192,#1193);
#1032=AXIS2_PLACEMENT_3D('',#1497,#1194,#1195);
#1033=AXIS2_PLACEMENT_3D('',#1499,#1196,#1197);
#1034=AXIS2_PLACEMENT_3D('',#1501,#1198,#1199);
#1035=AXIS2_PLACEMENT_3D('',#1503,#1200,#1201);
#1036=AXIS2_PLACEMENT_3D('',#1513,#1206,#1207);
#1037=AXIS2_PLACEMENT_3D('',#1514,#1208,#1209);
#1038=AXIS2_PLACEMENT_3D('',#1515,#1210,#1211);
#1039=AXIS2_PLACEMENT_3D('',#1517,#1212,#1213);
#1040=AXIS2_PLACEMENT_3D('',#1519,#1214,#1215);
#1041=AXIS2_PLACEMENT_3D('',#1521,#1216,#1217);
#1042=AXIS2_PLACEMENT_3D('',#1528,#1221,#1222);
#1043=AXIS2_PLACEMENT_3D('',#1529,#1223,#1224);
#1044=AXIS2_PLACEMENT_3D('',#1531,#1225,#1226);
#1045=AXIS2_PLACEMENT_3D('',#1533,#1227,#1228);
#1046=AXIS2_PLACEMENT_3D('',#1535,#1229,#1230);
#1047=AXIS2_PLACEMENT_3D('',#1537,#1231,#1232);
#1048=AXIS2_PLACEMENT_3D('',#1539,#1233,#1234);
#1049=AXIS2_PLACEMENT_3D('',#1541,#1235,#1236);
#1050=AXIS2_PLACEMENT_3D('',#1543,#1237,#1238);
#1051=AXIS2_PLACEMENT_3D('',#1545,#1239,#1240);
#1052=AXIS2_PLACEMENT_3D('',#1547,#1241,#1242);
#1053=AXIS2_PLACEMENT_3D('',#1549,#1243,#1244);
#1054=AXIS2_PLACEMENT_3D('',#1551,#1245,#1246);
#1055=AXIS2_PLACEMENT_3D('',#1553,#1247,#1248);
#1056=AXIS2_PLACEMENT_3D('',#1555,#1249,#1250);
#1057=AXIS2_PLACEMENT_3D('',#1560,#1253,#1254);
#1058=AXIS2_PLACEMENT_3D('',#1565,#1258,#1259);
#1059=AXIS2_PLACEMENT_3D('',#1566,#1260,#1261);
#1060=AXIS2_PLACEMENT_3D('',#1569,#1263,#1264);
#1061=AXIS2_PLACEMENT_3D('',#1570,#1265,#1266);
#1062=AXIS2_PLACEMENT_3D('',#1572,#1267,#1268);
#1063=AXIS2_PLACEMENT_3D('',#1574,#1269,#1270);
#1064=AXIS2_PLACEMENT_3D('',#1576,#1271,#1272);
#1065=AXIS2_PLACEMENT_3D('',#1590,#1281,#1282);
#1066=AXIS2_PLACEMENT_3D('',#1591,#1283,#1284);
#1067=AXIS2_PLACEMENT_3D('',#1592,#1285,#1286);
#1068=AXIS2_PLACEMENT_3D('',#1596,#1289,#1290);
#1069=AXIS2_PLACEMENT_3D('',#1600,#1293,#1294);
#1070=AXIS2_PLACEMENT_3D('',#1601,#1295,#1296);
#1071=AXIS2_PLACEMENT_3D('',#1603,#1297,#1298);
#1072=AXIS2_PLACEMENT_3D('',#1606,#1300,#1301);
#1073=AXIS2_PLACEMENT_3D('',#1607,#1302,#1303);
#1074=AXIS2_PLACEMENT_3D('',#1611,#1306,#1307);
#1075=AXIS2_PLACEMENT_3D('',#1615,#1310,#1311);
#1076=AXIS2_PLACEMENT_3D('',#1616,#1312,#1313);
#1077=AXIS2_PLACEMENT_3D('',#1618,#1314,#1315);
#1078=AXIS2_PLACEMENT_3D('',#1621,#1317,#1318);
#1079=AXIS2_PLACEMENT_3D('',#1622,#1319,#1320);
#1080=AXIS2_PLACEMENT_3D('',#1623,#1321,#1322);
#1081=AXIS2_PLACEMENT_3D('',#1625,#1323,#1324);
#1082=AXIS2_PLACEMENT_3D('',#1626,#1325,#1326);
#1083=AXIS2_PLACEMENT_3D('',#1628,#1327,#1328);
#1084=AXIS2_PLACEMENT_3D('',#1629,#1329,#1330);
#1085=AXIS2_PLACEMENT_3D('',#1631,#1331,#1332);
#1086=AXIS2_PLACEMENT_3D('',#1632,#1333,#1334);
#1087=AXIS2_PLACEMENT_3D('',#1634,#1335,#1336);
#1088=AXIS2_PLACEMENT_3D('',#1635,#1337,#1338);
#1089=AXIS2_PLACEMENT_3D('',#1637,#1339,#1340);
#1090=AXIS2_PLACEMENT_3D('',#1638,#1341,#1342);
#1091=AXIS2_PLACEMENT_3D('',#1640,#1343,#1344);
#1092=AXIS2_PLACEMENT_3D('',#1641,#1345,#1346);
#1093=AXIS2_PLACEMENT_3D('',#1643,#1347,#1348);
#1094=AXIS2_PLACEMENT_3D('',#1644,#1349,#1350);
#1095=AXIS2_PLACEMENT_3D('',#1646,#1351,#1352);
#1096=AXIS2_PLACEMENT_3D('',#1647,#1353,#1354);
#1097=AXIS2_PLACEMENT_3D('',#1649,#1355,#1356);
#1098=AXIS2_PLACEMENT_3D('',#1650,#1357,#1358);
#1099=AXIS2_PLACEMENT_3D('',#1652,#1359,#1360);
#1100=AXIS2_PLACEMENT_3D('',#1653,#1361,#1362);
#1101=AXIS2_PLACEMENT_3D('',#1655,#1363,#1364);
#1102=AXIS2_PLACEMENT_3D('',#1656,#1365,#1366);
#1103=AXIS2_PLACEMENT_3D('',#1658,#1367,#1368);
#1104=AXIS2_PLACEMENT_3D('',#1659,#1369,#1370);
#1105=AXIS2_PLACEMENT_3D('',#1661,#1371,#1372);
#1106=AXIS2_PLACEMENT_3D('',#1662,#1373,#1374);
#1107=AXIS2_PLACEMENT_3D('',#1664,#1375,#1376);
#1108=AXIS2_PLACEMENT_3D('',#1665,#1377,#1378);
#1109=AXIS2_PLACEMENT_3D('',#1667,#1379,#1380);
#1110=AXIS2_PLACEMENT_3D('',#1668,#1381,#1382);
#1111=AXIS2_PLACEMENT_3D('',#1670,#1383,#1384);
#1112=AXIS2_PLACEMENT_3D('',#1671,#1385,#1386);
#1113=AXIS2_PLACEMENT_3D('',#1672,#1387,#1388);
#1114=AXIS2_PLACEMENT_3D('',#1673,#1389,#1390);
#1115=AXIS2_PLACEMENT_3D('',#1674,#1391,#1392);
#1116=AXIS2_PLACEMENT_3D('',#1675,#1393,#1394);
#1117=AXIS2_PLACEMENT_3D('',#1676,#1395,#1396);
#1118=AXIS2_PLACEMENT_3D('',#1677,#1397,#1398);
#1119=AXIS2_PLACEMENT_3D('',#1678,#1399,#1400);
#1120=AXIS2_PLACEMENT_3D('',#1679,#1401,#1402);
#1121=AXIS2_PLACEMENT_3D('',#1680,#1403,#1404);
#1122=AXIS2_PLACEMENT_3D('',#1681,#1405,#1406);
#1123=AXIS2_PLACEMENT_3D('',#1682,#1407,#1408);
#1124=AXIS2_PLACEMENT_3D('',#1683,#1409,#1410);
#1125=AXIS2_PLACEMENT_3D('',#1684,#1411,#1412);
#1126=AXIS2_PLACEMENT_3D('',#1685,#1413,#1414);
#1127=AXIS2_PLACEMENT_3D('',#1686,#1415,#1416);
#1128=AXIS2_PLACEMENT_3D('',#1687,#1417,#1418);
#1129=AXIS2_PLACEMENT_3D('',#1688,#1419,#1420);
#1130=AXIS2_PLACEMENT_3D('',#1689,#1421,#1422);
#1131=AXIS2_PLACEMENT_3D('',#1690,#1423,#1424);
#1132=AXIS2_PLACEMENT_3D('',#1691,#1425,#1426);
#1133=DIRECTION('',(0.,0.,1.));
#1134=DIRECTION('',(1.,0.,0.));
#1135=DIRECTION('',(1.37021771582839E-16,-1.,-5.07173475416235E-16));
#1136=DIRECTION('',(0.,5.07173475416235E-16,-1.));
#1137=DIRECTION('',(1.37021771582839E-16,-1.,-5.07173475416235E-16));
#1138=DIRECTION('',(0.,5.07173475416235E-16,-1.));
#1139=DIRECTION('',(1.37021771582839E-16,-1.,-5.07173475416235E-16));
#1140=DIRECTION('',(0.,5.07173475416235E-16,-1.));
#1141=DIRECTION('',(1.37021771582839E-16,-1.,-5.07173475416235E-16));
#1142=DIRECTION('',(0.,5.07173475416235E-16,-1.));
#1143=DIRECTION('',(1.37021771582839E-16,-1.,-5.07173475416235E-16));
#1144=DIRECTION('',(0.,5.07173475416235E-16,-1.));
#1145=DIRECTION('',(1.37021771582839E-16,-1.,-5.07173475416235E-16));
#1146=DIRECTION('',(0.,5.07173475416235E-16,-1.));
#1147=DIRECTION('',(1.37021771582839E-16,-1.,-5.07173475416235E-16));
#1148=DIRECTION('',(0.,5.07173475416235E-16,-1.));
#1149=DIRECTION('',(1.37021771582839E-16,-1.,-5.07173475416235E-16));
#1150=DIRECTION('',(0.,5.07173475416235E-16,-1.));
#1151=DIRECTION('',(1.37021771582839E-16,-1.,-5.07173475416235E-16));
#1152=DIRECTION('',(0.,5.07173475416235E-16,-1.));
#1153=DIRECTION('',(1.37021771582839E-16,-1.,-5.07173475416235E-16));
#1154=DIRECTION('',(0.,5.07173475416235E-16,-1.));
#1155=DIRECTION('',(-6.94938081013579E-32,5.07173475416235E-16,-1.));
#1156=DIRECTION('',(-1.,-1.37021771582839E-16,1.48308955367211E-32));
#1157=DIRECTION('',(6.94938081013579E-32,-5.07173475416235E-16,1.));
#1158=DIRECTION('',(1.,1.37021771582839E-16,0.));
#1159=DIRECTION('',(1.37021771582839E-16,-1.,-5.07173475416235E-16));
#1160=DIRECTION('',(0.,5.07173475416235E-16,-1.));
#1161=DIRECTION('',(1.37021771582839E-16,-1.,-5.07173475416235E-16));
#1162=DIRECTION('',(0.,5.07173475416235E-16,-1.));
#1163=DIRECTION('',(1.37021771582839E-16,-1.,-5.07173475416235E-16));
#1164=DIRECTION('',(0.,5.07173475416235E-16,-1.));
#1165=DIRECTION('',(1.37021771582839E-16,-1.,-5.07173475416235E-16));
#1166=DIRECTION('',(0.,5.07173475416235E-16,-1.));
#1167=DIRECTION('',(1.37021771582839E-16,-1.,-5.07173475416235E-16));
#1168=DIRECTION('',(0.,5.07173475416235E-16,-1.));
#1169=DIRECTION('',(1.,1.37021771582839E-16,0.));
#1170=DIRECTION('',(-1.37021771582839E-16,1.,0.));
#1171=DIRECTION('',(1.37021771582839E-16,-1.,0.));
#1172=DIRECTION('',(1.37021771582839E-16,-1.,-1.27321475122214E-16));
#1173=DIRECTION('',(0.,0.,1.));
#1174=DIRECTION('',(1.,1.37021771582839E-16,0.));
#1175=DIRECTION('',(-1.37021771582839E-16,1.,0.));
#1176=DIRECTION('',(0.,0.,-1.));
#1177=DIRECTION('',(-1.37021771582839E-16,1.,0.));
#1178=DIRECTION('',(0.,0.,1.));
#1179=DIRECTION('',(1.,1.37021771582839E-16,0.));
#1180=DIRECTION('',(-1.37021771582839E-16,1.,0.));
#1181=DIRECTION('',(1.37021771582839E-16,-1.,0.));
#1182=DIRECTION('',(0.,0.,1.));
#1183=DIRECTION('',(-1.37021771582839E-16,1.,0.));
#1184=DIRECTION('',(0.,0.,-1.));
#1185=DIRECTION('',(1.,1.37021771582839E-16,0.));
#1186=DIRECTION('',(-1.37021771582839E-16,1.,0.));
#1187=DIRECTION('',(0.,0.,1.));
#1188=DIRECTION('',(1.37021771582839E-16,-1.,-1.27321475122214E-16));
#1189=DIRECTION('',(1.74458140817861E-32,-1.27321475122214E-16,1.));
#1190=DIRECTION('',(0.,-1.,-1.27321475122214E-16));
#1191=DIRECTION('',(1.,1.37021771582839E-16,0.));
#1192=DIRECTION('',(1.74458140817861E-32,-1.27321475122214E-16,1.));
#1193=DIRECTION('',(0.,-1.,-1.27321475122214E-16));
#1194=DIRECTION('',(1.74458140817861E-32,-1.27321475122214E-16,1.));
#1195=DIRECTION('',(0.,-1.,-1.27321475122214E-16));
#1196=DIRECTION('',(1.74458140817861E-32,-1.27321475122214E-16,1.));
#1197=DIRECTION('',(0.,-1.,-1.27321475122214E-16));
#1198=DIRECTION('',(1.74458140817861E-32,-1.27321475122214E-16,1.));
#1199=DIRECTION('',(0.,-1.,-1.27321475122214E-16));
#1200=DIRECTION('',(1.,1.37021771582839E-16,0.));
#1201=DIRECTION('',(-1.37021771582839E-16,1.,0.));
#1202=DIRECTION('',(2.37694883884682E-31,-1.73472347597681E-15,1.));
#1203=DIRECTION('',(1.37021771582839E-16,-1.,-1.2009162173602E-16));
#1204=DIRECTION('',(2.37694883884682E-31,-1.73472347597681E-15,1.));
#1205=DIRECTION('',(1.37021771582839E-16,-1.,0.));
#1206=DIRECTION('',(1.,1.37021771582839E-16,0.));
#1207=DIRECTION('',(-1.37021771582839E-16,1.,0.));
#1208=DIRECTION('',(1.64551667625256E-32,-1.2009162173602E-16,1.));
#1209=DIRECTION('',(0.,-1.,-1.2009162173602E-16));
#1210=DIRECTION('',(1.64551667625256E-32,-1.2009162173602E-16,1.));
#1211=DIRECTION('',(0.,-1.,-1.2009162173602E-16));
#1212=DIRECTION('',(1.64551667625256E-32,-1.2009162173602E-16,1.));
#1213=DIRECTION('',(0.,-1.,-1.2009162173602E-16));
#1214=DIRECTION('',(1.64551667625256E-32,-1.2009162173602E-16,1.));
#1215=DIRECTION('',(0.,-1.,-1.2009162173602E-16));
#1216=DIRECTION('',(1.64551667625256E-32,-1.2009162173602E-16,1.));
#1217=DIRECTION('',(0.,-1.,-1.2009162173602E-16));
#1218=DIRECTION('',(1.,1.37021771582839E-16,0.));
#1219=DIRECTION('',(1.37021771582839E-16,-1.,-1.2009162173602E-16));
#1220=DIRECTION('',(1.,1.37021771582839E-16,0.));
#1221=DIRECTION('',(-1.37021771582839E-16,1.,1.73472347597681E-15));
#1222=DIRECTION('',(0.,-1.73472347597681E-15,1.));
#1223=DIRECTION('',(-1.37021771582839E-16,1.,1.73472347597681E-15));
#1224=DIRECTION('',(0.,-1.73472347597681E-15,1.));
#1225=DIRECTION('',(-1.37021771582839E-16,1.,1.73472347597681E-15));
#1226=DIRECTION('',(0.,-1.73472347597681E-15,1.));
#1227=DIRECTION('',(-1.37021771582839E-16,1.,1.73472347597681E-15));
#1228=DIRECTION('',(0.,-1.73472347597681E-15,1.));
#1229=DIRECTION('',(-1.37021771582839E-16,1.,1.73472347597681E-15));
#1230=DIRECTION('',(0.,-1.73472347597681E-15,1.));
#1231=DIRECTION('',(-1.37021771582839E-16,1.,1.73472347597681E-15));
#1232=DIRECTION('',(0.,-1.73472347597681E-15,1.));
#1233=DIRECTION('',(-1.37021771582839E-16,1.,1.73472347597681E-15));
#1234=DIRECTION('',(0.,-1.73472347597681E-15,1.));
#1235=DIRECTION('',(-1.37021771582839E-16,1.,1.73472347597681E-15));
#1236=DIRECTION('',(0.,-1.73472347597681E-15,1.));
#1237=DIRECTION('',(-1.37021771582839E-16,1.,1.73472347597681E-15));
#1238=DIRECTION('',(0.,-1.73472347597681E-15,1.));
#1239=DIRECTION('',(-1.37021771582839E-16,1.,1.73472347597681E-15));
#1240=DIRECTION('',(0.,-1.73472347597681E-15,1.));
#1241=DIRECTION('',(-1.37021771582839E-16,1.,1.73472347597681E-15));
#1242=DIRECTION('',(0.,-1.73472347597681E-15,1.));
#1243=DIRECTION('',(-1.37021771582839E-16,1.,1.73472347597681E-15));
#1244=DIRECTION('',(0.,-1.73472347597681E-15,1.));
#1245=DIRECTION('',(-1.37021771582839E-16,1.,1.73472347597681E-15));
#1246=DIRECTION('',(0.,-1.73472347597681E-15,1.));
#1247=DIRECTION('',(-1.37021771582839E-16,1.,1.73472347597681E-15));
#1248=DIRECTION('',(0.,-1.73472347597681E-15,1.));
#1249=DIRECTION('',(-1.37021771582839E-16,1.,1.73472347597681E-15));
#1250=DIRECTION('',(0.,-1.73472347597681E-15,1.));
#1251=DIRECTION('',(2.37694883884682E-31,-1.73472347597681E-15,1.));
#1252=DIRECTION('',(-1.,-1.37021771582839E-16,0.));
#1253=DIRECTION('',(-1.37021771582839E-16,1.,1.73472347597681E-15));
#1254=DIRECTION('',(0.,-1.73472347597681E-15,1.));
#1255=DIRECTION('',(-1.,-1.37021771582839E-16,0.));
#1256=DIRECTION('',(2.37694883884682E-31,-1.73472347597681E-15,1.));
#1257=DIRECTION('',(-1.,-1.37021771582839E-16,0.));
#1258=DIRECTION('',(-1.,-1.37021771582839E-16,0.));
#1259=DIRECTION('',(1.37021771582839E-16,-1.,0.));
#1260=DIRECTION('',(1.,1.37021771582839E-16,0.));
#1261=DIRECTION('',(-1.37021771582839E-16,1.,0.));
#1262=DIRECTION('',(1.37021771582839E-16,-1.,0.));
#1263=DIRECTION('',(0.,0.,-1.));
#1264=DIRECTION('',(-1.,0.,0.));
#1265=DIRECTION('',(0.,0.,-1.));
#1266=DIRECTION('',(-1.,0.,0.));
#1267=DIRECTION('',(0.,0.,-1.));
#1268=DIRECTION('',(-1.,0.,0.));
#1269=DIRECTION('',(0.,0.,-1.));
#1270=DIRECTION('',(-1.,0.,0.));
#1271=DIRECTION('',(0.,0.,-1.));
#1272=DIRECTION('',(-1.,0.,0.));
#1273=DIRECTION('',(-1.,-1.37021771582839E-16,0.));
#1274=DIRECTION('',(-1.,-1.37021771582839E-16,0.));
#1275=DIRECTION('',(1.37021771582839E-16,-1.,-1.17161568660316E-16));
#1276=DIRECTION('',(-1.,-1.37021771582839E-16,0.));
#1277=DIRECTION('',(1.,1.37021771582839E-16,0.));
#1278=DIRECTION('',(1.37021771582839E-16,-1.,-1.17161568660316E-16));
#1279=DIRECTION('',(1.,1.37021771582839E-16,0.));
#1280=DIRECTION('',(-1.,-1.37021771582839E-16,0.));
#1281=DIRECTION('',(-1.,-1.37021771582839E-16,0.));
#1282=DIRECTION('',(1.37021771582839E-16,-1.,0.));
#1283=DIRECTION('',(-1.,-1.37021771582839E-16,0.));
#1284=DIRECTION('',(1.37021771582839E-16,-1.,0.));
#1285=DIRECTION('',(-1.37021771582839E-16,1.,0.));
#1286=DIRECTION('',(-1.,-1.37021771582839E-16,0.));
#1287=DIRECTION('',(1.,1.37021771582839E-16,0.));
#1288=DIRECTION('',(0.,0.,1.));
#1289=DIRECTION('',(1.37021771582839E-16,-1.,0.));
#1290=DIRECTION('',(1.,1.37021771582839E-16,0.));
#1291=DIRECTION('',(0.,0.,-1.));
#1292=DIRECTION('',(1.,1.37021771582839E-16,0.));
#1293=DIRECTION('',(0.,0.,-1.));
#1294=DIRECTION('',(-1.,0.,0.));
#1295=DIRECTION('',(0.,0.,-1.));
#1296=DIRECTION('',(-1.,0.,0.));
#1297=DIRECTION('',(0.,0.,-1.));
#1298=DIRECTION('',(-1.,0.,0.));
#1299=DIRECTION('',(-1.37021771582839E-16,1.,0.));
#1300=DIRECTION('',(1.,1.37021771582839E-16,0.));
#1301=DIRECTION('',(-1.37021771582839E-16,1.,0.));
#1302=DIRECTION('',(1.37021771582839E-16,-1.,0.));
#1303=DIRECTION('',(1.,1.37021771582839E-16,0.));
#1304=DIRECTION('',(0.,0.,1.));
#1305=DIRECTION('',(-1.,-1.37021771582839E-16,0.));
#1306=DIRECTION('',(-1.37021771582839E-16,1.,0.));
#1307=DIRECTION('',(-1.,-1.37021771582839E-16,0.));
#1308=DIRECTION('',(-1.,-1.37021771582839E-16,0.));
#1309=DIRECTION('',(0.,0.,-1.));
#1310=DIRECTION('',(0.,0.,1.));
#1311=DIRECTION('',(1.,0.,0.));
#1312=DIRECTION('',(0.,0.,-1.));
#1313=DIRECTION('',(-1.,0.,0.));
#1314=DIRECTION('',(0.,0.,-1.));
#1315=DIRECTION('',(-1.,0.,0.));
#1316=DIRECTION('',(-1.37021771582839E-16,1.,0.));
#1317=DIRECTION('',(1.,1.37021771582839E-16,0.));
#1318=DIRECTION('',(-1.37021771582839E-16,1.,0.));
#1319=DIRECTION('',(1.74458140817861E-32,-1.27321475122214E-16,1.));
#1320=DIRECTION('',(0.,-1.,-1.27321475122214E-16));
#1321=DIRECTION('',(0.,0.,1.));
#1322=DIRECTION('',(1.,0.,0.));
#1323=DIRECTION('',(1.74458140817861E-32,-1.27321475122214E-16,1.));
#1324=DIRECTION('',(0.,-1.,-1.27321475122214E-16));
#1325=DIRECTION('',(0.,0.,1.));
#1326=DIRECTION('',(1.,0.,0.));
#1327=DIRECTION('',(1.74458140817861E-32,-1.27321475122214E-16,1.));
#1328=DIRECTION('',(0.,-1.,-1.27321475122214E-16));
#1329=DIRECTION('',(0.,-1.15648231731787E-15,1.));
#1330=DIRECTION('',(0.,-1.,-1.15648231731787E-15));
#1331=DIRECTION('',(1.74458140817861E-32,-1.27321475122214E-16,1.));
#1332=DIRECTION('',(0.,-1.,-1.27321475122214E-16));
#1333=DIRECTION('',(0.,0.,1.));
#1334=DIRECTION('',(1.,0.,0.));
#1335=DIRECTION('',(-1.74458140817861E-32,1.27321475122214E-16,-1.));
#1336=DIRECTION('',(0.,1.,1.27321475122214E-16));
#1337=DIRECTION('',(1.74458140817861E-32,-1.27321475122214E-16,1.));
#1338=DIRECTION('',(0.,-1.,-1.27321475122214E-16));
#1339=DIRECTION('',(1.74458140817861E-32,-1.27321475122214E-16,1.));
#1340=DIRECTION('',(1.,2.22122678360091E-48,-1.74458140817861E-32));
#1341=DIRECTION('',(1.74458140817861E-32,-1.27321475122214E-16,1.));
#1342=DIRECTION('',(0.,-1.,-1.27321475122214E-16));
#1343=DIRECTION('',(-1.74458140817861E-32,1.27321475122214E-16,-1.));
#1344=DIRECTION('',(0.,1.,1.27321475122214E-16));
#1345=DIRECTION('',(1.74458140817861E-32,-1.27321475122214E-16,1.));
#1346=DIRECTION('',(0.,-1.,-1.27321475122214E-16));
#1347=DIRECTION('',(1.74458140817861E-32,-1.27321475122214E-16,1.));
#1348=DIRECTION('',(1.,2.22122678360091E-48,-1.74458140817861E-32));
#1349=DIRECTION('',(1.74458140817861E-32,-1.27321475122214E-16,1.));
#1350=DIRECTION('',(0.,-1.,-1.27321475122214E-16));
#1351=DIRECTION('',(-1.74458140817861E-32,1.27321475122214E-16,-1.));
#1352=DIRECTION('',(0.,1.,1.27321475122214E-16));
#1353=DIRECTION('',(1.74458140817861E-32,-1.27321475122214E-16,1.));
#1354=DIRECTION('',(0.,-1.,-1.27321475122214E-16));
#1355=DIRECTION('',(1.74458140817861E-32,-1.27321475122214E-16,1.));
#1356=DIRECTION('',(1.,2.22122678360091E-48,-1.74458140817861E-32));
#1357=DIRECTION('',(1.74458140817861E-32,-1.27321475122214E-16,1.));
#1358=DIRECTION('',(0.,-1.,-1.27321475122214E-16));
#1359=DIRECTION('',(-1.74458140817861E-32,1.27321475122214E-16,-1.));
#1360=DIRECTION('',(0.,1.,1.27321475122214E-16));
#1361=DIRECTION('',(1.74458140817861E-32,-1.27321475122214E-16,1.));
#1362=DIRECTION('',(0.,-1.,-1.27321475122214E-16));
#1363=DIRECTION('',(1.74458140817861E-32,-1.27321475122214E-16,1.));
#1364=DIRECTION('',(1.,2.22122678360091E-48,-1.74458140817861E-32));
#1365=DIRECTION('',(1.74458140817861E-32,-1.27321475122214E-16,1.));
#1366=DIRECTION('',(0.,-1.,-1.27321475122214E-16));
#1367=DIRECTION('',(0.,0.,1.));
#1368=DIRECTION('',(1.,0.,0.));
#1369=DIRECTION('',(0.,0.,-1.));
#1370=DIRECTION('',(-1.,0.,0.));
#1371=DIRECTION('',(0.,0.,1.));
#1372=DIRECTION('',(1.,0.,0.));
#1373=DIRECTION('',(0.,0.,-1.));
#1374=DIRECTION('',(-1.,0.,0.));
#1375=DIRECTION('',(0.,0.,1.));
#1376=DIRECTION('',(1.,0.,0.));
#1377=DIRECTION('',(0.,0.,-1.));
#1378=DIRECTION('',(-1.,0.,0.));
#1379=DIRECTION('',(0.,0.,1.));
#1380=DIRECTION('',(1.,0.,0.));
#1381=DIRECTION('',(0.,0.,-1.));
#1382=DIRECTION('',(-1.,0.,0.));
#1383=DIRECTION('',(-1.37021771582839E-16,1.,1.73472347597681E-15));
#1384=DIRECTION('',(0.,-1.73472347597681E-15,1.));
#1385=DIRECTION('',(-1.37021771582839E-16,1.,1.73472347597681E-15));
#1386=DIRECTION('',(0.,-1.73472347597681E-15,1.));
#1387=DIRECTION('',(-1.37021771582839E-16,1.,1.73472347597681E-15));
#1388=DIRECTION('',(0.,-1.73472347597681E-15,1.));
#1389=DIRECTION('',(-1.37021771582839E-16,1.,1.73472347597681E-15));
#1390=DIRECTION('',(0.,-1.73472347597681E-15,1.));
#1391=DIRECTION('',(-1.37021771582839E-16,1.,1.73472347597681E-15));
#1392=DIRECTION('',(0.,-1.73472347597681E-15,1.));
#1393=DIRECTION('',(-1.37021771582839E-16,1.,1.73472347597681E-15));
#1394=DIRECTION('',(0.,-1.73472347597681E-15,1.));
#1395=DIRECTION('',(-1.37021771582839E-16,1.,1.73472347597681E-15));
#1396=DIRECTION('',(0.,-1.73472347597681E-15,1.));
#1397=DIRECTION('',(-1.37021771582839E-16,1.,1.73472347597681E-15));
#1398=DIRECTION('',(0.,-1.73472347597681E-15,1.));
#1399=DIRECTION('',(-1.37021771582839E-16,1.,1.73472347597681E-15));
#1400=DIRECTION('',(0.,-1.73472347597681E-15,1.));
#1401=DIRECTION('',(-1.37021771582839E-16,1.,1.73472347597681E-15));
#1402=DIRECTION('',(0.,-1.73472347597681E-15,1.));
#1403=DIRECTION('',(-1.37021771582839E-16,1.,1.73472347597681E-15));
#1404=DIRECTION('',(0.,-1.73472347597681E-15,1.));
#1405=DIRECTION('',(-1.37021771582839E-16,1.,1.73472347597681E-15));
#1406=DIRECTION('',(0.,-1.73472347597681E-15,1.));
#1407=DIRECTION('',(-1.37021771582839E-16,1.,1.73472347597681E-15));
#1408=DIRECTION('',(0.,-1.73472347597681E-15,1.));
#1409=DIRECTION('',(-1.37021771582839E-16,1.,1.73472347597681E-15));
#1410=DIRECTION('',(0.,-1.73472347597681E-15,1.));
#1411=DIRECTION('',(0.,0.,1.));
#1412=DIRECTION('',(1.,0.,0.));
#1413=DIRECTION('',(0.,0.,1.));
#1414=DIRECTION('',(1.,0.,0.));
#1415=DIRECTION('',(0.,0.,1.));
#1416=DIRECTION('',(1.,0.,0.));
#1417=DIRECTION('',(0.,0.,1.));
#1418=DIRECTION('',(1.,0.,0.));
#1419=DIRECTION('',(0.,0.,1.));
#1420=DIRECTION('',(1.,0.,0.));
#1421=DIRECTION('',(0.,0.,1.));
#1422=DIRECTION('',(1.,0.,0.));
#1423=DIRECTION('',(0.,-1.15648231731787E-15,1.));
#1424=DIRECTION('',(0.,-1.,-1.15648231731787E-15));
#1425=DIRECTION('',(0.,0.,1.));
#1426=DIRECTION('',(1.,0.,0.));
#1427=CARTESIAN_POINT('',(0.,0.,0.));
#1428=CARTESIAN_POINT('',(-0.071502,0.035125,0.0136815));
#1429=CARTESIAN_POINT('',(0.017,0.035125,0.0114453));
#1430=CARTESIAN_POINT('',(0.017,0.035125,0.0064453));
#1431=CARTESIAN_POINT('',(-0.004,0.035125,0.0114453));
#1432=CARTESIAN_POINT('',(-0.004,0.035125,0.0064453));
#1433=CARTESIAN_POINT('',(0.059,0.035125,0.0114453));
#1434=CARTESIAN_POINT('',(0.059,0.035125,0.0064453));
#1435=CARTESIAN_POINT('',(0.038,0.035125,0.0114453));
#1436=CARTESIAN_POINT('',(0.038,0.035125,0.0064453));
#1437=CARTESIAN_POINT('',(-0.0160084,0.035125,0.0182144));
#1438=CARTESIAN_POINT('',(-0.0160084,0.035125,0.0170206));
#1439=CARTESIAN_POINT('',(-0.025,0.035125,0.0114453));
#1440=CARTESIAN_POINT('',(-0.025,0.035125,0.0064453));
#1441=CARTESIAN_POINT('',(-0.048,0.035125,0.0111));
#1442=CARTESIAN_POINT('',(-0.048,0.035125,0.006475));
#1443=CARTESIAN_POINT('',(-0.06246,0.035125,0.0077));
#1444=CARTESIAN_POINT('',(-0.06246,0.035125,0.005575));
#1445=CARTESIAN_POINT('',(0.0679916,0.035125,0.0182144));
#1446=CARTESIAN_POINT('',(0.0679916,0.035125,0.0170206));
#1447=CARTESIAN_POINT('',(0.0715,0.035125,0.0136815));
#1448=CARTESIAN_POINT('',(0.0715,0.035125,0.033363));
#1449=CARTESIAN_POINT('',(0.0715,0.035125,4.85745362674231E-18));
#1450=CARTESIAN_POINT('',(-1.36037442646488E-17,0.035125,0.033363));
#1451=CARTESIAN_POINT('',(-0.0715,0.035125,0.033363));
#1452=CARTESIAN_POINT('',(-0.0715,0.035125,0.0136815));
#1453=CARTESIAN_POINT('',(-0.0715,0.035125,4.85745362674231E-18));
#1454=CARTESIAN_POINT('',(-0.071502,0.035125,4.85745362674231E-18));
#1455=CARTESIAN_POINT('',(0.059,0.035125,0.0249835));
#1456=CARTESIAN_POINT('',(0.059,0.035125,0.0199835));
#1457=CARTESIAN_POINT('',(0.017,0.035125,0.0249835));
#1458=CARTESIAN_POINT('',(0.017,0.035125,0.0199835));
#1459=CARTESIAN_POINT('',(0.038,0.035125,0.0249835));
#1460=CARTESIAN_POINT('',(0.038,0.035125,0.0199835));
#1461=CARTESIAN_POINT('',(-0.025,0.035125,0.0249835));
#1462=CARTESIAN_POINT('',(-0.025,0.035125,0.0199835));
#1463=CARTESIAN_POINT('',(-0.004,0.035125,0.0249835));
#1464=CARTESIAN_POINT('',(-0.004,0.035125,0.0199835));
#1465=CARTESIAN_POINT('',(0.0715,0.0010125,0.0146815));
#1466=CARTESIAN_POINT('',(0.0715,0.033125,0.033363));
#1467=CARTESIAN_POINT('',(0.0715,0.029125,0.033363));
#1468=CARTESIAN_POINT('',(0.0715,0.036125,4.98477510186453E-18));
#1469=CARTESIAN_POINT('',(0.0715,-0.0351,-3.46944695195361E-18));
#1470=CARTESIAN_POINT('',(0.0715,-0.0351,0.0141815));
#1471=CARTESIAN_POINT('',(0.0715,-0.0351,0.028363));
#1472=CARTESIAN_POINT('',(0.0715,-0.0301,0.028363));
#1473=CARTESIAN_POINT('',(0.0715,-0.0301,0.033363));
#1474=CARTESIAN_POINT('',(0.0715,-0.0301,0.030363));
#1475=CARTESIAN_POINT('',(0.0715,-0.0301,0.027363));
#1476=CARTESIAN_POINT('',(0.0715,-0.0004875,0.027363));
#1477=CARTESIAN_POINT('',(0.0715,0.029125,0.027363));
#1478=CARTESIAN_POINT('',(0.0715,0.029125,0.030363));
#1479=CARTESIAN_POINT('',(-0.0715,0.0010125,0.0146815));
#1480=CARTESIAN_POINT('',(-0.0715,0.033125,0.033363));
#1481=CARTESIAN_POINT('',(-0.0715,0.029125,0.033363));
#1482=CARTESIAN_POINT('',(-0.0715,0.029125,0.030363));
#1483=CARTESIAN_POINT('',(-0.0715,0.029125,0.027363));
#1484=CARTESIAN_POINT('',(-0.0715,-0.000487500000000015,0.027363));
#1485=CARTESIAN_POINT('',(-0.0715,-0.0301,0.027363));
#1486=CARTESIAN_POINT('',(-0.0715,-0.0301,0.030363));
#1487=CARTESIAN_POINT('',(-0.0715,-0.0301,0.033363));
#1488=CARTESIAN_POINT('',(-0.0715,-0.0301,0.028363));
#1489=CARTESIAN_POINT('',(-0.0715,-0.0351,0.028363));
#1490=CARTESIAN_POINT('',(-0.0715,-0.0351,0.0141815));
#1491=CARTESIAN_POINT('',(-0.0715,-0.0351,-3.46944695195361E-18));
#1492=CARTESIAN_POINT('',(-0.0715,0.036125,4.98477510186453E-18));
#1493=CARTESIAN_POINT('',(-0.199716605111729,0.036125,4.98477510186453E-18));
#1494=CARTESIAN_POINT('',(-0.199716605111729,-0.0351,-3.46944695195361E-18));
#1495=CARTESIAN_POINT('',(0.0575,0.0106,1.73489444937E-18));
#1496=CARTESIAN_POINT('',(0.0575,0.0066,1.22560854888115E-18));
#1497=CARTESIAN_POINT('',(-0.06,-0.0275,-3.11605375278636E-18));
#1498=CARTESIAN_POINT('',(-0.06,-0.0315,-3.62533965327522E-18));
#1499=CARTESIAN_POINT('',(-0.06,-0.0075,-5.69624250342075E-19));
#1500=CARTESIAN_POINT('',(-0.06,-0.0115,-1.07891015083093E-18));
#1501=CARTESIAN_POINT('',(0.06,-0.0275,-3.11605375278636E-18));
#1502=CARTESIAN_POINT('',(0.06,-0.0315,-3.62533965327522E-18));
#1503=CARTESIAN_POINT('',(0.0755,0.0010125,0.0146815));
#1504=CARTESIAN_POINT('',(0.0755,-0.0351,-0.002));
#1505=CARTESIAN_POINT('',(0.0755,-0.0351,-0.004));
#1506=CARTESIAN_POINT('',(0.0755,-0.0351,0.028363));
#1507=CARTESIAN_POINT('',(0.0755,0.00101250000000001,-0.004));
#1508=CARTESIAN_POINT('',(0.0755,0.037125,-0.004));
#1509=CARTESIAN_POINT('',(0.0755,0.037125,-0.002));
#1510=CARTESIAN_POINT('',(0.0755,0.037125,0.033363));
#1511=CARTESIAN_POINT('',(0.0755,0.033125,0.033363));
#1512=CARTESIAN_POINT('',(0.0755,-0.0301,0.033363));
#1513=CARTESIAN_POINT('',(0.0755,-0.0301,0.028363));
#1514=CARTESIAN_POINT('',(-0.199716605111729,0.00101249999999998,-0.004));
#1515=CARTESIAN_POINT('',(0.06,-0.0275,-0.004));
#1516=CARTESIAN_POINT('',(0.06,-0.0295,-0.004));
#1517=CARTESIAN_POINT('',(0.0575,0.0106,-0.004));
#1518=CARTESIAN_POINT('',(0.0575,0.0086,-0.004));
#1519=CARTESIAN_POINT('',(-0.06,-0.0075,-0.004));
#1520=CARTESIAN_POINT('',(-0.06,-0.0095,-0.004));
#1521=CARTESIAN_POINT('',(-0.06,-0.0275,-0.004));
#1522=CARTESIAN_POINT('',(-0.06,-0.0295,-0.004));
#1523=CARTESIAN_POINT('',(-0.199716605111729,-0.0351,-0.004));
#1524=CARTESIAN_POINT('',(-0.0755,-0.0351,-0.004));
#1525=CARTESIAN_POINT('',(-0.0755,0.0010125,-0.004));
#1526=CARTESIAN_POINT('',(-0.0755,0.037125,-0.004));
#1527=CARTESIAN_POINT('',(-0.199716605111729,0.037125,-0.004));
#1528=CARTESIAN_POINT('',(-0.199716605111729,0.037125,-0.002));
#1529=CARTESIAN_POINT('',(-0.004,0.037125,0.0249835));
#1530=CARTESIAN_POINT('',(-0.004,0.037125,0.0299835));
#1531=CARTESIAN_POINT('',(-0.025,0.037125,0.0249835));
#1532=CARTESIAN_POINT('',(-0.025,0.037125,0.0299835));
#1533=CARTESIAN_POINT('',(0.038,0.037125,0.0249835));
#1534=CARTESIAN_POINT('',(0.038,0.037125,0.0299835));
#1535=CARTESIAN_POINT('',(0.017,0.037125,0.0249835));
#1536=CARTESIAN_POINT('',(0.017,0.037125,0.0299835));
#1537=CARTESIAN_POINT('',(0.059,0.037125,0.0249835));
#1538=CARTESIAN_POINT('',(0.059,0.037125,0.0299835));
#1539=CARTESIAN_POINT('',(0.017,0.037125,0.0114453));
#1540=CARTESIAN_POINT('',(0.017,0.037125,0.0164453));
#1541=CARTESIAN_POINT('',(-0.004,0.037125,0.0114453));
#1542=CARTESIAN_POINT('',(-0.004,0.037125,0.0164453));
#1543=CARTESIAN_POINT('',(0.059,0.037125,0.0114453));
#1544=CARTESIAN_POINT('',(0.059,0.037125,0.0164453));
#1545=CARTESIAN_POINT('',(0.038,0.037125,0.0114453));
#1546=CARTESIAN_POINT('',(0.038,0.037125,0.0164453));
#1547=CARTESIAN_POINT('',(-0.0160084,0.037125,0.0182144));
#1548=CARTESIAN_POINT('',(-0.0160084,0.037125,0.0194082));
#1549=CARTESIAN_POINT('',(-0.025,0.037125,0.0114453));
#1550=CARTESIAN_POINT('',(-0.025,0.037125,0.0164453));
#1551=CARTESIAN_POINT('',(-0.048,0.037125,0.0111));
#1552=CARTESIAN_POINT('',(-0.048,0.037125,0.015725));
#1553=CARTESIAN_POINT('',(-0.06246,0.037125,0.0077));
#1554=CARTESIAN_POINT('',(-0.06246,0.037125,0.009825));
#1555=CARTESIAN_POINT('',(0.0679916,0.037125,0.0182144));
#1556=CARTESIAN_POINT('',(0.0679916,0.037125,0.0194082));
#1557=CARTESIAN_POINT('',(-0.0755,0.037125,-0.002));
#1558=CARTESIAN_POINT('',(-0.0755,0.037125,0.033363));
#1559=CARTESIAN_POINT('',(0.075502,0.037125,0.033363));
#1560=CARTESIAN_POINT('',(-0.199716605111729,-0.0351,-0.002));
#1561=CARTESIAN_POINT('',(-0.0715,-0.0351,0.028363));
#1562=CARTESIAN_POINT('',(-0.0755,-0.0351,0.028363));
#1563=CARTESIAN_POINT('',(-0.0755,-0.0351,-0.002));
#1564=CARTESIAN_POINT('',(0.075502,-0.0351,0.028363));
#1565=CARTESIAN_POINT('',(-0.0755,-0.035,0.003));
#1566=CARTESIAN_POINT('',(-0.0755,-0.0301,0.028363));
#1567=CARTESIAN_POINT('',(-0.0755,-0.0301,0.033363));
#1568=CARTESIAN_POINT('',(-0.0755,0.033125,0.033363));
#1569=CARTESIAN_POINT('',(0.075502,0.033125,0.033363));
#1570=CARTESIAN_POINT('',(-0.0655,0.023125,0.033363));
#1571=CARTESIAN_POINT('',(-0.069,0.023125,0.033363));
#1572=CARTESIAN_POINT('',(-0.0655,-0.0181,0.033363));
#1573=CARTESIAN_POINT('',(-0.069,-0.0181,0.033363));
#1574=CARTESIAN_POINT('',(0.0655,-0.0181,0.033363));
#1575=CARTESIAN_POINT('',(0.062,-0.0181,0.033363));
#1576=CARTESIAN_POINT('',(0.0655,0.023125,0.033363));
#1577=CARTESIAN_POINT('',(0.062,0.023125,0.033363));
#1578=CARTESIAN_POINT('',(-0.0715,-0.0301,0.033363));
#1579=CARTESIAN_POINT('',(-0.0595,-0.0301,0.033363));
#1580=CARTESIAN_POINT('',(-0.0595,-0.0301,0.033363));
#1581=CARTESIAN_POINT('',(-0.0595,-0.000487500000000016,0.033363));
#1582=CARTESIAN_POINT('',(-0.0595,0.029125,0.033363));
#1583=CARTESIAN_POINT('',(-0.0595,0.029125,0.033363));
#1584=CARTESIAN_POINT('',(0.0595,0.029125,0.033363));
#1585=CARTESIAN_POINT('',(0.0595,0.029125,0.033363));
#1586=CARTESIAN_POINT('',(0.0595,-0.0004875,0.033363));
#1587=CARTESIAN_POINT('',(0.0595,-0.0301,0.033363));
#1588=CARTESIAN_POINT('',(0.0595,-0.0301,0.033363));
#1589=CARTESIAN_POINT('',(0.075502,-0.0301,0.033363));
#1590=CARTESIAN_POINT('',(0.075502,-0.0301,0.028363));
#1591=CARTESIAN_POINT('',(-0.0715,-0.0301,0.028363));
#1592=CARTESIAN_POINT('',(0.0595,0.029125,0.030363));
#1593=CARTESIAN_POINT('',(0.0595,0.029125,0.027363));
#1594=CARTESIAN_POINT('',(0.0595,0.029125,0.027363));
#1595=CARTESIAN_POINT('',(0.0595,0.029125,0.030363));
#1596=CARTESIAN_POINT('',(0.0595,-0.0301,0.030363));
#1597=CARTESIAN_POINT('',(0.0595,-0.0301,0.030363));
#1598=CARTESIAN_POINT('',(0.0595,-0.0301,0.027363));
#1599=CARTESIAN_POINT('',(0.0595,-0.0301,0.027363));
#1600=CARTESIAN_POINT('',(0.0595,-0.0004875,0.027363));
#1601=CARTESIAN_POINT('',(0.0655,-0.0181,0.027363));
#1602=CARTESIAN_POINT('',(0.0635,-0.0181,0.027363));
#1603=CARTESIAN_POINT('',(0.0655,0.023125,0.027363));
#1604=CARTESIAN_POINT('',(0.0635,0.023125,0.027363));
#1605=CARTESIAN_POINT('',(0.0595,-0.0004875,0.027363));
#1606=CARTESIAN_POINT('',(0.0595,0.0010125,0.0146815));
#1607=CARTESIAN_POINT('',(-0.0595,0.029125,0.030363));
#1608=CARTESIAN_POINT('',(-0.0595,0.029125,0.030363));
#1609=CARTESIAN_POINT('',(-0.0595,0.029125,0.027363));
#1610=CARTESIAN_POINT('',(-0.0595,0.029125,0.027363));
#1611=CARTESIAN_POINT('',(-0.0595,-0.0301,0.030363));
#1612=CARTESIAN_POINT('',(-0.0595,-0.0301,0.027363));
#1613=CARTESIAN_POINT('',(-0.0595,-0.0301,0.027363));
#1614=CARTESIAN_POINT('',(-0.0595,-0.0301,0.030363));
#1615=CARTESIAN_POINT('',(-0.0595,-0.000487500000000013,0.027363));
#1616=CARTESIAN_POINT('',(-0.0655,0.023125,0.027363));
#1617=CARTESIAN_POINT('',(-0.0675,0.023125,0.027363));
#1618=CARTESIAN_POINT('',(-0.0655,-0.0181,0.027363));
#1619=CARTESIAN_POINT('',(-0.0675,-0.0181,0.027363));
#1620=CARTESIAN_POINT('',(-0.0595,-0.000487500000000013,0.027363));
#1621=CARTESIAN_POINT('',(-0.0595,0.0010125,0.0146815));
#1622=CARTESIAN_POINT('',(-0.06,-0.0275,-0.004002));
#1623=CARTESIAN_POINT('',(-0.06,-0.0275,0.0015));
#1624=CARTESIAN_POINT('',(-0.058,-0.0275,0.0015));
#1625=CARTESIAN_POINT('',(-0.06,-0.0075,-0.004002));
#1626=CARTESIAN_POINT('',(-0.06,-0.0075,0.0015));
#1627=CARTESIAN_POINT('',(-0.058,-0.0075,0.0015));
#1628=CARTESIAN_POINT('',(0.0575,0.0106,-0.004002));
#1629=CARTESIAN_POINT('',(0.0575,0.0106,0.0015));
#1630=CARTESIAN_POINT('',(0.0575,0.0086,0.0015));
#1631=CARTESIAN_POINT('',(0.06,-0.0275,-0.004002));
#1632=CARTESIAN_POINT('',(0.06,-0.0275,0.0015));
#1633=CARTESIAN_POINT('',(0.062,-0.0275,0.0015));
#1634=CARTESIAN_POINT('',(0.06,-0.0275,0.003002));
#1635=CARTESIAN_POINT('',(0.06,-0.0275,0.003));
#1636=CARTESIAN_POINT('',(0.06,-0.0315,0.003));
#1637=CARTESIAN_POINT('',(-0.06,-0.0275,0.003));
#1638=CARTESIAN_POINT('',(0.06,-0.0275,0.003));
#1639=CARTESIAN_POINT('',(0.06,-0.031,0.003));
#1640=CARTESIAN_POINT('',(0.0575,0.0106,0.003002));
#1641=CARTESIAN_POINT('',(0.0575,0.0106,0.003));
#1642=CARTESIAN_POINT('',(0.0575,0.0066,0.003));
#1643=CARTESIAN_POINT('',(-0.06,-0.0275,0.003));
#1644=CARTESIAN_POINT('',(0.0575,0.0106,0.003));
#1645=CARTESIAN_POINT('',(0.0575,0.0071,0.003));
#1646=CARTESIAN_POINT('',(-0.06,-0.0075,0.003002));
#1647=CARTESIAN_POINT('',(-0.06,-0.0075,0.003));
#1648=CARTESIAN_POINT('',(-0.06,-0.0115,0.003));
#1649=CARTESIAN_POINT('',(-0.06,-0.0275,0.003));
#1650=CARTESIAN_POINT('',(-0.06,-0.0075,0.003));
#1651=CARTESIAN_POINT('',(-0.06,-0.011,0.003));
#1652=CARTESIAN_POINT('',(-0.06,-0.0275,0.003002));
#1653=CARTESIAN_POINT('',(-0.06,-0.0275,0.003));
#1654=CARTESIAN_POINT('',(-0.06,-0.0315,0.003));
#1655=CARTESIAN_POINT('',(-0.06,-0.0275,0.003));
#1656=CARTESIAN_POINT('',(-0.06,-0.0275,0.003));
#1657=CARTESIAN_POINT('',(-0.06,-0.031,0.003));
#1658=CARTESIAN_POINT('',(-0.0655,-0.0181,0.027361));
#1659=CARTESIAN_POINT('',(-0.0655,-0.0181,0.031863));
#1660=CARTESIAN_POINT('',(-0.0675,-0.0181,0.031863));
#1661=CARTESIAN_POINT('',(-0.0655,0.023125,0.027361));
#1662=CARTESIAN_POINT('',(-0.0655,0.023125,0.031863));
#1663=CARTESIAN_POINT('',(-0.0675,0.023125,0.031863));
#1664=CARTESIAN_POINT('',(0.0655,0.023125,0.027361));
#1665=CARTESIAN_POINT('',(0.0655,0.023125,0.031863));
#1666=CARTESIAN_POINT('',(0.0635,0.023125,0.031863));
#1667=CARTESIAN_POINT('',(0.0655,-0.0181,0.027361));
#1668=CARTESIAN_POINT('',(0.0655,-0.0181,0.031863));
#1669=CARTESIAN_POINT('',(0.0635,-0.0181,0.031863));
#1670=CARTESIAN_POINT('',(0.059,0.035123,0.0249835));
#1671=CARTESIAN_POINT('',(0.038,0.035123,0.0249835));
#1672=CARTESIAN_POINT('',(0.017,0.035123,0.0249835));
#1673=CARTESIAN_POINT('',(-0.004,0.035123,0.0249835));
#1674=CARTESIAN_POINT('',(-0.025,0.035123,0.0249835));
#1675=CARTESIAN_POINT('',(0.0679916,0.035123,0.0182144));
#1676=CARTESIAN_POINT('',(-0.06246,0.035123,0.0077));
#1677=CARTESIAN_POINT('',(-0.048,0.035123,0.0111));
#1678=CARTESIAN_POINT('',(-0.025,0.035123,0.0114453));
#1679=CARTESIAN_POINT('',(-0.0160084,0.035123,0.0182144));
#1680=CARTESIAN_POINT('',(0.038,0.035123,0.0114453));
#1681=CARTESIAN_POINT('',(0.059,0.035123,0.0114453));
#1682=CARTESIAN_POINT('',(-0.004,0.035123,0.0114453));
#1683=CARTESIAN_POINT('',(0.017,0.035123,0.0114453));
#1684=CARTESIAN_POINT('',(-0.0655,0.023125,0.031863));
#1685=CARTESIAN_POINT('',(-0.0655,-0.0181,0.031863));
#1686=CARTESIAN_POINT('',(0.0655,-0.0181,0.031863));
#1687=CARTESIAN_POINT('',(0.0655,0.023125,0.031863));
#1688=CARTESIAN_POINT('',(-0.06,-0.0075,0.0015));
#1689=CARTESIAN_POINT('',(-0.06,-0.0275,0.0015));
#1690=CARTESIAN_POINT('',(0.0575,0.0106,0.0015));
#1691=CARTESIAN_POINT('',(0.06,-0.0275,0.0015));
#1692=MECHANICAL_DESIGN_GEOMETRIC_PRESENTATION_REPRESENTATION('',(#999),
#1693);
#1693=(
GEOMETRIC_REPRESENTATION_CONTEXT(3)
GLOBAL_UNCERTAINTY_ASSIGNED_CONTEXT((#1694))
GLOBAL_UNIT_ASSIGNED_CONTEXT((#1697,#1696,#1695))
REPRESENTATION_CONTEXT('Bottom','TOP_LEVEL_ASSEMBLY_PART')
);
#1694=UNCERTAINTY_MEASURE_WITH_UNIT(LENGTH_MEASURE(1.E-8),#1697,
'DISTANCE_ACCURACY_VALUE','Maximum Tolerance applied to model');
#1695=(
NAMED_UNIT(*)
SI_UNIT($,.STERADIAN.)
SOLID_ANGLE_UNIT()
);
#1696=(
NAMED_UNIT(*)
PLANE_ANGLE_UNIT()
SI_UNIT($,.RADIAN.)
);
#1697=(
LENGTH_UNIT()
NAMED_UNIT(*)
SI_UNIT($,.METRE.)
);
#1698=PRODUCT_DEFINITION_SHAPE('','',#1699);
#1699=PRODUCT_DEFINITION('','',#1701,#1700);
#1700=PRODUCT_DEFINITION_CONTEXT('',#1707,'design');
#1701=PRODUCT_DEFINITION_FORMATION_WITH_SPECIFIED_SOURCE('','',#1703,
 .NOT_KNOWN.);
#1702=PRODUCT_RELATED_PRODUCT_CATEGORY('','',(#1703));
#1703=PRODUCT('Bottom','Bottom','Bottom',(#1705));
#1704=PRODUCT_CATEGORY('','');
#1705=PRODUCT_CONTEXT('',#1707,'mechanical');
#1706=APPLICATION_PROTOCOL_DEFINITION('international standard',
'ap242_managed_model_based_3d_engineering',2020,#1707);
#1707=APPLICATION_CONTEXT('managed model based 3d engineering');
ENDSEC;
END-ISO-10303-21;
